<?xml version="1.0" encoding="utf-8"?>
<!-- Generator: Adobe Illustrator 24.1.0, SVG Export Plug-In . SVG Version: 6.00 Build 0)  -->
<svg version="1.1" id="Layer_1" xmlns="http://www.w3.org/2000/svg" xmlns:xlink="http://www.w3.org/1999/xlink" x="0px" y="0px"
	 viewBox="0 0 433.8 467.6" style="enable-background:new 0 0 433.8 467.6;" xml:space="preserve">
<style type="text/css">
	.st0{fill:#010101;}
	.st1{fill:#161515;}
	.st2{fill:#1A1919;}
	.st3{fill:#535352;}
	.st4{fill:#D42F35;}
	.st5{fill:#FCF1DC;}
	.st6{fill:#FDFEFE;}
	.st7{fill:#945C48;}
	.st8{fill:#DFDDED;}
	.st9{fill:#522C20;}
	.st10{fill:#EDECF6;}
	.st11{fill:#532D20;}
	.st12{fill:#EAC4B8;}
	.st13{fill:#972428;}
	.st14{fill:#283B84;}
	.st15{fill:#945B48;}
	.st16{fill:#CED9D6;}
	.st17{fill:#283A83;}
	.st18{fill:#FBF0DC;}
	.st19{fill:#FBF1DC;}
	.st20{fill:#972427;}
	.st21{fill:#FDFDFD;}
	.st22{fill:#F4DACE;}
	.st23{fill:#44F0F7;}
	.st24{fill:#EDB18E;}
	.st25{fill:#F3D8CB;}
	.st26{fill:#945B47;}
	.st27{fill:#FBFBFB;}
	.st28{fill:#EDB38C;}
	.st29{fill:#43ECF4;}
	.st30{fill:#9A2428;}
	.st31{fill:#542E21;}
	.st32{fill:#982428;}
	.st33{fill:#935B47;}
	.st34{fill:#EAB18B;}
	.st35{fill:#CDF3F9;}
	.st36{fill:#EEB995;}
	.st37{fill:#D1DCD9;}
	.st38{fill:#FAFAFA;}
	.st39{fill:#F2F2F2;}
	.st40{fill:#F8F9F9;}
	.st41{fill:#CFDAD7;}
	.st42{fill:#F8F8F8;}
	.st43{fill:#CCF3F9;}
	.st44{fill:#EDB48D;}
	.st45{fill:#CDDAD6;}
	.st46{fill:#F7F7F7;}
	.st47{fill:#F7EDDA;}
	.st48{fill:#925B47;}
	.st49{fill:#E5B08E;}
	.st50{fill:#F7F8F7;}
	.st51{fill:#EDB691;}
	.st52{fill:#593124;}
	.st53{fill:#D5DEDB;}
	.st54{fill:#F9F9F9;}
	.st55{fill:#EBE6D2;}
	.st56{fill:#905945;}
	.st57{fill:#D2DBD8;}
	.st58{fill:#F1B894;}
	.st59{fill:#9D2529;}
	.st60{fill:#CAD4D1;}
	.st61{fill:#D4DEDB;}
	.st62{fill:#ECBB9C;}
	.st63{fill:#E5ECF0;}
	.st64{fill:#F2F2F1;}
	.st65{fill:#EFF6F7;}
	.st66{fill:#E0E7ED;}
	.st67{fill:#962427;}
	.st68{fill:#992428;}
	.st69{fill:#952327;}
	.st70{fill:#9E2528;}
	.st71{fill:#7E4E3B;}
	.st72{fill:#DCE4EE;}
	.st73{fill:#2B2D2C;}
	.st74{fill:#2E2F2F;}
	.st75{fill:#646665;}
	.st76{fill:#B2AD9E;}
	.st77{fill:#FEFEFE;}
	.st78{fill:#131210;}
	.st79{fill:#0E0D0C;}
	.st80{fill:#050606;}
	.st81{fill:#F8DCC1;}
	.st82{fill:#D43035;}
	.st83{fill:#33ABA5;}
	.st84{fill:#90E3E2;}
</style>
<path class="st0" d="M347.7,47.6c18.9,19,29.4,43.1,40.1,67c4.9,10.9,9.4,22,12.2,33.7c0.4,1.6,1.5,2.4,2.9,3.2
	c9.5,5.1,19,10.3,28.6,15.3c2.6,1.4,2.8,2.8,1.5,5.1c-5.2,9.5-10.4,19-15.4,28.5c-1.2,2.3-2.5,1.5-4,0.6c-4.1-2.4-8.3-4.7-13.8-7.9
	c3.1,6.4,6.2,11.4,8.3,16.9c5.7,15.1,9.1,30.6,8.9,46.7c-0.1,10.2-3.9,19.5-9.1,28.1c-1.4,2.3-3.4,3.9-6.7,5.7
	c1.6-11.6,5.1-22.2,0.7-33.1c-0.6,10.6-6.9,19.8-6.6,30.8c0.5,16.4-4.2,32.2-8.2,48c-0.2,1-0.7,1.9-0.2,2.9c1.5,0.1,2.1-1.1,2.4-2.1
	c1.7-5.7,6-6.8,11.1-6.8c0.8,0,2.1-0.1,2.4,0.3c2.8,4.6,7.5,2.7,11.3,3.6c5.3,1.3,8.1,6,7.1,11.3c-1.9,9.8-9.6,12.9-17.9,14.8
	c-2.5,0.6-2.8,1.3-2.7,3.5c0.2,5.3,0.6,10.6-0.6,15.9c-0.6,2.5-1.6,3.2-3.7,2.1c-5.1-2.7-10.8-1.6-16.1-2.6
	c-3.2-0.6-3.9,1.5-4.8,3.8c-4.2,10.5-8.4,21-12.7,31.4c-3.9,9.3-9.9,17.3-15.6,25.5c-1.6,2.4-4.1,3.9-7.3,4.7
	c2.1-4.2,3.8-8.5,5.3-13c1.6-4.8,2.3-8.7-3.7-11.2c-3.1-1.3-5.6-4-7.4-7.8c-1.6,2.7-0.5,5.1-1.4,7.1c-0.7,1.5-0.2,5.1-3.9,2.6
	c-1.7-1.2-2.1,1-2.7,2c-4.6,8.2-9.8,15.8-16.3,22.6c-12.8,13.3-28.1,20.8-46.9,20.8c-23.4,0-45.8-4.5-67.8-12.5
	c-17.4-6.3-27.8-19.6-35.9-35c-2.4-4.5-4.9-2.7-7.6-1.9c-2.2,0.7-0.4,2.1,0,3.1c3,7.6,6.1,15.3,9.8,24.3
	c-11.5-7.5-22.6-12.8-29.2-24.2c-10.1-17.5-18.4-35.7-24.7-54.9c-0.2-0.7-0.7-1.4-1.4-2c-1,15.5,1.1,30.3,6.9,44.9
	c5.7,14.5,15.9,26.2,23.5,39.6c-7.2-1.9-13.2-5.6-19.2-9.3c-22.1-13.8-38.5-32.6-46.5-57.4c-8.2-25.5-9.5-51.9-4.6-78.4
	c1-5.4,3.3-10.5,4.9-15.7c0.3-1,1.5-2.2-0.1-3c-1.1-0.6-1.7,0.6-2.5,1.2c-5.2,4.1-10.8,7.7-17.4,11.3c2.2-6.2,6.6-10.7,7.1-16.8
	c-0.7,0-1.2-0.1-1.3,0c-9,13.9-24.9,18.4-37.6,27.3c-4.7,3.3-10.1,5.8-15.1,8.7c-1.1,0.6-2.4,1.5-3.6,0.2c-0.9-1.1-0.3-2.2,0.2-3.3
	c3.5-7,6.9-14,10.4-20.9c7.4-14.7,11.4-30.4,14.3-46.5c0.4-2.4,1.2-4.7,2-7.7c-3.4,1.6-6.1,3-8.9,4.1c-2.5,1-3.6-0.1-2.7-2.6
	c1-2.8,2.1-5.6,3.4-8.3c6-12.3,12-24.5,19.8-35.8c0.6-0.9,1-2,1.7-3.5c-4,0-7.4,0-11.6,0c2.3-4.1,5.5-6.4,8.2-9
	c3.4-3.2,6.7-6.6,8.5-10.9c2.6-6,5.1-11.9,11-15.4c-0.4-0.6-0.5-1-0.8-1.1c-2-0.8-5.1,0.1-5.3-3.3c-0.2-3.1,2.8-3.1,4.5-3.7
	c7.9-3.1,15.8-6,23.9-8.6c4.8-1.5,9.5,0.2,14.1,1.6c2.1,0.6,3.3,0.8,3.8-2c7-37.5,26.9-67.5,53.8-93.6
	c12.9-12.6,26.8-23.9,42.6-32.7c7.8-4.4,16.2-7.5,24.9-9.4c2.7-0.4,5.4-1.2,8.1-1.3c3-0.2,2.5,1.2,0.9,2.7
	c-9.2,3.5-18.7,5.8-27.7,10c-13.6,6.3-25.1,15.7-36.3,25.4c-8.6,7.4-16.7,15.3-24.2,23.7c-8.1,9-14.3,19.2-20.4,29.5
	c-9.6,16.2-16.2,33.5-18.3,52.4c-0.2,1.5-0.6,3-0.4,4.5c0.4,4.8-2,7.9-5.9,10.1c-7.2,4.2-14.2,8.8-21.3,13
	c-5.7,3.4-5.9,4.4-2.5,10.3c2,3.5,4.3,6.7,6.5,10.1c4.4,6.6,4.4,6.6,11.2,2.6c26-15.2,53.3-27.4,82.1-36.2
	c26.2-8.1,52.8-13.5,80.5-13.1c21.3,0.3,42.6,0.4,63.6,4.3c20.8,3.8,40.2,11.9,59,21.3c11.6,5.8,23,12,34.2,18.6
	c1.3,0.8,2.5,1.6,3.8,2.4c1.7,1,3.2,0.7,4.3-1c4.3-6.5,7.9-13.5,12.1-20.1c1.5-2.3,0.1-3.6-1.9-4.7c-7.6-4.4-15.2-8.9-23.2-12.7
	c-4.2-2-6.5-4.6-7.8-8.9c-8.7-29.3-21.3-56.9-38.4-82.4c-4-5.9-8.1-11.8-13.3-16.7c-1.3-1.2-2.7-2.5-2.9-4.5
	c0.7-2.1,1.9-1.8,3.3-0.7C345,44.4,346.5,45.8,347.7,47.6z"/>
<path class="st1" d="M226.7,5.5c-0.1-0.6,2.6-1.9-0.1-1.7c-2.7,0.2-5.3,1.2-8,0.7c20.4-6.1,40.8-6,61.1,0.3c1.1,0.8,3.1,0.9,2.9,2.6
	c-0.1,1.1-1.7,1.2-2.8,1.3c-11.3-2-22.5-4.1-34-3.7c-4.5,0.2-8.9,0.3-13.4,1.1C230.5,6.5,228.4,7.2,226.7,5.5z"/>
<path class="st2" d="M347.7,47.6c-2.8-0.5-3.1-5.4-7-4c-1.8,0.6-2.8-0.7-3.8-1.7c-8.3-7.7-17.5-14.2-27.4-19.8
	c-2-1.1-4.9-1.7-5.2-4.8c0.9-1.9,2.1-0.9,3.3-0.4c1.8,0.8,3.5,1.9,5.4,2.5c11.6,6.4,21.5,14.9,31.2,23.7
	C345.6,44.3,347.6,45.3,347.7,47.6z"/>
<path class="st3" d="M313,19.4c-3.1,0.9-5.1-3.7-8.4-1.7c-1.5,1-2.9,0.2-4.2-0.4c-5.9-2.9-11.8-5.6-18.1-7.7c-0.9-0.3-1.9-0.8-1.7-2
	c2.6-1.9-1.9-1.5-1-2.9C291.4,8.3,302.8,12.5,313,19.4z"/>
<path class="st4" d="M407.7,193.9c-17.9-9.9-35.7-19.9-54.5-28.1c-27.2-11.8-55.8-15.1-85.1-16.5c-63-2.9-119.9,16.5-174.1,46.3
	c-2,1.1-4.1,2.1-6.2,3.1c-5.2-4.2-7.6-10.4-10.9-15.9c-1.5-2.5,0.7-3.9,2.6-5.1c6.8-4.3,13.7-8.2,20.5-12.4c3.4-2.1,5.4-4.5,5.8-8.6
	c0.8-8.4,1.9-16.8,3.8-25.1c3.2-13.9,10-26.1,17.1-38.1c17.4-29.8,42.3-52.2,71.5-69.6c19-11.3,40.6-15.1,62.7-11.9
	c44.4,6.4,76.3,30.9,98.4,69.2c12.6,21.9,22.8,44.8,29.9,69.1c1.4,4.7,4,8.2,8.4,10.6c5.7,3.1,11.3,6.4,17,9.4
	c5,2.7,5.4,3.9,2.4,8.5C413.8,183.7,411.9,189.5,407.7,193.9z"/>
<path class="st5" d="M217.7,214.7c-1-0.3-2.1-0.7-3.1-1c-1.1-5,1.6-8.7,4.4-12c2.5-3,4-0.3,4.8,2c2.1,5.8,4.2,11.5,6.9,17
	c2,4.8,4,9.7,6.1,14.5c0.5,1.2,1.2,2.6,2.8,2.4c1.9-0.3,1.8-2,2.2-3.4c0.5-1.8-2.1-4.7,1.8-5.4c2,6,4.7,11.7,7.8,17.2
	c3.9,6.7,7.9,6.8,12.7,0.7c3.4-4.4,5.2-9.6,8-14.4c0.5-0.8,1.2-2,2.2-1.6c1.4,0.5,0.8,1.9,0.6,3c0.1,1.5-1,3.7,1.5,4.1
	c2.1,0.4,3.3-1.2,4.4-2.7c6.8-10.4,11.5-21.7,14.9-33.6c2.2-7.7,3.7-15.5,3.6-23.7c5.2,9.7,7.9,20.2,10.3,30.7
	c0.4,1.6-0.7,1.9-1.8,2.4c-1.7,0.9-3.9,0.7-5.2,2.4c0.2,0.3,0.4,0.8,0.5,0.8c7.8-0.5,7.9-0.5,8.6,7.7c0.3,3.1,0.5,6.3,0.7,9.5
	c0.1,1.4-0.3,3.3,1.8,3.6c1.8,0.2,2.7-1.4,3-2.8c1.3-5.2,2.6-10.3,3.6-15.5c0.5-2.6,1.3-4.2,4.4-3.9c2.9,0.3,5.5,0,6.1,4
	c0.9,6.6,2.3,13.1,3.4,19.7c0.2,1.3,0.2,2.9,1.8,3.3c1.8,0.5,2.6-1.1,3.4-2.3c3.4-5.2,5.5-11,8-17.9c3,12,4.6,23,5.1,35
	c-8.6-4.9-17.4-7.1-26.8-6.8c-8.5,0.3-16.3,2.8-23.9,6.5c-3.3,1.6-5.3,4.5-6.8,7.7c-0.6,1.2-1.6,2.4-0.4,3.6c1,1.1,2.4,0.9,3.7,0.2
	c1.5-0.7,3-1.3,4.8-2.2c-1.1,7-1.3,13.6-0.3,20.2c1.3,7.6,4.3,13.5,12.2,15.8c0.1,2.3-1.9,2-3.1,2.3c-2.4,0.7-4.8,1.3-7.1,2.3
	c-5.2,2.4-7.9,8.1-5.4,13.2c3.9,7.9,9.9,13.8,18.8,15.6c5.6,1.1,10.8-0.4,14.9-4.8c1.7-1.8,3.2-3.8,5.3-5.2c1.8-1.1,2.4-0.3,1.6,1.6
	c-8,18.1-22.2,29.3-40.4,35.9c-25.9,9.4-52.1,6.6-78.2,0.5c-13.1-3.1-26-6.9-37.6-14.2c-0.9-4.6-3-8.7-4.7-13
	c-0.7-4-0.1-4.8,3.9-3.8c7.7,2.1,15.1,1.6,22.5-1.2c2.2-0.8,4.4-1.7,6.2-3.1c3.1-2.4,6-5.2,5.5-9.4c-0.5-4.6-3.6-7.7-7.9-9.5
	c-2.6-1.1-5.6-1-8.2-1.8c-1.6-0.5-3.9,0.1-4.2-2.6c8.8-1.4,12.8-7.4,15.2-15.2c2.1-7.1,3.2-14.2,2.3-21.6c2.2-0.4,3.1,1.4,4.5,2.1
	c1.3,0.6,2.3,2.4,3.9,1.1c1.7-1.4,0.5-3.1-0.2-4.5c-2.1-4.8-5.5-8.1-10.4-10.1c-14.3-5.9-28.9-6.8-43.9-3c-1.4,0.4-2.8,0.8-4.6,1.2
	c0-4.4,0-8.7,0-13.1c2.2,1.8,2.4,5.6,5.5,5.9c1.9,0.2,2.2-2.1,2.7-3.7c3.6-7.6,7.3-15.1,10.2-23c0.5-1.3,1.4-2.2,2.6-2.8
	c1-0.1,2-0.1,3-0.2c3.5,4.4,3.8,10.1,5.7,15.1c0.9,2.3,1.3,4.7,2.2,7c1.8,1.2-0.6,7.7,5.1,4c2.8-6.3,4.1-13.1,7-19.4
	c1.7-3.7,3.1-7,8-6.2C217.6,216.1,218,215.5,217.7,214.7z"/>
<path class="st6" d="M407.7,193.9c1.8-6,5.5-11,8.7-16.2c1.8-2.9,1.9-4.3-1.5-5.9c-5.8-2.8-11.3-6.4-17.1-9.3
	c-5.5-2.7-8.5-6.9-10.2-12.8c-7.5-25.7-18.7-49.8-32.3-72.8c-16.3-27.7-40-46.9-69.7-58c-32-12-63.7-9-92.4,9.4
	c-31,19.8-56.5,45.3-73,79c-7.7,15.9-12,32.4-13.2,49.8c-0.3,3.9-1.8,6.5-5.1,8.4c-7.5,4.4-14.7,9.1-22.2,13.4
	c-2.4,1.4-2.9,2.5-1.2,4.9c3.3,4.8,6.2,9.9,9.2,14.8c-6.4,4.6-7,4.6-11.2-1.9c-3-4.6-6-9.2-8.9-13.9c-2.1-3.4-2.2-6,2.2-8.4
	c8.6-4.7,16.8-10.1,25.1-15.2c1.7-1,3.3-1.9,3.5-4.4c3-41.5,22.9-74.6,51.7-103.2c8-8,16.8-15.1,25.6-22.3
	c15-12.2,32.3-19.5,50.9-24c18.1-3.7,36.1-2,53.9,2.2c8.2,2.9,16.2,6.3,24,10.1c12.9,7.4,25.2,15.6,36.1,25.8
	c27.6,29.7,43.3,65.8,55.5,103.7c1.2,3.6,2.9,5.7,6.4,7.5c8.6,4.3,16.9,9.3,25.4,13.9c2.1,1.1,2.5,2.3,1.3,4.3
	c-4.7,7.9-9.3,15.7-14,23.6c-0.8,1.3-1.5,1.4-2.7,0.5C411.1,195.9,409.4,194.9,407.7,193.9z"/>
<path class="st7" d="M103.7,283.4c-3.3,1.8-0.9,4.8-1.3,7.5c-1-0.2-2-0.4-2.9-0.5c-8.4-1.7-14.9,1.7-16.9,8.9
	c-2.1,7.5,2,16,9.1,18.8c0.6,0.2,1.3,0.4,1.9,0.7c6.9,3,7.2,4.1,3.3,10.5c-2.7,4.4-5.3,8.9-8,13.2c-2.5,3.8-1.5,6.1,2.8,7.3
	c1.5,1.4,0.6,3.1,0.6,4.7c-0.1,25,4.1,48.9,17.7,70.5c1.2,2,2.8,3.7,4,5.7c0.5,0.8,2.1,2.1-0.2,3c-24.1-16.1-38.7-38.6-43.8-67
	c-3.2-17.9-4.6-36-2.2-54.2c1.7-12.6,5.8-24.6,10.5-36.4c6.9-17.3,14.3-34.4,21.5-51.6c6-2.4,11.3-6.3,17.2-8.9
	c5-2.2,5.5-1.9,5.4,3.7c0,1.1,0.2,2.3-0.3,3.4c-0.1,3.3-0.2,6.6-0.3,9.9c-0.5,6.2-3.7,11.3-6.5,16.4c-5.3,9.6-8.8,19.6-8.5,30.7
	C106.7,281.8,105.8,283,103.7,283.4z"/>
<path class="st8" d="M69.8,191.7c2.4,3.6,4.9,7.1,7.2,10.7c2.2,3.6,4.9,4.1,8.4,2.1c5.6-3.2,11.3-6.3,17.7-9.9
	c-2.1,11.8-4.6,22.8-8.6,33.2c-6.5,16.7-13.4,33.3-20.8,49.6c-2.5,5.4-8.9,7.5-14.2,10.2c1-3.1,2.4-6,2.7-9.2c0.1-1.3,0.3-2.8-1-3.6
	c-1.4-0.8-2.7,0-3.5,1.1c-9.9,14.4-26.3,19.9-39.8,29.3c-4.1,2.9-8.7,5.2-13.5,7.4c4.6-6.8,7.6-14.3,11.5-21.3
	c12.8-16,23.9-33,32.2-51.6c-1.8-1.4-2.8,0.1-3.9,0.4c-4.5,1.1-7.6-1.8-6.6-6.3c0.4-1.6,1.2-3.1,2.1-4.5
	c7.1-10.9,14.4-21.6,21.4-32.5C63,193.6,66.3,192.5,69.8,191.7z"/>
<path class="st7" d="M393.6,269.5c0.8-4.9,1.4-9.9,0.7-15c-4.8,20.1-12,39-29.1,52.7c4.5-16.1,7.7-32,7.3-48.7
	c-2.1,8.1-3.9,15.9-6.1,23.6c-2.3,7.8-6.7,14.2-14.1,20c9.1-28,4.1-54.9,0.1-82c1.2-1.1,2.7,1.3,4.3-0.3c-11.9-5.9-3-14.5-2.9-22.2
	c2.4-1.6,4.5,0,6.5,0.9c13.3,5.7,26.3,12,39.1,18.7c3,1.6,7,1.2,9.2,4.4c7.8,22.2,7,48.5-2.5,59.9c1.3-9.9,1.2-18.9-1.4-27.8
	c-0.5-1.7-0.5-4-2.9-4.1c-3-0.1-2.6,2.7-2.9,4.4c-1.1,6.6-2.3,13.1-4.3,19.5C392,272.7,393.4,270.9,393.6,269.5z"/>
<path class="st7" d="M154.6,200.6c0.2,4.7,0.6,9.5,2.4,13.7c4.3,10.3,4,20.9,3.8,31.6c-0.4,22.5,4,43.9,13.3,64.4
	c0.2,0.4,0.2,0.9,0.4,1.8c-8.2-3.6-13.6-9.2-16.4-17.3c-2.6-7.3-5.1-14.7-8.1-23.4c-0.8,11.7,2.8,21.1,7.4,29.9
	c2.4,4.6,4.4,9.2,5.8,14.1c1.1,4,2.8,7.7,4.9,11.6c-2,0.5-2.8-0.7-3.8-1.3c-21.2-14.3-31.9-35.2-36.3-59.6
	c-3.1-16.9-2.9-34.1-2-51.2c0.1-1.5,0.6-2.9,0.9-4.3c7.5-5.5,16.2-8.8,24.3-13C154.3,196.1,154.1,198.8,154.6,200.6z"/>
<path class="st9" d="M228.7,182.5c-0.6-9.4,2.4-18,5.4-26.6c0.7-2.1,1.9-3.3,4.4-3.3c27.7-0.2,55.5,0.2,82.7,6.2
	c9.7,2.1,19.1,5.5,28.3,9.5c1.6,0.7,3.3,1.1,3.1,3.3c-0.6,9-1,18.1-2.9,27c-2-2.9-5.1-4-8.4-5c-4-1.2-8.1-2-11.7-4.1
	c-2.8-7.7-6.1-15.2-7-23.5c-0.1-1.1-0.4-2.3-0.7-3.4c-0.3-1.2-0.1-3.2-1.9-2.9c-2.1,0.3-1.5,2.4-1.2,3.7c0.7,3.1,0.7,6.2,1.1,9.3
	c0.5,4.3,0,8.5-0.2,12.8c-4.8,2.5-8.8-0.9-13.1-2c-3.6-8.2-7.2-16.3-10.8-24.5c-0.5-1.1-0.9-2.5-2.3-2.1c-1.8,0.5-1.4,1.9-0.9,3.3
	c2.4,7,2.7,14.3,3.2,21.6c0.1,1.6,0.4,3.4-0.8,4.8c-2.2-2.9-5.2-3.7-8.7-3.6c-15.4,0.5-30.9-0.7-46.3,0.9
	C236.2,184.3,232.2,185.1,228.7,182.5z"/>
<path class="st10" d="M69.8,191.7c0,0.2,0,0.4-0.1,0.5c-9,3.1-11.4,12.1-16.5,18.7c-4.8,6.3-8.8,13.2-13.1,19.9
	c-1.6,2.4-3.1,5-0.7,7.6c2.3,2.5,4.6,0.6,6.7-0.7c1-0.6,1.9-1.6,3.1-0.6c1.1,1,0.3,2.2-0.2,3.2C43.7,251.7,38,263,30.6,273.2
	c-4.5,6.2-9,12.3-13.4,18.5c-1,1.5-1.3,1.1-1.5-0.3c3.1-9,7.6-17.6,9.5-27.1c1.9-9.6,2.2-19.6,7.1-28.4c0.6-1.1,0.6-2.3-0.4-3.2
	c-1.3-1.1-2.5-0.2-3.5,0.7c-2.6,2-5.3,3.8-9.5,5.7c2-4.1,3.5-7.3,5.2-10.4c5.2-9.8,10.4-19.7,16.3-29.1c5.2-8.4,4.3-10.1-6.4-10.4
	c9.3-4.7,13.5-12.2,16.9-20.4c1.3-3.2,4.2-5.5,6.7-8c5.6-5.6,5.4-6.3-1.9-8.6c5.9-2.2,12-4.2,18-6.6c5.6-2.3,11.3-2.7,17-0.8
	c1.8,0.6,5.1-0.1,4.8,3.1c-0.3,3.1,0.9,6.8-2.7,9c-8.5,5.1-16.9,10.5-25.6,15.5c-5.2,3-5.9,5.1-2.8,10.4
	C66.3,185.6,68,188.7,69.8,191.7z"/>
<path class="st7" d="M228.7,182.5c20.2-1.1,40.5-0.9,60.7-1c4.2,0,5.8,1.2,5.4,5.2c-1.7,15.1-7.5,28.7-15.3,41.8c1-10,2-19.9,3-29.8
	c-7.2,14.7-14,29.6-22.2,43.8c-0.7,1.2-0.9,3.4-2.5,3.4c-1.8,0-2.3-2.2-3.1-3.6c-6.9-11.8-10.8-24.6-13-38c-0.4-2.2-0.9-4.5-1.5-7.8
	c-1.5,11.1,0.9,21.2-2.3,32.2C232.2,213.2,227.6,198.5,228.7,182.5z"/>
<path class="st4" d="M228.6,401.3c0.7-0.6,1.5-1.2,2.2-1.7c3.2-1.9,3.5-1.9,4.9-0.1c-6.4,9.3-12.7,18.6-19.1,28
	c-1.6,3.9,0.9,5.9,3.7,7.9c1.7,1.2,4.6,1.2,4.6,4.3c-1.7,5.5-3.6,11-5,16.6c-0.7,2.7-2,2.9-4.3,2.2c-6-1.9-12.1-3.4-17.9-6
	c-2-1.1-2-2.9-1.8-4.8c1.1-10.2,1.2-20.6,2.1-30.8c0.7-7.6-3-14.2-6.2-20.8c-1.6-3.3-3.6-6.4-5.8-9.3c-1-1.3-2.4-2.5-1.5-4.4
	c1.5-10.1,2-20.3,0.1-31c4.7,2.2,8.8,4.2,13,6.1c1.2,0.6,1.8,1.7,1.7,2.8c-0.7,5,3.6,9.3,1.6,14.5c-0.4,1.1,0.8,2.1,1.5,3
	c1.3,1.8,1.2,3.7,0.4,5.7l0,0c-1.5,2.7,0.8,3.8,2.4,5.1c1,0.9,3.1,0.8,2.6,2.9c-0.1,1.3,0.1,2.6,1,3.7c1.7,2,4,1.2,5.9,1.2
	c3.2-0.1,5.5,0.3,7.1,3.7C223.2,403,225.9,403.8,228.6,401.3z"/>
<path class="st9" d="M105.9,353.6c6,0.2,11.1,2.4,16.4,3.3c4.9,0.8,9.6,2.5,14.5,3.5c8,1.8,13.8,6.1,17.2,13.7
	c0.5,1.1,0.8,2.1,0.4,3.3c-1.2,4.3-2.2,8.6-4.2,12.7c-1.9-0.5-2-2.2-2.4-3.5c-1.9-5.1-3.7-10.3-5.6-15.5c-0.5-1.5-0.6-3.8-2.9-3.4
	c-2.5,0.4-1.5,2.7-1.4,4.1c0.7,7.3,1.6,14.5,2.5,21.7c0.4,3.1,1.1,6.2,1,9.4c0,3.4-3.6,4.5-5.3,6.8c-1,1.4-3.5,2.3-2.7,4.4
	c0.9,2.3,3.7,1.9,5.3,1.3c6.4-2.4,7.8,1.6,9.4,6.3c1.7,5,3.9,9.8,6.4,15.9c-9-4.5-15-10.2-19.9-17.4c-8.9-13.2-14.5-28-19.9-42.8
	C111.8,369.6,108.9,361.9,105.9,353.6z"/>
<path class="st4" d="M285.5,428.3c0.6-2.6-1-4.4-2.3-6.3c-5.8-8.4-11.6-16.9-16.8-25.8c1.8,1.6,3.6,3.2,5.3,4.8
	c3.1,2.9,5.5,2.9,6.9-1.5c0.8-2.8,2.8-3.2,5.4-2.7c3.3,0.7,5.1-0.7,5.4-4c0.2-2.4,1.1-4.3,3.4-5.6c2-1.1,2.8-3.2,3.2-5.3
	c0.4-2,1-3.8,2.1-5.5c1.4-2.3,1.9-4.9,2.1-7.6c0.2-2,0.2-4.1,2.4-5.1c6.5-2.5,12.7-5.5,18.9-10.2c-0.7,6.9-1.4,13-2,19.1
	c-0.8,3.6-0.5,7.3-0.3,10.9c0.2,3.4-0.8,5.1-4.4,5.8c-4.7,1-9,3.2-13.3,5.4c-5.3,2.8-7,7.1-6.3,12.8c1.6,14.3,0.8,28.8,2.5,43.2
	c0.2,1.4-0.3,2.6-1.1,3.7c-12.1,8.6-12.2,8.6-15.5-5.2c-0.9-3.8-1.7-7.7-2.5-11.6c-0.3-2.4,2-3.1,3.2-4.3
	C283.3,431.7,285,430.4,285.5,428.3z"/>
<path class="st7" d="M325.8,407.3c-3.8-11.6-3.1-23.5-2.7-35.4c0.1-2.3,0.5-4.6,0.6-6.9c0.6-9.1,2.5-17.2,10.4-23.5
	c6.9-5.5,10-13.9,12.4-22.3c0.7-2.5,1.5-5.1,2.3-7.6c2.5-1.2,5.1-4.5,7.4-2.9c2.8,1.8-0.2,5-0.7,7.6c-0.2,1-0.5,2.1,0.4,2.8
	c1.1,0.9,2.2,0.1,3.3-0.3c2.5-1,4.1-4.2,7.4-3.2c0.1,0,0.2,0.2,0.2,0.4c0,0.2-0.1,0.3-0.1,0.5c-19.7,26.3-27.1,56.3-25.9,88.7
	c0.1,1.4,0.6,2.9,0.9,4.3c0.8,1.4,0.4,2.5-1.2,1.6c-1.5-0.8-1.7-2.8-2.2-4.3c-3.1-9.8-6.6-19.5-6.6-28.8c0.2,0.6-0.5,2.3-0.9,3.9
	c-1.7,6.6-2.9,13.3-2.8,20.2C328,404,328.8,406.6,325.8,407.3z"/>
<path class="st7" d="M145.5,405.5c6.4-9.1,11.2-18.8,12.6-29.9c1.9-15.3,1.2-30.5-3.5-45.3c-0.5-1.6-0.7-3.2-0.9-4.8
	c0.7-0.3,1.3-0.3,1.9,0.2c6.1,5.2,13,9,20,12.8c0.9,0.5,1.6,1.2,2.1,2.1c7.5,19.7,6.4,39-2.4,57.9c-2.1,4.5-5,8.6-9.4,11.3
	c-2.8-0.8-0.9-2.5-0.4-3.4c5.2-8.9,4.2-18.5,3.6-28.5c-2.7,12.3-9.4,21.2-19.9,27.3C148,405.9,146.8,406.5,145.5,405.5z"/>
<path class="st9" d="M408.6,221.6c-15.7-4.5-29.1-14.2-44.3-19.9c-3.5-1.3-6.8-3.3-10.6-4c0.7-7.7,2.2-15.4,2-23.2
	c-0.1-2.5,0.8-3.3,3.3-2.2c12.4,5.3,24.2,11.7,35.5,18.8c4.1,2.6,6,9.2,8.2,14.2C405.1,210.5,406.7,216.1,408.6,221.6z"/>
<path class="st11" d="M103.7,283.4c3.5-3,1.1-7.1,1.7-10.6c1-6.1,2.4-12,5.1-17.6c3.6-7.6,7.4-15.1,11.1-22.7
	c0.7,16.1,1.1,32.2,6.1,47.7c3.4,10.5,7.7,20.6,14.5,29.4c3.3,4.3,5,9.1,6.8,14.6c-4.4-1.7-7-4.7-10-7.2
	c-6.3-5.4-12.1-11.2-18.7-16.3c-3.7-2.8-5.6-8.1-8.1-12.5C110.3,284.8,107.7,282.9,103.7,283.4z"/>
<path class="st4" d="M111.5,333.3c4.2-6.8,9.1-13,14.4-19c1.7-1.9,2.8-2.1,4.8-0.3c6.3,5.7,12.6,11.2,19.2,16.6c2,1.7,2.5,3.8,3,6
	c1,4.5,2.1,9,2.1,13.7c0.4,2.8,1.5,6.7-0.5,7.9c-2.4,1.4-4.9-2-6.8-3.9c-8.6-8.3-19-13.1-30.1-16.8
	C115.2,336.7,112.1,336.7,111.5,333.3z"/>
<path class="st9" d="M113.8,433.5c-0.8-3.9-4.2-6.2-6.1-9.6c-9.2-16.6-15.5-33.9-16-53.1c-0.2-7.1-1.8-14.1-0.1-21.2
	c0.2,0,0.3-0.1,0.5,0c10.8,2.2,11.3,4,10.3,15c-1.5,16.2,1.3,32,7.9,47c4.8,10.8,10.7,20.9,18,30.4
	C123.2,439.6,118,437.4,113.8,433.5z"/>
<path class="st9" d="M319.4,393.8c1.2,7.6,2.1,14.5,5.2,20.9c0.7,1.4,1.2,2.9,0.3,4.7c-5.5,10.3-11.6,20.2-20,28.4
	c-0.4,0.4-1,0.7-2,1.3c-0.4-5.4-0.5-10.3-1-15.2c-0.9-8.4-0.7-16.9-1.3-25.3c-0.3-3.8,0.9-6.4,4.4-8
	C309.7,398.4,314.3,396.2,319.4,393.8z"/>
<path class="st9" d="M157.9,196.6c0-7.7,0-15.3,0-23c0-1.7,0.1-3.4,2.1-4.1c11.7-4.1,23.7-7.3,37-10.7c-4.5,10-8.4,18.8-12.3,27.7
	C176.4,191.9,167.2,194.3,157.9,196.6z"/>
<path class="st4" d="M346.5,373.3c1.1-7.3,3.1-14.3,5.1-21.3c0.7-2.4,1.9-3.6,4.4-4c3.8-0.6,7.5-1.4,11.3-2.1
	c8.5-1.7,8.6-1.7,12.8,5.7c2.5,4.3,4.7,8.8,5.7,13.8c1.4,4.1-0.6,5.6-4.3,5.5c-10.5-0.3-20.7,1.6-30.8,4.5
	C349,375.9,346.1,377.3,346.5,373.3z"/>
<path class="st9" d="M391.3,291.1c1.4,8.6-0.4,15.6-1.9,22.7c-1.6,7.6-3.8,15.1-5.6,22.7c-0.6,2.5-1.8,3.8-4.3,4
	c-7.1,0.6-14,2.3-21,3.6c-1.1,0.2-2.5,0.9-3.1-0.4c-0.3-0.6,0.3-1.9,0.7-2.7c5.2-12.4,13.4-22.9,22.5-32.6
	C383.2,303.4,387.2,298,391.3,291.1z"/>
<path class="st9" d="M195.6,204.6c-2.1-9.1-0.6-18,0.6-27c0.8-5.9,3.6-11.6,2.5-17.8c-0.3-1.8,1.1-1.2,1.8-1.4
	c8.9-2.6,18.2-3.3,27.3-4.8c1.9-0.3,3.9,0.3,2.2,2.7c-6.2,8.7-9.4,18.9-14.3,28.2c-4.1,0.7-8.2,0.5-12.3,1.3
	c-5.8,1.2-6.1,1.5-6.4,7.3C197,197,198.4,201.1,195.6,204.6z"/>
<path class="st9" d="M154.6,200.6c-0.8-1.6-1.3-3-3.9-1.6c-6.6,3.7-13.5,6.9-20.2,10.4c-1.2,0.6-2.3,1.3-3.7,1.2
	c-0.6-8.3,2.9-15.9,3.8-23.9c0.7-5.9,4-7.7,8.6-9.2c4.1-1.4,8-3.2,12-4.9c2.4-1,4-0.7,3.4,2.3C153.1,183.5,153.7,192,154.6,200.6z"
	/>
<path class="st9" d="M187.1,409.9c-0.5,8.7-0.9,17.5-1.4,26.2c-0.1,2-0.5,3.9-0.6,5.9c-0.3,3.6-1.4,3.8-4,1.4
	c-7.6-6.8-13.8-14.6-18.6-23.6c-1.3-2.4-1.8-3.9,1.5-5c6.5-2.2,10.6-7.3,13.6-13.1c2-4,3.7-3.1,5.4-0.2
	C184.6,404.1,187.9,406,187.1,409.9z"/>
<path class="st12" d="M174.8,316.5c0.6,0.1,1.3,0.2,1.9,0.5c1.2,0.4,2.5,1.3,3.6,0.1c1.4-1.5-0.1-2.6-0.8-3.8
	c-0.3-0.5-0.5-1.2-0.8-1.7c2.9-5.1,12-9.3,17.5-7.7c4.3,1.3,8.6,2.6,12.7,4.4c3.9,1.7,6.2,4.6,6.4,8.8c0.2,4.3-2.4,7.2-6.2,8.8
	c-7.2,3-14.9,4.5-22.3,2.1c-4.8-1.5-10.9-1-14.2-6.2C172.6,319.7,172.2,317.4,174.8,316.5z"/>
<path class="st13" d="M111.5,333.3c4.7,3.1,10.2,4.4,15.5,6.3c10.5,3.8,18.6,11.2,27.5,18.9c0.2-3.1,0.3-5.7,0.5-8.2
	c1.8,6,0.3,12.1,0.4,18.4c-5.6-9.7-15.4-11-24.7-13.3c-8.2-2-16.5-4-24.7-5.9c-2.9-0.7-3.5-1.9-1.9-4.5
	C106.5,341.1,108.5,336.8,111.5,333.3z"/>
<path class="st14" d="M173.6,283.5c-1.4-6.4-1.1-12.7,0.3-19c0.5-0.2,1-0.2,1.4-0.1c1.5,0.4,3.1,0.7,3.9-1c0.9-2-1.1-2.3-2.3-3
	c-0.4-0.3-0.8-0.6-1-1c11.7-3.6,22.9-1.3,33.8,2.9c3.9,1.5,1.6,5.5,2,8.4c-6,3.1-6,4.1-0.8,9c-0.1,0.6-0.1,1.3-0.2,1.9
	c-2.2,1.5-4.2,0.2-6.1-0.7c-8.5-4.1-17.2-2.3-25.9-1.1C176.3,280.1,175.3,282.2,173.6,283.5z"/>
<path class="st9" d="M121.9,222.6c0-2.4,0-4.8,0-8c-5.6,2.6-10.5,4.7-14.9,7.8c-2.3,1.6-4.5,2.6-7.3,1.9c2.4-10,4.8-20,7.1-30
	c0.4-2,1.7-2.8,3.2-3.5c5.8-2.8,11.7-5.6,18.3-8.8c-0.7,3.1-1.1,5.4-1.7,7.7c-2.6,9-4.1,18.1-3.8,27.5
	C122.8,219.1,123.2,221,121.9,222.6z"/>
<path class="st15" d="M157.9,196.6c8.5-4.4,17.9-6.5,26.7-10c-2.3,6.9-4.9,13.8-6.9,20.8c-1.2,4.3-3,7.5-7.5,9
	c-1.5,0.5-3.2,1.1-3.9,2.9c7.5-0.9,7.5-0.9,5.7,7.1c-0.9,3.9-1.6,7.8-2.8,13.3C163.2,224.8,158.4,211.3,157.9,196.6z"/>
<path class="st16" d="M266.3,440.8c1.1,7.8,1.9,14.2,2.9,20.6c0.3,2.1-0.3,2.7-2.2,2.7c-10,0-19.9-0.1-29.8-1.2
	c-2.7-0.3-2.8-1.3-2.2-3.5c1.4-4.9,1.2-11.5,4.4-14.4c3.2-2.9,9.6-0.1,14.6,0C258.3,445,262.7,446,266.3,440.8z"/>
<path class="st9" d="M373.5,379.5c-7.9,18.3-12.7,37.1-25.1,52.4c1.5-7.8,2-15.7,3.1-23.4c1-7.3-1-14.5-2-21.7
	c-0.4-2.8-0.2-3.9,2.7-4.4C359,381.3,365.6,379.2,373.5,379.5z"/>
<path class="st17" d="M306.8,280.6c-0.8-5.7-0.7-11.4,0.7-17c0.9,0,1.9,1.3,2.6,0.2c0.5-0.9-1.1-1.4-1.3-2.4
	c6.7-3.1,13.8-4.8,21-5.6c7.4-0.9,9.3,2,8.8,12.1c-5.3,2.3-6.6,4.7-4.1,7.5c0.9,1,2.3,1.2,3.2,2.2c0,1.1,0.2,2.2-0.8,3.1
	c-2,0.5-3.9-0.1-5.8-0.6c-5.9-1.5-11.7-1.5-17.6,0.3C311.2,280.9,309.1,282.2,306.8,280.6z"/>
<path class="st18" d="M326.7,299.5c13.8-8,15.7-21.1,15.4-35.2c0-2.1-0.5-4.2-0.8-6.4c5.7,1.3,6.5,2.4,5.1,7.7
	c-0.5,1.8-1.2,3.5-1.7,5.2c-0.4,1.2-1,2.8,0.7,3.4c1.7,0.7,2.3-0.9,3-2c0.9-1.6,1.7-3.2,2.4-4.9c0.8-1.6,1.4-3.2,2.4-5.4
	c2.3,17.9-1.8,33.9-8.6,49.5c-0.5,0.1-1.1,0.1-1.3-0.4c-3.2-5.3-8.1-8-14-9.3C328.1,301.6,326.5,301.5,326.7,299.5z"/>
<path class="st19" d="M105.8,287.3c4.9,4.3,7.6,9.9,10.9,15.2c1,1.6-0.6,2.4-1.5,3.3c-4.5,4.6-9,9.3-12.9,14.8
	c-3.3-2.8-6.8-4.8-10.7-6.3c-5.1-2-7.6-11-5-16c2.5-4.7,9-6.4,14.4-3.8c1.7,0.8,2.5,2,2.6,3.8c0,1.2,0.5,2.5,2,2.3
	c1.8-0.2,1.8-1.7,1.6-3.1C106.9,294.1,106.4,290.7,105.8,287.3z"/>
<path class="st20" d="M184.6,382.4c5.1,6.7,9.4,13.9,12.5,21.8c2,5.2,2.8,10.3,2.1,15.9c-1,7.8-1.3,15.8-1.4,23.7
	c0,2.9-2.1,5.8-0.1,8.7c-0.2,0-0.3,0-0.5,0c-8.8-3.3-8.9-3.3-8.4-12.7c0.6-10.1,1.5-20.1,2.4-30.2c0.2-1.6,0-2.9-0.9-4.2
	c-0.7-0.9-1.2-2-2-2.8C181.9,396.7,180.6,390,184.6,382.4z"/>
<path class="st21" d="M236.9,388.7c-2.8,2.6-5.6,5.2-8.4,7.7c-1.9,1.7-3.7,2.3-3.6-1.2c0.1-4.1-2.1-4.7-5.4-4.1
	c-2,0.4-4,0.5-5.9,0.7c0.1-4.4-4.9-6.2-5.4-9c-0.5-2.7,2.2-6-1.6-8.4c-0.1-0.1,0.1-0.9,0.3-1.3c2.1-2.9,1.2-5.3-1.2-7.4
	c-1.5-1.3-2.3-3.3-1.4-4.9c1.1-1.9,2.9-0.1,4.4,0.3c2.7,0.7,5.4,1.6,8.1,2.4c4.4,9.2,10.8,16.7,19,22.7
	C236.5,386.9,237.4,387.5,236.9,388.7z"/>
<path class="st22" d="M326.7,299.5c3.7,1.2,7.7,2,11,3.9c3.1,1.7,5.4,4.7,6.9,8.1c-0.9,4.5-1.5,9-3.9,13.1c-0.3-0.4,0-1.8-0.9-1
	c-1.5,1.3-2.8,2.8-4,4.4c-6.4,8.5-18.8,8.7-26.6,2.1c-4.1-3.5-8.7-6.7-10.5-12.3c-2.1-6.6,0.8-12.8,7.3-15.2
	c3.2-1.1,6.5-2.1,9.8-3.1C319.4,300.3,323,300.5,326.7,299.5z"/>
<path class="st23" d="M173.6,283.5c-0.4-3.1,1.2-4.3,4.1-4.9c11.4-2.7,22.4-2.1,33,3c-0.9,4.3-2.1,8.5-4.5,12.3
	c-1.1,1.7-2.3,3.2-4.5,3.5c-1.4-0.8-1.9-2.3-2.7-3.5c-4.2-6.5-10.3-6.6-14.9-0.4c-0.7,0.9-1.3,2-2.5,2.4
	C176.7,293.1,174.7,288.6,173.6,283.5z"/>
<path class="st24" d="M227.5,365.8c13.8,2.8,28.6,4.6,44.5,4.3c-5,5.2-9.3,9.7-13.6,14.2c-0.1,0.1-0.2,0.2-0.4,0.3
	c-0.7,0.5-12.7,0.2-13.3-0.4C238.8,378,232.9,371.7,227.5,365.8z"/>
<path class="st19" d="M400.5,357.8c-0.4,0.1-1.4-0.4-2.1-2.2c-2-4.7-4.3-9.3-6.9-13.7c-1.9-3.2,1.7-5.5,3.5-7.8
	c1.6-2,4.1-2.3,6.4-1.5c1.4,0.5,0.7,1.7,0,2.4c-0.7,0.7-1.7,1-2.5,1.5c-1.3,0.8-3.8,1.3-2.6,3.4c1,1.7,3,0.6,4.5-0.1
	c2.7-1.3,5.5-2.4,8.5-2.8c7.4-0.8,11.1,4.1,8.2,10.8C414.4,354.7,408.4,356.7,400.5,357.8z"/>
<path class="st25" d="M172.8,320.5c7.7,5,16.1,8.1,25.4,6.6c3.8-0.6,7.8-0.6,11.4-2.9c2.8-1.8,4.8-4.1,4.7-7.1c-0.1-3-1.4-6.2-5-7.4
	c-4.5-1.6-8.9-4-13.5-4.9c-5.5-1.1-10.1,2.2-14.7,4.9c-0.8,0.5-1.6,1.2-2.4,1.8c-0.3-0.7-0.6-1.3-0.9-2c1.9-5.1,5.8-7,10.9-6.9
	c3,0,6,0,9,0c2.5,1.5,5.3,1.6,8,1.9c2.8,0.4,5.7,0.9,7.9,2.7c8.3,6.7,8.4,14.5-1.3,20.4c-8.9,5.4-18.7,7.1-28.9,3.7
	c-2.5-0.8-4.2-1.2-2.7,2.3c-0.7,0.6-1.4,0.5-2.1,0c-1.4-1.9-2.7-3.7-4.1-5.6c-0.2-1.7-1.8-2.2-2.5-3.4
	C171.2,323,169.9,321.4,172.8,320.5z"/>
<path class="st21" d="M283.7,368.6c2.1-0.5,4.2-1,6.3-1.5c1.5-0.3,3.8-1.8,4.5-0.3c1,2.1,1.3,5-0.6,7c-1.1,1.2-2.7,2.3-2.8,3.9
	c-0.1,3.3-0.5,5.3-4.7,5.4c-2.6,0-2.4,3-2.1,5.3c0.2,1.3,0.5,4-1.6,3.1c-6.6-2.6-7.9,1-7.8,6.8c-4.3-3.4-7.9-6.5-11.1-10.1
	c3.3-4,7.4-7.4,11.1-11.1C277.8,374.3,280.3,370.9,283.7,368.6z"/>
<path class="st26" d="M195.6,204.6c0-5.1,0.1-10.3,0-15.4c0-2.4,0.7-3.6,3.2-3.9c5.6-0.7,11.1-3.2,16.9-0.7
	c-3,7.7-6.4,15.3-8.7,23.2c-1.5,5.1-4.9,3.8-8.1,3.8c-3.7,0.1-2.9-2.8-3.2-4.9C195.7,206,195.7,205.3,195.6,204.6z"/>
<path class="st11" d="M145.5,405.5c13.4-6.2,21-16.7,22.8-31.4c2.2,0.3,1.4,2,1.6,3.1c1.6,10.7,2.1,21.2-4.1,30.8
	c-0.4,0.6-0.5,1.2,0.1,1.7c-3.2,2.8-7.5,3-12.2,5c4.2-6.4,10.1-10.7,10.1-19.9c-5.6,10.1-13.5,14.5-23.8,16.8
	C141.6,408.7,143.5,407.1,145.5,405.5z"/>
<path class="st27" d="M258.7,421.5c-0.5-0.6-1.1-1.4-1.7-0.1c-2.9,2.4-6.7,2.3-10,3.6c-0.9-0.3-1.5-0.9-2.3-1.3
	c-2.5-1.3-5.2-2.1-7.4-3.8c-6.1,0.5-6.1,0.5-6.6-6.3c2.1-3.2,4.1-6.3,6.7-10.2c0.6,2.4,0.9,4,1.4,5.7c1.6,5.4,5.9,8.8,11.8,9.1
	c5.3,0.3,8.1-2.9,10.1-7.3c1.4-3.2,2.3-6.5,2.6-11.5c3.7,5.5,6.6,9.8,9.4,14.1c-1,2.7-3.8,4.4-4.5,7.3c-1.3,0.1-2.1-1.5-3.5-0.9
	C262.8,420.7,261.1,422.5,258.7,421.5z"/>
<path class="st26" d="M329.7,189.5c6.5,0.3,12.2,3.3,18.3,5c2.3,0.7,1.4,2.6,1.8,4.1c-1,4-2.1,8-2.9,12.1c-0.5,2.2-1.5,2.8-3.5,1.9
	c-0.1-0.1-0.3-0.1-0.5-0.1c-6.8-0.6-10.6-3.8-10.6-11.3C332.2,197.3,330.6,193.4,329.7,189.5z"/>
<path class="st28" d="M230.7,220.6c-5.3-5.4-6.2-12.9-9.4-20c-3.8,3.9-5.2,8.5-6.7,13.1c-4.9-0.1-5.4-2.2-3.9-6.6
	c3.8-10.6,8.2-20.9,13-31.2c0.4-0.9,1-1.6,2-3.2c-2.2,15.9,0.2,30.3,4.5,44.6C230.5,218.3,230.6,219.5,230.7,220.6z"/>
<path class="st9" d="M325.8,407.3c1.8-5.9,0.2-12.1,1.9-18.1c1.3-4.6,1.8-9.4,4.5-13.8c1.1,10.7,4,20.8,7.5,30.8
	c0.4,1.2,0.7,2.5,1.1,3.8c0,0.1,0.1,0.4,0.2,0.4c0.8,0.1,0.6-0.6,0.8-1c1.1,3,2.1,6,3.6,10.2c-7.2-4.9-11.2-10.4-13.2-18.7
	c-1.1,5.7-1.9,10-2.8,14.9C327.5,413,326.4,410.3,325.8,407.3z"/>
<path class="st29" d="M306.8,280.6c3.8-1,7.5-2.4,11.4-3c6.4-1,12.7,0.2,18.6,2.9c-1.9,5.3-3.5,10.8-8.8,14
	c-0.3-0.1-0.6-0.2-0.8-0.5c-3.9-7.8-6.6-8.2-13-2.1c-0.7,0.7-1.5,1.3-2.4,1.6C307.2,290.3,307.6,285.2,306.8,280.6z"/>
<path class="st30" d="M296.7,454.3c-2.1-16-1.1-32.1-2.9-48.1c-0.8-7.3,1.6-11,10-14.6c4.1-1.7,8-4.1,12.6-4.3
	c2.5-0.1,2.1-2,2.2-3.6c0.4-3.8-0.9-7.6,0.8-11.3c0,4.8,0,9.6,0.2,14.4c0.1,2.5-1.1,3.4-3.1,4.3c-5,2.3-9.9,4.7-14.8,7.2
	c-3.8,1.9-5.4,4.8-5,9.3c1.1,13.5,1.8,27.1,2.8,40.6C299.8,451.1,299.6,453.3,296.7,454.3z"/>
<path class="st31" d="M366.6,316.5c-3.6-0.6-4.9,3.4-7.9,4.1c-1.4,0.3-2.8,1.4-4.1,0.1c-1.4-1.3-1.3-3.2-0.5-4.6
	c1.2-2,2.1-4.1,2.7-6.8c-3.1,0-5,3.1-7.9,2.4c3.9-5.6,9.5-9.6,14.2-15.1c1.1,2.5,0.4,4.3-0.4,6c-1.4,2.8-2.8,5.7-4.2,8.5
	c-0.7,1.4-1.2,2.8,0.4,4c1.4,1,2.5,0.2,3.6-0.7c14.6-11.6,25.9-25.5,30.6-44c0.1-0.3,0.4-0.5,0.6-0.8c0.4,1.3-0.5,2.9,1,4
	c-2.2,10.8-8.1,19.8-14.8,28.3C375.8,306.9,371,311.6,366.6,316.5z"/>
<path class="st32" d="M346.5,373.3c0.3,2.1,1.7,1.6,2.9,1.2c10.6-3.5,21.4-5.6,32.6-4.9c3.4,0.2,3.9-1.5,3.8-4.2
	c1.8,3.3,0.7,6.8,0.9,10.2c0.1,1.5-0.9,2.2-2.3,1.8c-13.3-4.5-25.8,0.7-38.7,2.7c-0.1,0-0.3-0.1-0.8-0.5
	C345.5,377.6,346,375.4,346.5,373.3z"/>
<path class="st27" d="M390.5,370.5c-1.4-9.7-5.4-18.3-10.9-26.3c8-2.1,8.5-1.9,12,5.2c3.7,7.6,7.5,15.2,6.1,24.1
	C395.4,372.5,393.4,370.4,390.5,370.5z"/>
<path class="st33" d="M306.5,183.6c4.6-1.1,8.5,2.7,13.1,2c0.2,6.8,0,13.6-0.8,20.4c-0.2,1.7-0.1,3.3-2.6,3.5
	c-2.2,0.1-3-0.9-3.4-2.8C311.4,198.8,308.9,191.3,306.5,183.6z"/>
<path class="st34" d="M191.2,182.5c0.4,9.1,0,18.2,1.4,27.1c0.2,1.2-0.4,1.8-1.7,1.9c-3.6,0.3-7.2,0.7-11.4,1
	C182.9,202.1,186.3,192,191.2,182.5z"/>
<path class="st27" d="M102.6,327.1c4.2-7.9,10.6-14,16.7-20.4c1.7-1.7,2.7-1.2,4,0.2c1.1,1.3,3,2.2,0.8,4.3
	c-6.3,6-10.7,13.5-16.1,20.2C105,331.4,102.8,330.4,102.6,327.1z"/>
<path class="st35" d="M181.7,295.8c1.7-4.9,4.6-8.5,10.4-8.1c5.8,0.4,8.4,4.4,9.7,9.6C194.8,300.5,188.1,299.7,181.7,295.8z"/>
<path class="st27" d="M257.7,425.5c0.7,4.5,1.3,9,2.1,13.5c0.4,1.9,0.2,2.8-2,2.6c-1.1-0.1-2.3,0-3.5-0.1c-8.7-0.3-8.7-0.3-8.4-8.7
	c0.4-0.8,0.3-1.8,0.7-2.6c1.6-2,2.9-4,6.1-2.5C254.9,428.7,255.3,424.5,257.7,425.5z"/>
<path class="st36" d="M274.9,233.6c-0.2-0.8-0.4-1.5-0.7-2.7c-2.6,5-4.8,9.8-7.6,14.2c-6.3,9.8-11.8,9.5-17-0.9
	c-2.5-5-5.9-9.7-6-15.6c2.7,5.2,5.3,10.5,8.2,15.7c4.2,7.5,7,7.4,11.4,0.3c5-8,8.8-16.6,13.1-25
	C276.6,224.4,276.4,229.1,274.9,233.6z"/>
<path class="st37" d="M236.9,388.7c-7.2-5.1-13.4-11.1-18.1-18.7c-1.3-2-2.3-4-2-6.5c1.4-0.1,2.9-0.1,3.7,1.1
	c4.7,6.7,11.3,11.7,17,17.3C240.4,385,240.9,386.8,236.9,388.7z"/>
<path class="st38" d="M234.9,445.9c-1.1,4.5-2,9.3-3.6,13.8c-1.4,4-4.4,0.9-6.6,0.9c-2.8,0-2.1-1.8-1.5-3.5
	c1.2-3.6,2.3-7.3,3.5-10.9c1.2-3.8,4.2-4.8,7.7-2.9C235.9,444.1,235,444.9,234.9,445.9z"/>
<path class="st39" d="M241.5,402.3c0.2-3.2,0.6-6.3,1.9-9.2c1.7-3.9,4.8-5,8.9-4.8c4.1,0.1,5.2,2.5,6.2,5.8
	c1.7,5.3,1.5,10.5-1.1,15.5c-1.4,2.7-2.9,5.3-6.6,5c-3.9-0.3-7-1.9-8.4-5.9C241.7,406.6,241.5,404.5,241.5,402.3z"/>
<path class="st40" d="M273.1,440.3c2.3-0.7,2.4,0.7,2.7,1.8c1.4,6,2.7,12,4.2,18c0.9,3.8-2.4,2.2-3.8,3c-1.3,0.7-3.2,1.3-3.5-1.5
	c-0.7-6-1.4-11.9-2.4-17.8C269.7,440.4,271.8,440.5,273.1,440.3z"/>
<path class="st41" d="M102.6,327.1c1.8,1.5,3.6,3,5.3,4.4c-2.6,4.5-5.3,8.8-7.6,13.4c-2.2,4.5-5.4,1.7-7.5,0.7
	c-2.6-1.2,0.1-3,0.8-4.2C96.4,336.6,99.5,331.9,102.6,327.1z"/>
<path class="st42" d="M245,428.6c-0.4,1.3-0.7,2.6-1.1,3.8c-2.1,8.5-2.1,8.4-10.6,7.1c-2.2-0.3-3-0.8-1.8-3.1
	c1.3-2.5,2.3-5.1,3.5-7.7c0.3-1.1,0.2-2.4,1.6-2.8c2.8,0.9,5.6,1.1,8.5,0.8C245.4,427.3,245.4,427.9,245,428.6z"/>
<path class="st43" d="M311.8,293.5c1.4-2.2,2.8-4.4,5.1-5.8c5.8-3.4,10.5-0.6,11.1,6.8C322.3,298.4,317,296.6,311.8,293.5z"/>
<path class="st44" d="M185.7,215.6c-3.7,7.3-5.7,15.4-10.2,22.3c-0.8,1.2-1.8,2.3-2.7,3.5c0.7-6.3,2.5-12.3,3.5-18.4
	C177.3,217.2,180.5,215.4,185.7,215.6z"/>
<path class="st45" d="M283.7,368.6c-5.5,7.7-12.1,14.4-19.9,19.7c-2.1-1-2.7-2-0.7-3.9c4.5-4.5,8.8-9.3,13.3-13.9
	C278.4,368.5,281.2,368.9,283.7,368.6z"/>
<path class="st46" d="M268.5,424.6c0.7,1.6,1.5,3.3,2.2,4.9c3.4,7.5,3.3,7.7-5.1,8.8c-1.9,0.3-2.7-0.1-3-2c-0.5-2.9-1.3-5.7-2-8.6
	c-0.3-1.1-0.3-3.2,1-2.2c3.8,2.9,3.9-1.4,5.7-2.3C268.1,423.3,268.4,423.9,268.5,424.6z"/>
<path class="st47" d="M188.7,302.5c-4.2,1.4-8,3.6-10.9,6.9c-3.3-5.9-5.4-12.3-7.2-18.8c-0.4-1.1,0.1-1.4,1.1-1.2
	C174.9,297.2,181.4,300.4,188.7,302.5z"/>
<path class="st48" d="M338,233c-1.1-6.1-2-11-3-15.9c-0.5-2.5,0.5-2.8,2.7-2.5c6.7,0.9,7.4,2.1,5,8.5c-1,2.6-2.1,5.2-3.2,7.8
	C339.2,231.3,338.9,231.7,338,233z"/>
<path class="st30" d="M298.7,376.5c-1.3,4.7-1.4,10-6.7,12.6c-1.4,0.7-1.1,2.3-1.2,3.6c-0.5,5.5-1.8,6.7-6.8,5.3
	c-2.4-0.7-3.8,0.1-5.2,1.5c0-2.6-0.8-5.4,3.9-4.2c3.7,1,5.4-1.5,5.3-5.2c-0.1-2.2,0-3.7,3-3.8c3.1-0.1,3.8-2.8,3.8-5.4
	c0-2.2,0.5-3.9,2.9-4.5C297.9,375.9,298.3,375.9,298.7,376.5z"/>
<path class="st38" d="M233.8,427.5c-1,1.4-2.1,2.6-2.8,4.1c-1.1,2.2-2.2,2.1-4.3,1.1c-6.9-3.5-6.9-3.4-2.7-9.7
	c0.8-1.2,1.7-2.4,2.6-3.6c0.3-0.2,0.8-0.3,0.9-0.1c0.8,3.4,2.6,5,6.3,4.1c0.6-0.1,1.1,0.6,1.5,1.1
	C235.6,425.9,234.9,426.8,233.8,427.5z"/>
<path class="st49" d="M323.6,186.4c3.9,6.6,4.9,13.7,6.2,20.8c0.4,1.9-0.6,2.5-2.2,2.1c-1.9-0.4-5.2,1.2-5.2-1.9
	C322.3,200.5,323.1,193.4,323.6,186.4z"/>
<path class="st50" d="M345,384.2c2.9,9.7,3.8,19.6,1.8,29.6C343.7,404.1,342.5,394.3,345,384.2z"/>
<path class="st51" d="M217.7,214.7c2.4,0.4,2.1,2,0.2,1.7c-5.5-0.7-6.3,3-8.2,6.6c-3,6-3.6,13.1-8,18.5c1.6-7,3.3-13.9,4.7-20.9
	c0.8-3.9,2.4-5.8,6.7-5.1C214.6,215.8,216.6,216.6,217.7,214.7z"/>
<path class="st52" d="M177.7,340.5c-8.6-4.1-16.9-8.5-24-15c-1.3-1-1.1-2.6-1.9-4.5c5.5,4,10.6,7.7,15.8,11.4c2,1.4,4,2.9,6.6,3.3
	C176.8,336.1,177.3,338.4,177.7,340.5z"/>
<path class="st53" d="M235,424.5c-0.5-0.2-1-0.5-1.4-0.4c-5.9,0.6-5.9,0.6-7-4.7c1.4-1.9,2.8-3.9,4.2-5.8c2.8,1.5,1.5,3.8,1,5.8
	c2.2,1.5,3.9-4.3,6.1-0.1c0.3,0.4,0.5,0.8,0.6,1.3C238,422.5,237.6,424.4,235,424.5z"/>
<path class="st54" d="M277.7,420.5c0.6,0.7,1.3,1.5,1.9,2.2c2.4,3.4,0.4,8.4-3.8,8.6c-2.5,0.1-3-2.9-4.1-4.8
	c-0.1-0.2-0.2-0.3-0.2-0.5C270.3,418.6,270.3,418.6,277.7,420.5z"/>
<path class="st55" d="M168.9,285.4c-1.5-5.8-2.5-11.7-3.5-17.6c-0.8-4.2,0.2-6.3,5.1-6.7c-1.4,7.7-1.8,15.4-0.5,23
	C170.3,285.3,169.9,285.6,168.9,285.4z"/>
<path class="st56" d="M199.3,230.8c-0.8-4.4-1.6-8.7-2.4-13.1c-0.2-0.9-0.5-2.4,0.8-2.5c1.8-0.2,3.7,0,5.4,0.4
	c1.6,0.3,0.7,1.6,0.5,2.4c-1.1,4.3-2.3,8.6-3.4,12.9C200,230.9,199.6,230.8,199.3,230.8z"/>
<path class="st57" d="M257.7,425.5c-1.5,0.6-1.9,2.1-2.7,3.3c-0.4,0.7-1.3,1.7-1.8,1.1c-2.6-3.9-4.4-0.2-6.5,0.6c-0.7-2-1.8-4,0.1-6
	c3.1-2.2,6.6-2.7,10.2-3C258.6,422.5,257.7,424.1,257.7,425.5z"/>
<path class="st58" d="M196.7,237.5c-4.1-6.8-6.1-14.4-8-22.1c2.9-1.1,4.5-0.7,5,3C194.5,224.8,195.7,231.2,196.7,237.5z"/>
<path class="st59" d="M202.8,383.6c0-2-0.2-3.9-1.8-5.4c-0.6-0.6-1.2-1.8-1.1-2.6c1.1-6.2-1.9-12-2.2-18c1.2,0.1,2.6,0.5,2.7,1.7
	c0.2,3.8,0.3,7.5,3.6,10.2c0.6,0.5,0.1,1.3-0.3,1.7c-2.3,2.5-1.9,4.3,0.6,6.6C206.6,379.9,203.8,381.7,202.8,383.6z"/>
<path class="st60" d="M390.5,370.5c3.6-1.9,6.1-1.2,7.2,3c0.1,3.2,1.9,7.4-4.5,6c-2.2-0.5-3.2-1.2-3-3.5
	C390.5,374.2,390.5,372.4,390.5,370.5z"/>
<path class="st61" d="M277.7,420.5c-1.9,1.5-3.6,0.8-5.4-0.4c-1.6,2.1,1.4,4.6-0.6,6.5c-0.7-1-1.4-2-2.1-2.9
	c-0.9-0.9-2.7-1.3-1.6-3.2c-1-4.1,1.8-5.7,4.8-7C274.7,415.5,276.4,417.9,277.7,420.5z"/>
<path class="st62" d="M172.8,320.5c-1.7,1.3-0.8,2.5,0.2,3.6c1,1.1,2,2.1,1.7,3.8c-5.9-3.7-6.7-10.1-8.9-16.5
	c3.5,1.9,6.3,3.5,9.1,5.1C173.9,317.7,175.1,320,172.8,320.5z"/>
<path class="st63" d="M337.6,277.5c-4.3,0.7-5.8-1.9-5.6-5.4c0.2-3.8,2.7-5.4,6.5-4.3C339,271.1,338.7,274.3,337.6,277.5z"/>
<path class="st61" d="M267.5,423.5c-0.3,0.8-0.7,1.5-0.7,2.3c-0.1,1.3,0,2.8-1.6,3.3c-1.4,0.4-1.9-0.9-2.5-1.9c-1.2-2-1.6-0.6-2,0.6
	c-0.8-2-1.9-4-1.9-6.3c2.1-1,4.1-2,6.2-3C267,419.5,267.9,421.2,267.5,423.5z"/>
<path class="st30" d="M228.6,401.3c-2.6,3.4-5.7,3.6-7.3-0.2c-1.4-3.5-3.6-3.7-6.6-3.6c-2.2,0-4.8,0.9-5.9-2.2c2,0,4,0.3,5.8,0
	c3.6-0.7,6.8-1.8,7.7,3.8C222.8,401.7,226,401.9,228.6,401.3z"/>
<path class="st64" d="M144.2,400c-0.8-5.5-1.5-10.8-2.4-16.6C147.7,388,148.7,395.8,144.2,400z"/>
<path class="st65" d="M210.8,279.6c-4,0.3-5.6-1.9-5.3-5.4c0.4-3.5,2.7-4.8,6.1-3.6C211.9,273.7,212.2,276.7,210.8,279.6z"/>
<path class="st66" d="M175.9,259.3c2.1,0.2,4.5-0.3,5.3,2.5c0.4,1.6-0.4,3-1.7,3.9c-2.2,1.6-4,0.3-5.7-1.2
	C174,262.5,173.7,260.4,175.9,259.3z"/>
<path class="st67" d="M224.9,439.6c-1.4-1.8-3.6-2.1-5.4-3.3c-3.3-2.2-5.4-4.8-2.9-8.9c-0.9,4.6,3,5.3,5.7,6.8
	C224.5,435.5,227.3,436.3,224.9,439.6z"/>
<path class="st68" d="M298.7,376.5c-0.4,0-0.8-0.1-1.2-0.1c1.2-2.4,1.3-5.1,1.1-7.7c-0.3-3.2,0.9-5,4.2-5.2
	C300.9,367.7,302.3,372.9,298.7,376.5z"/>
<path class="st69" d="M235.7,399.5c-1.7-1.4-3.3,0.1-4.9,0.1c2.7-2.6,5.4-5.2,8.6-8.2C239.6,395.3,237.7,397.4,235.7,399.5z"/>
<path class="st67" d="M285.5,428.3c0.4,5.1-4.4,6.4-6.9,9.3c-1.9-1.9-0.7-3.2,0.8-4.4C281.5,431.6,283.5,429.9,285.5,428.3z"/>
<path class="st62" d="M178.7,333.5c0.7,0,1.4,0,2.1,0c1.3,4.4,4.9,8.2,3.9,13.3C181.3,343,181.3,337.7,178.7,333.5z"/>
<path class="st70" d="M207.8,391.6c-2.2-2.3-8.1-2.4-5-8c0.2,2.6,2,3.6,4.3,4.2C209.9,388.4,209.5,389.9,207.8,391.6z"/>
<path class="st71" d="M316.2,221.3c-2-2.3-1.3-4.6-1.6-6.6c-0.2-1.1,0.4-2,1.6-1.9c1.3,0.1,1.6,1,1.4,2.1
	C317.3,216.8,316.8,218.7,316.2,221.3z"/>
<path class="st72" d="M308.7,261.3c1.6,0,3.5-0.2,3.9,2c0.2,1.3-0.6,2.3-1.7,2.7c-2.1,0.7-3-0.6-3.4-2.4
	C307.7,262.7,307.8,261.8,308.7,261.3z"/>
<path class="st73" d="M235,424.5c0.9-1.3,1.8-2.7,2.7-4c2.1,2.1,2.1,2.4-1.1,5.9c-0.6,0.8-1.2,1.5-1.8,2.3c-0.4-0.4-0.7-0.8-1.1-1.2
	C234.2,426.5,234.6,425.5,235,424.5z"/>
<path class="st74" d="M246.8,424.4c0,2,0,4-0.1,6c-0.3,0.8-0.6,1.5-0.9,2.3c-0.7-1.3,0.3-3-0.9-4.2c0-0.7,0-1.4,0-2.1
	c-0.4-1.5-0.7-2.9,1-3.8C246.3,423.2,246.6,423.8,246.8,424.4z"/>
<path class="st75" d="M267.5,423.5c-0.8-1.7-1.7-3.4-2.5-5.1c2.5-1.6,1.7,1.8,3,2c0.5,1.1,1.1,2.1,1.6,3.2c-0.3,0.3-0.7,0.7-1,1
	C268.2,424.3,267.8,423.9,267.5,423.5z"/>
<path class="st76" d="M168.9,285.4c0.4-0.4,0.7-0.8,1.1-1.2c0.6,1.8,1.1,3.5,1.7,5.3c-0.4,0.4-0.7,0.8-1.1,1.2
	C169.4,289.2,169.2,287.3,168.9,285.4z"/>
<path class="st77" d="M249.9,104.5c-1.3,4.7-2.6,8.8-3.4,13.1c-0.7,4-2.6,5.7-6.7,5c-1.7-0.3-3.5,0-5.8,0c3.1-8.9,5.9-17.2,9-25.4
	c0.9-2.4,0.7-4.3-0.5-6.5c-5.2-8.9-10-18-15.3-26.9c-3.2-5.3,2.2-5,4-6.9c2.6-2.6,3.5-0.1,4.6,1.8c4.1,7.2,8.2,14.3,12.8,22.2
	c2.9-7.8,5.7-14.9,8-22.1c0.9-2.8,2.2-3.5,4.9-3.6c3-0.1,4,1.1,4.7,3.8c3,10.7,6.3,21.3,9.5,31.9c1.8,0.1,2.6-1.1,3.7-1.7
	c6.7-4.3,6.6-4.3,8.9,3.3c0.6,2.1,0.4,3.4-1.6,4.5c-2,1.1-3.9,2.6-5.9,3.8c-2.2,1.3-1.5,3.2-0.8,4.8c1.1,2.5,2.5,0.4,3.6-0.2
	c1.8-0.9,3.4-2.1,5.1-3.1c1.3-0.8,2.3-1.2,3.1,0.7c0.7,1.5,0.5,2.5-1.1,3.2c-0.6,0.3-1.2,0.6-1.8,0.9c-7.1,3.9-7.4,4-4.9,11.7
	c1.2,3.9-0.4,4.1-3.4,4c-3.4-0.2-7.6,1.2-8.1-4.5c-0.2-2.3-1.7-1.3-2.9-0.7c-3.1,1.7-6.3,3.3-9.7,4.4c2.2-3.3,5.7-4.9,8.8-6.8
	c2.4-1.5,2.8-3.5,1.5-5.4c-1.7-2.6-3.1,0.2-4.4,0.9c-3.1,1.6-6.2,5.3-8.8,4.9c-2.8-0.4-3.6-5.4-5.5-8.3
	C251.2,106.4,250.7,105.7,249.9,104.5z"/>
<path class="st78" d="M265.9,339.6c7.3-1.8,14.9-2.7,19.3-10.4C286.9,338,277.7,342.8,265.9,339.6z"/>
<path class="st79" d="M233.7,329.5c6.1,5.5,13.3,8.3,21.7,10.2C246.5,343,237,338.5,233.7,329.5z"/>
<path class="st12" d="M322.1,326.7c-5.7-1.5-12.2-0.7-16.7-6c-4.1-4.7-3.5-11.3,1.6-14.7c8.6-5.6,24.1-3.3,30.5,1.9
	c4.2,3.4,4.3,7.6,0.7,11.7C333.9,324.4,328.2,325.7,322.1,326.7z"/>
<path class="st57" d="M246,422.6c-0.3,1.3,0,2.7-1,3.8c-2.8,3.3-5.6,2.3-8.3-0.1c-0.2-2.1,3.3-3.5,1.1-5.9c0-0.4,0.1-0.9,0.1-1.3
	c2.8-2,2.8,2.8,5.2,2.2C243.6,421.3,244.9,422.5,246,422.6z"/>
<path class="st80" d="M257.7,400.1c0.2,3.8-0.6,6.2-1.8,8.4c-1.4,2.7-3.3,4.8-6.7,3.8c-3.2-0.9-5.4-3.2-5.3-6.4
	c0-3.3,0.7-6.6,1.6-9.8c0.9-3.1,3.4-5,6.8-4.8c3.4,0.2,4.1,2.9,4.8,5.5C257.5,398.4,257.7,399.9,257.7,400.1z"/>
<path class="st81" d="M325.9,200.3c1.4,0.8,0.7,2.1,1,3.1c0.4,1.5,1.6,3,0.2,4.6c-0.2,0.3-1,0.4-1.3,0.2c-1.9-1.3-0.8-3.3-1-4.9
	C324.6,202.1,324.7,201,325.9,200.3z"/>
<path class="st82" d="M259.7,70.6c2.3,8.3,4.7,16.5,6.8,24.8c0.9,3.5-2.8,3.7-4.6,5c-2.1,1.5-2.6-0.9-3.6-2.1
	c-4.4-5.6-4.7-11.6-2-18.1c1.3-3,1.7-6.4,2.6-9.6C259.1,70.6,259.4,70.6,259.7,70.6z"/>
<path class="st83" d="M253.8,399.4c1.4,2.7,0,5.1-1.1,7.5c-0.6,1.2-1.4,2.4-3.1,1.8c-1.4-0.5-2.2-1.6-2.2-3c0-2.5,0.1-5,1.2-7.3
	C250.7,397.6,252.3,398.3,253.8,399.4z"/>
<path class="st84" d="M253.8,399.4c-1.9,0.5-3.5,0.1-5.1-1c0.1-2.1,1.2-3.7,3.2-3.4C254.1,395.4,253.8,397.7,253.8,399.4z"/>
</svg>
