<?xml version="1.0" encoding="utf-8"?>
<!-- Generator: Adobe Illustrator 24.1.0, SVG Export Plug-In . SVG Version: 6.00 Build 0)  -->
<svg version="1.1" id="Layer_1" xmlns="http://www.w3.org/2000/svg" xmlns:xlink="http://www.w3.org/1999/xlink" x="0px" y="0px"
	 viewBox="0 0 420.2 446.2" style="enable-background:new 0 0 420.2 446.2;" xml:space="preserve">
<style type="text/css">
	.st0{fill:#020102;}
	.st1{fill:#945C48;}
	.st2{fill:#1E1816;}
	.st3{fill:#C7D0C7;}
	.st4{fill:#26201E;}
	.st5{fill:#212123;}
	.st6{fill:#D42F35;}
	.st7{fill:#FCF1DC;}
	.st8{fill:#522C20;}
	.st9{fill:#FDFDFD;}
	.st10{fill:#DFDDED;}
	.st11{fill:#EDECF6;}
	.st12{fill:#3F2ED3;}
	.st13{fill:#ECB093;}
	.st14{fill:#945C47;}
	.st15{fill:#CDD8D5;}
	.st16{fill:#ECAF93;}
	.st17{fill:#945B47;}
	.st18{fill:#955C48;}
	.st19{fill:#FCFCFC;}
	.st20{fill:#512C20;}
	.st21{fill:#FBFBFB;}
	.st22{fill:#935B47;}
	.st23{fill:#512C1F;}
	.st24{fill:#EBB08D;}
	.st25{fill:#E9AF92;}
	.st26{fill:#EBAF93;}
	.st27{fill:#9F2023;}
	.st28{fill:#FAFAFA;}
	.st29{fill:#EAAF93;}
	.st30{fill:#E6E6E6;}
	.st31{fill:#F6F6F6;}
	.st32{fill:#D5DFDC;}
	.st33{fill:#F9F9F9;}
	.st34{fill:#9D2022;}
	.st35{fill:#D0DCD7;}
	.st36{fill:#9A2427;}
	.st37{fill:#CDDAD6;}
	.st38{fill:#E8B196;}
	.st39{fill:#F7F7F7;}
	.st40{fill:#512C21;}
	.st41{fill:#CCD7D4;}
	.st42{fill:#F0F0F0;}
	.st43{fill:#915A46;}
	.st44{fill:#D4DDDA;}
	.st45{fill:#F8EFDA;}
	.st46{fill:#D1DBD8;}
	.st47{fill:#4E2A1E;}
	.st48{fill:#CD2D32;}
	.st49{fill:#872124;}
	.st50{fill:#5B1519;}
	.st51{fill:#D2DCD9;}
	.st52{fill:#9F262A;}
	.st53{fill:#942226;}
	.st54{fill:#C6CFCC;}
	.st55{fill:#895442;}
	.st56{fill:#320D0E;}
	.st57{fill:#D9AA90;}
	.st58{fill:#474B49;}
	.st59{fill:#7C7F7E;}
	.st60{fill:#303030;}
	.st61{fill:#5D3B2E;}
	.st62{fill:#FDFCFC;}
	.st63{fill:#EBBEC1;}
	.st64{fill:#F2D8C8;}
	.st65{fill:#F3D9C9;}
	.st66{fill:#070606;}
	.st67{fill:#040305;}
	.st68{fill:#757978;}
	.st69{fill:#080A0A;}
	.st70{fill:#D43136;}
	.st71{fill:#E9C4B8;}
	.st72{fill:#D5918A;}
	.st73{fill:#42241B;}
	.st74{fill:#31A8A2;}
	.st75{fill:#8DE2DF;}
</style>
<path class="st0" d="M262.3,404.6c-6.4,9.2-13.8,17.6-22.4,24.6c-13,10.6-28.4,15.5-45.1,16.5c-11,0.7-21.9,0.8-32.8-0.2
	c-11.6-1.1-22.9-4.3-33.3-9.7c-8.5-4.4-14.9-11.1-19.4-19.5c-4.4-8.2-11.1-14.9-14.9-23.5c-0.6-1.1-0.5-1.9,0.7-2.5
	c4.3,1.8,5.3,6,7.5,9.3c1.9-4.6,2.8-9.9,5.1-14.8c0.9-1.6,1.6-3.3,2.1-5.1c0.4-1.2,0.6-2.3-1.2-2.5c-3.7-0.3-2.7-2.5-1.8-4.6
	c1.4-3.4,3.9-6.2,5.3-9.6c4.4-10,3.4-20.2,1.5-30.4c-4-21.4-12.3-41.4-20.5-61.4c-5.9-25.3-7-50.7-0.8-76.1
	c1.8-6.5,3.3-13.1,5.6-19.5c0.7-2,1.5-4,2.4-6c0.8-1.8,1.6-4.6,3.8-3.9c2.4,0.8,1.1,3.4,0.6,5.2c-2.1,7.3-3.8,14.7-5.8,22.1
	c-7.6,30.2-6.4,59.9,4.1,89.4c3.4,9.6,10.9,15.5,17.8,23c-2.1-6.6-3.4-12.6-3.8-18.8c-0.3-4.5-1.2-8.9-2.9-13.1
	c-2.9-7.3-3.4-14.9-2.8-22.6c0.1-1.2,0.1-3.1,1.7-3.2c1.6-0.1,1.7,1.7,2.2,2.9c0.6,1.7,0.6,3.6,0.9,5.4c2.4,15.4,7.2,29.7,18.9,41.6
	c-6.1-21.7-4.5-42.7-0.2-63.8c1.3-6.2,1.5-12.5,1.4-18.9c-0.1-9.5,1.7-18.9,3.3-28.2c1.7-7.1,2.8-14.4,5.1-21.3
	c1.2-3.7,3.1-7,5.3-10.1c0.8-1,1.8-2.4,3.2-1.7c1.6,0.8,0.8,2.4,0.4,3.5c-2.5,7.4-5.2,14.7-7,22.4c-0.4,1.6-0.8,3.2-0.9,4.9
	c-2.4,11.8-3.6,23.9-4.4,34c2.9-11.7,10.1-23.6,17.3-35.4c4-5.1,7.7-10.5,11.4-15.7c1.1-1.5,2.1-3,3.3-4.4c1.2-1.4,2.6-2.8,4.7-1.7
	c1.8,0.9,1.7,2.8,1.4,4.4c-1.1,5.4-2.6,10.7-3.5,16.1c-2,9.4-2.6,18.9-3.3,28.6c4.9-10.2,9.3-20.7,15.1-30.4
	c4.7-8.3,10.6-15.7,16.8-22.8c1-1.1,2.1-2.2,3.3-3.1c1.2-0.9,2.6-1.7,4.1-0.9c1.6,0.8,1.8,2.4,1.7,3.9c-0.4,3.6-0.8,7.3-1.3,10.9
	c-0.7,5.3-1,10.6,0.2,15.8c2.1,9.9,3.5,20,6.7,29.2c-0.3-10.7,1-21.7,4.3-32.4c0.3-0.8,0.6-1.5,0.9-2.3c0.7-1.4,0.9-3.8,2.8-3.4
	c1.7,0.4,1.5,2.6,1.5,4.3c-3.6,18.8,3.5,35.2,12.1,51.1c1.8,3.4,4.2,6.3,6.3,9.6c2.2,3.3,4.2,3.1,6.6,0.3
	c12.6-14.8,25.9-29.1,32-48.2c1-2.4,1.5-5,2.6-7.4c0.4-0.9,0.7-2,2-1.7c0.8,0.2,1.1,1.1,1.3,1.9c0.4,2.1,0.3,4.2,0,6.3
	c-5.3,13-8,26.9-12.8,38.4c8.2-9.8,15.1-22.2,19.7-35.8c1-2.6,1.8-5.3,2.7-8c0.5-1.4,1.1-3.2,2.8-2.9c1.8,0.3,1.6,2.3,1.3,3.7
	c-0.9,5.2,0.4,10.1,1.1,15.2c1.7,9.3,2.7,18.7,2.5,28.2c0,1.9-0.5,4.8,1.7,5.2c2.4,0.4,2.6-2.6,3.1-4.3c2.6-9.1,5-18.2,6.9-27.5
	c0.6-1.9,0.3-4,0.8-5.9c0.4-1.5,1.1-2.9,2.8-3.1c2-0.2,2.9,1.3,3.4,3c0.8,3.4,1.5,6.8,1.3,10.3c-0.1,1.5,0.3,2.9,0.7,4.4
	c1.7,14.6,1.9,29.3,0.3,43.9c-0.3,1.9-1.6,3.6-1.6,5.6c0.3-1.6,0.7-3.1,1.5-4.5c4.8-13.3,8.4-27,11.8-40.7c0.6-1.7,0.5-3.6,1.3-5.2
	c0.5-1,0.8-2.4,2.2-2.2c1.4,0.2,1.4,1.6,1.6,2.7c0.2,1.5,0.2,2.9,0,4.4c-2.4,13.6-5.3,27.1-11,39.7c-6.9,15.2-9.8,31.4-13.7,47.3
	c-2.4,10.2-5.1,20.2-8.9,31.2c6.2-5.5,11.4-10.2,14.5-16.8c1.3-2.7,2.8-5.3,4.6-7.7c0.5-0.6,1.1-1.4,2-1.1c0.9,0.3,1,1.2,1.1,2.1
	c0.1,1.2-0.2,2.3-0.6,3.4c-1.8,4.7-3.6,9.6-7.1,13.1c-6.7,6.7-10.3,15.3-15,24.1c12.8-8.2,23.2-17.8,30.2-30.6
	c4.1-7.6,8-15.4,11.5-23.3c0.6-1.3,1.1-3.4,2.9-2.7c1.5,0.6,1.2,2.6,0.8,4.1c-5.3,17.7-13.3,33.7-27.9,45.7
	c-11.3,8.3-16.2,20.5-19.2,33.5c-1.3,5.7,1,11.1,3.6,16.1c2.7,3.8,2.7,3.8,5.2,0c8.6-13.6,14.8-28.3,20.3-43.3
	c0.9-2.3,1.2-6.2,4.6-5.5c2.9,0.6,2.3,4.2,2,6.5c-2.7,21.4-6.7,42.5-17.4,61.6c-1,1.7-2.3,3.2-3.6,5.1c13-12.3,25-25,32.3-41.3
	c6.1-13.7,10.6-28,14-42.7c3.8-16.1,4.8-32.6,6.2-49c1.2-13.7,2-27.5,3.3-41.3c0.2-0.9,0.4-1.9,0.6-2.9c0.2-1.8-0.5-4.5,1.8-5.1
	c2.2-0.6,3.2,1.7,4.2,3.3c2.8,6.5,4.4,13.3,5.3,19.9c0.4-0.5-0.1-1.7,0.2-2.8c1.1-13.2,0.6-26.2-4.7-38.6c-1.7-3.1-4.6-5.1-6.8-7.8
	c-0.8-0.9-1.9-1.3-3.1-0.4c-0.4,0.3-0.8,0.8-0.6,1.3c0.3,1.2,1.4,1.3,2.3,1.4c3.7,0.4,6.5,2.1,8.2,5.6c-2.8,8.9-6.9,11.6-15.7,10.6
	c-1.6-0.2-3.3-0.1-4.9-0.2c-5.7-1.2-11.4-1.9-17.1-2.9c-6.5-1.2-7.4-3.5-3.6-9c2.8-3.6,5.7-7,8.6-10.4c1.7-2.1,1.2-3.2-1.2-3.9
	c-2.9-0.8-5.9-1.3-8.7-2.3c-4.3-1.5-5.2-3.3-3.9-7.6c3-10.3,3-10.2-6.6-15.5c-5.9-3.3-11.9-5.9-18.9-5.3c-2.8,0.3-5.3-0.8-6.9-3.2
	c-1.6-2.4-3.9-3.5-6.5-4.4c-28.2-9.1-57.1-14.3-86.5-17.5c-33.2-3.6-65.7,1.1-98.1,7.9c-15.3,3.2-30.5,7.1-45.6,11.1
	c-4.4,1.2-7.4,3.4-9.2,7.5c-4.6,10.2-8.6,20.6-11.3,31.5c-10.4,46-12.2,93.7,20,164.6c-8.7-29.6-14.4-81.7-9.6-90.9
	c2.1,1.2,1.9,3.3,2.1,5.1c1.3,9.6,2.3,19.2,3.4,28.7c1.9,15.9,7.3,30.7,12.6,45.6c0.6,1.7,1.5,3.4,1.5,5.3c-0.2,1.1-0.3,2.4-2,2.3
	c-3-5.3-5.1-11-8.2-16.4c2.2,11.3,4.3,22.5,6.5,34.1c-2.1-1.2-3.2-3.3-4.5-5.1c-7.3-9.7-11.8-20.8-15.7-32.1
	c-7.7-22.7-15.1-45.5-16.5-69.6c-0.8-14.1,0.3-28.2,0.9-42.4c0-1.1,0.7-2.2-0.3-3.4c-9.3,6.9-14.9,16.6-20.4,26.3
	c-1.2,2.2-2.4,4.4-3.7,6.5c-0.6,1.1-0.9,3-2.6,2.5c-1.2-0.4-1.5-2.1-1.7-3.4c-1.3-9.3-0.5-18.6,0.1-27.9c0.1-1,0.9-2.2-0.2-3.2
	c-0.3,0.1-0.7,0.1-0.9,0.3c-1.8,1.4-1.8,5.3-4.4,4.6c-2.6-0.7-2.2-4.2-2.4-6.6c-1-11-0.3-21.9,2.6-32.6c0.9-3.3,1.6-6.8,1.8-10.2
	c0.2-4-2.5-1.4-4.1-1.3c-1.1,0.3-2.2,0.6-2.6-1c1.8-3.1,4.5-4.6,7.9-3.3c3.3,1.3,3,4.6,2.4,7.3c-2.7,11.2-3.6,22.6-4.3,34
	c-0.1,1.8-0.3,3.6,0.2,5.2c1,0.6,1.4,0,1.9-0.4c1.3-1.1,2.7-2.2,4.5-1.4c2,0.9,2.2,2.9,2,4.7c-0.7,6.9-1.1,13.9-0.9,20.8
	c0,1.3,0,2.7,0,4c0,0.7-0.3,0.1,0,0.4c0.6,0.5,0.3-0.6,0.7-0.7c4.7-10,11.7-18.2,19.1-26.1c3.3-3.5,5.2-7.2,6-11.8
	c2.1-12,5.8-23.6,9.7-35.1c1.4-4.2,3.5-8.2,5.7-13c-5.1,1-9.2,2.7-13.5,3.5c-5.4,1.1-7.5-0.1-8.4-5.6c-1.5-9.5-2.3-19.1-3.3-28.7
	c-0.4-4.6,2.6-6.2,6-7.3c10-3.2,20.1-6,30-9.3c4.5-1.5,9.5-1.8,13.3-5.2c3.9-5.6,3.7-5.8-1.4-9.9c-10.2-8.2-21.6-9.4-33.9-6.9
	c-2.7,0.5-5.5,1-8.5,0.5c2.9,6.8,2.7,7.5-3.4,10.9c-3.3,1.8-5,4.8-6.8,7.8c-6.4,10.1-10.1,21.3-13.1,32.8c-2.3,8.7-5.7,17-8.7,25.5
	c-0.8,2.1-1.5,4.5-4,5.4c-1.5-0.4-1.4-1.3-0.8-2.4c5.1-15.7,9.5-31.5,15.4-46.9c3.8-9.9,7.3-20.5,17.6-26.4c1.7-1,1.3-2.4,0.1-3.7
	c-2.6-2.9-3.9-6.5-5.5-9.9c1.2-1.4,2.3-0.6,3.2-0.1c5.6,3.1,11.8,3.1,17.5,1.9c14.3-3,26.3,1.4,37,10.4c2.1,1.8,3,2.1,4.9-0.4
	c8.8-11.5,17.1-23.4,27.1-33.9c16.9-17.9,37-31.4,58-43.7c13.8-8.1,27.8-15.9,43.2-20.4c18.3-5.3,36.9-9,56.2-6.8
	c17.6,2,34.1,7.5,48.9,17.4c38.3,25.6,58.3,62.6,66.5,107.1c1.8,10,3.3,20,3.8,30.2c0.1,1.3,0.3,2.6,1,3.8
	c8.1,12.8,13,27.4,21.9,39.7c1.7,2.3,1.5,4.6-0.1,6.9c-5.1,7.7-12.9,12.4-19.6,18.4c-1.8,1.6-2.5-0.8-4.6-0.8
	c2.4,9.2,3,18.4,2.7,27.6c-0.3,9.3-0.8,18.5-6.9,27.8c-0.6-11.9-0.3-22.8-5.4-32.8c-1,13.9-2.1,27.8-2.9,41.7
	c-1.7,28.2-6.9,55.7-16.9,82.3c-6.2,16.3-15.5,30.5-28,42.6c-6.3,6.1-12.2,12.8-21.4,15.9c13.9-20.5,22.1-43.1,25.1-67.7
	c-11.8,28.2-25.3,55.1-53.6,70.9c5.8-11.5,12.3-22.4,17.3-36c-19.8,16.2-39.3,30-61.9,38.8c9.9-7.4,14.4-18.6,20.6-28.5
	c0.7-3.8,3.5-6.6,4.9-9.9C266.3,398.7,265.6,402.6,262.3,404.6z"/>
<path class="st1" d="M108.4,385.6c-1.7,5.1-3.4,10.3-5.2,15.9c-3.6-3.3-5.1-7.5-7.9-10.9c-2.8-1.8-3.4-5-5.2-7.5
	c-0.9-1.3-0.9-3.2-2.9-3.6c-0.6-1.6-1.2-3.2-1.8-4.8c-1.1-3.8-3.8-7-4-11.1c-3-8.8-6-17.6-9.1-26.4c-5.1-14.6-6-29.9-7.9-45.1
	c-0.5-4.1-0.9-8.2-1.6-12.3c-2.1,31.7,7.1,62.1,11,93.6c-3.2-4.6-5.2-9.4-7.2-14.2c-9.4-23-17.4-46.4-20.6-71.2
	c-2.6-20.4-2.4-40.8,0.7-61.2c1.2-7.5,2.3-15.1,4.5-22.4c12.4-5.5,25.6-8.3,38.5-11.8c1.4-0.4,4.4-1.8,3.8,2.2
	c-5,23.2-5.6,46.4-0.4,69.6c0.5,2.4-0.4,5,1.3,7.2c1.4,6.1,0.7,12.3,0.1,18.3c-2.7,30.4-0.1,60.1,10.6,88.9
	C106,381.3,107.5,383.3,108.4,385.6z"/>
<path class="st2" d="M87.3,379.5c0.5-2,1.2-1.5,1.9-0.2c2.1,3.8,4.1,7.5,6.1,11.3c-0.9,0.5-0.9,1.4-1,2.2
	C92,388.4,89.6,384,87.3,379.5z"/>
<path class="st3" d="M262.3,404.6c2.4-3.9,4.8-7.8,7.2-11.7c-0.8,4.9-3.1,9.1-6,13C263.1,405.5,262.7,405,262.3,404.6z"/>
<path class="st4" d="M81.4,363.6c1.4,3.7,4.7,6.7,4,11.1c-2.9-2.4-4-5.7-5-9.1C81.2,365.2,81.3,364.4,81.4,363.6z"/>
<path class="st5" d="M2.4,180.6c0.3,0.7,0.7,1.4,1,2.1c0.9,0.4,1.1,1.3,1.1,2.1c0.8,0.4,1.5,0.7,2.3,1.1c-2,1.5-5.3,2-6.3,0.8
	C-0.9,185,1.3,182.6,2.4,180.6z"/>
<path class="st6" d="M393.2,215.5c-3.1-3.5-6.1-7-9.3-10.3c-1.8-1.8-0.7-2.7,0.4-4.1c7.3-8.5,7.2-8.5-3.4-11.5
	c-9.3-2.6-18.8-4.7-27.8-8.1c-7-2.6-13.5-6.9-20-11.5c6.7,0,13.4-0.2,20.1,0.1c3.2,0.1,4.9-1,6-3.9c1.6-4.2,3.4-8.3,5.2-12.4
	c1.1-2.5,0.2-3.8-2.4-4.1c-4.6-0.5-9.2-1-14.7-1.5c5.3-6.1,10-11.5,14.7-17c3.4-3.9,6.8-7.8,10.2-11.7c3.8-4.4,3.6-5.6-2-6.6
	c-11.8-2.1-23.6-4.1-35.4-6.1c-4.3-0.7-8.6-1.3-12.8-2c-2.9-0.5-4.3,0.5-4.8,3.4c-0.7,4.6-1.6,9.2-2.6,13.7
	c-0.7,3.2,0.6,4.5,3.8,4.9c6.2,0.8,12.5,1.8,19.6,2.9c-6.9,8.9-13.2,17.2-19.7,25.4c-6.1,7.7-6.1,7.4-15.4,4.7
	c-38.8-11.5-78.1-19.6-118.9-18.8c-29.2,0.5-57.5,6.5-85.6,13.4c-16.2,4-32.2,8.2-48.3,12.4c-3.2-3.6-1.9-8.2-2.4-12.3
	c-1.6-13.2-3.9-11.9,11.1-16.5c8.6-2.6,17.3-5,25.9-7.7c4.6-1.4,7.7-4.2,10.1-8.3c18.9-31.5,43.1-57.8,74.6-77.1
	c18.7-11.4,37.7-22,58.8-28.2c12.6-3.7,25.4-5.9,38.4-5.9c26.1,0,48.6,9.9,68.2,26.9c18.2,15.8,30.5,35.5,39.1,57.7
	c7.8,20,11.3,41,13,62.4c0.3,3.7,1.4,7.2,3.2,10.4c5.1,9.4,10.2,18.7,15.5,28c2.2,4,2.4,7.2-1.2,10.1
	C400.4,209.3,398.1,213.9,393.2,215.5z"/>
<path class="st7" d="M164.3,214.4c-3,1-6.3,0.8-9.2,2.6c0.4,0.1,0.6,0.2,0.8,0.2c10.6-0.5,10.5-0.5,11.5,9.7
	c0.2,1.8-0.1,4.3,2.1,4.5c2.4,0.2,2.1-2.5,2.6-4.1c3.2-10.4,3.1-10.4,14.2-9.7c5.7,0.4,11.4,1.9,18.1,1c-6.6-3.8-13.2-3.1-19.4-4.1
	c-7.1-0.7-7.1-0.7-3.1-6.9c4.3-6.7,9.8-12.5,15.1-18.5c2.4-2.7,4.1-2.2,5.7,1.8c3.3,8.3,7.3,16.3,12.3,23.8c1.9,3.7,3.6,7.4,5.6,11
	c0.7,1.3,1.5,3.2,3.7,2c1.1-1.5-0.8-4.3,1.3-4.8c2.5-0.6,3.4,2.1,4.4,4c3.2,5.9,8.1,10.4,13,14.9c6.3,8.1,6.3,8.1,13.9,0.6
	c0.3-0.3,0.8-0.6,1.1-0.9c2.9-0.9,4.9-3.2,7.5-4.6c2.6-1.4,4.9-2.4,4.3,2.2c-0.2,1.8,0.5,2.5,2.3,2.1c2.1-1.8,4.2-3.5,6.3-5.3
	c5.6-4.6,11.1-9.5,16.3-14.6c1.2-1.3,2.5-3.1,4.6-2.4c2.2,0.7,2.8,3,2.8,4.9c0.1,3.3,1.9,6.8-0.9,9.9c-0.2,0.3,1,0.6,1.2,1.2
	c3.3,4.6,0.9,9.4,0.5,14.2c-0.2,2.5-2.7,6.2-0.1,7.2c3,1.3,3.7-3.3,5.6-5.2c0.7-0.7,1.2-1.6,1.8-2.4c1.8-0.9,2.5-3.6,5.2-3
	c2.7,2.4,5.3,4.8,8,7.3c0.5,0.7,0.9,1.5,0.8,2.3c-1,10.4-0.5,21-3.4,31.3c-0.4,1.2,0.1,3.4-2.4,2.4c-10.6-3.3-21.3-6.6-31.9-9.8
	c-2.5-0.8-5.6-2.2-5,2.8c0.1,0.6,0,1.5-0.9,1.4c-7.3-0.7-3.3,3.3-2.5,6c-1.2,0.9-3.6,0.5-3.7,2.7c-0.1,2.2,2,2.4,3.4,3
	c11.1,4.9,22.9,8.1,34.5,11.5c3.2,0.9,4.4,1.9,3.1,5.4c-1.5,4.2-2.8,8.5-3.7,12.9c-1.9,9.8-8.6,15.4-16.4,20.7
	c-14.6,9.9-30.9,12.9-48,12.8c-23.1-0.2-46.3-0.5-68.7-7.6c-9.4-3-18.6-6.3-27.4-10.6c-2.6-1.3-3.6-2.8-3.6-5.7
	c-0.1-7.5-2.6-14.7-4.2-22c-1.8-8.3-4.9-16.2-6.6-24.5c-1.5-7.4-2.1-14.8-2-22.4c0.1-5.7,0.2-5.8,5.3-3.9
	c15.5,5.8,31.3,10.1,47.4,13.6c2.1,0.5,6.3,3,4.5-3.3c-0.3-1.1,0.3-5.9,2.7-7.7c3.1-2.4,1.5-3.9-0.5-5.3c-0.9-0.7-2.2-0.8-3.2-1.3
	c-16.6-6.3-33.7-11.2-50.9-15.6c-1-3.7,0.6-6.9,1.9-10c4.1-9.8,8.2-19.5,14.8-28c0.9-1.2,1.6-2.5,3-3.3c1.4-0.7,3-0.7,3.2,0.9
	C163.7,205.8,166.6,209.9,164.3,214.4z"/>
<path class="st8" d="M93.5,194.8c-0.9-3.1-3.2-1.1-4.4-0.7c-10.6,3.5-21.8,5.2-32.1,9.6c-1.8,0.8-3.8,1.3-5.8,0.8
	c2.8-12.6,7.8-24.3,13.4-35.8c1.2-2.4,3.7-2.7,5.9-3.4c22.2-6.2,44.6-11.6,67.3-15.6c15.7-2.8,31.5-4.6,47.4-5.2
	c21.9-0.9,43.3,2.3,64.7,5.6c17.8,2.7,35,7.4,52.2,12.6c3.5,1.1,7.4,1.4,8.9,6c0.7,2.3,3.6,2.2,5.7,2c11.5-1.2,19.7,6.2,28.8,11
	c1.6,0.8,1.7,2.2,0.9,3.8c-1,2.1-1.9,4.3-2.8,6.4c-2.2,5.4-1.8,6.2,3.7,7.7c3.4,0.9,6.8,1.6,10.2,2.5c2.2,0.6,3.2,1.5,1.2,3.7
	c-3.6,3.9-7,7.9-10.5,11.9c-1.1,0.1-2.2,0-2.9-0.9c0-2.3,0-4.5,0-6.9c-2.7,1.8-1.2,5-2.8,7c-3.4-1.9-6.7-4.1-10-6.1
	c-2.3-1.4-3.3-0.8-4.3,1.1c-1.7-4.2-0.4-8.9-1.8-13.2c-0.4-1.4,0-3.4-2-3.4c-2.4,0-1.9,2.2-2.1,3.8c-0.2,1.6,0.4,3.4-0.9,4.7
	c-5.6,0-9.6-4.4-15-5c-0.4,0.8,0.2,2.4-1.2,3.1c-1.6-6-2.6-12-1.8-18.4c-1.4,3.8-2.7,7.6-4.1,11.4c-3.5,0.2-6.8,0.1-9-3.2
	c0-2.6,0-5.2,0-8.5c-1.5,3.8-2.6,6.8-3.8,9.8c-17.3-6.4-35.2-9.5-53.4-11.6c-2-0.2-4,0-5.7-1.5c0-1.3,0-2.6,0-4.1
	c-2.1,1.3-1.4,3.8-2.8,5.2c-2.1,0.5-4.2,0.4-6.3,0.3c-2.8-0.2-5.1,0.6-6.9,2.7c-2.2-8-0.2-16,0.6-24c0.1-0.8,0.4-1.6,0.4-2.4
	c0-1.2,0.6-2.8-1.1-3.4c-1.3-0.5-2.1,0.6-2.9,1.4c-6.3,6.2-11.5,13.1-16.4,20.4c-1.1,1.6-2.2,3.3-3.3,4.9c-4.5,1.8-9.2,2.8-14,1.1
	c1.1-5.1,2.3-10.3,3.4-15.4c0.3-1.5,1.3-3.5-0.7-4.4c-1.7-0.8-2.4,1.1-3.3,2.3c-4.8,6.5-9.6,13-14.4,19.5
	c-5.1,0.5-10.1,2.2-15.3,0.9c1.2-10.5,5.4-20.1,8.6-29.9c-2.7,1.9-5,5.6-6.7,10.1c-2.7,7.1-3.6,14.7-5.7,22
	c-11.8,0.2-23.3,2.9-34.8,5.2c-2.7,0.6-5.4,1.7-8.3,0.7c2.2-8.7,4.4-17.4,6.7-26.2C98.4,175.2,96.5,185.2,93.5,194.8z"/>
<path class="st1" d="M345.3,216.7c1,0.1,2.2-0.2,2.9,0.9c-3.6,5.1-3.1,6.1,2.9,7.1c5.7,0.9,11.4,2,17.2,3c2.3,0.8,4.7,1.2,6.9,2.4
	c7.6,4.3,8.3,5.6,7.3,14.6c-2.4,29.8-2.6,59.9-9.2,89.2c-5.2,23.1-11.7,45.9-27,64.8c-6.9,8.5-14.2,16.6-23.4,23
	c6.5-9.9,11.7-20.3,14.8-31.8c3.4-12.5,6.5-25.1,7.6-38.1c0.2-1.9,1.5-5.1-1-5.6c-2.2-0.5-2.2,2.9-2.8,4.6
	c-5.5,15.6-12,30.7-20.9,44.6c-1.1,1.6-1.6,4.6-3.5,4.5c-2.6-0.1-2.7-3.3-3.8-5.3c-0.8-1.3-0.2-2.7,0.2-3.8
	c5.7-15.1,11.5-30.1,15.2-45.8c0.1-0.5,0.5-0.9,0.8-1.2c14.8-12.9,23-29.6,27.6-48.4c-10.3,23.7-22.2,46-46.9,57.9
	c5.4-8.6,8-18.7,15.7-26.1c4.7-4.5,7.6-10.8,8.1-17.8c-6.2,10-11.4,20.8-21.6,26.7C319.6,295.4,335.2,256.8,345.3,216.7z"/>
<path class="st9" d="M393.2,215.5c3.1-4.4,7.3-7.8,11.1-11.4c1.9-1.8,2.1-3.2,0.8-5.5c-5.3-9.3-10.2-18.7-15.5-27.9
	c-2.6-4.6-4-9.3-4.5-14.6c-2-25.7-7.2-50.8-18.7-74.1c-11.8-23.8-28.5-43.3-51.6-56.8c-19.4-11.3-40.4-14.7-62.6-12
	c-22.5,2.7-43.1,10.7-63,21.3c-36.5,19.4-66.5,45.7-89.1,80.4c-0.2,0.3-0.4,0.5-0.6,0.8c-4.3,11.8-13.6,16.7-25.2,19.1
	c-7.6,1.6-14.9,4.6-22.5,6.5c-4.1,1-4.7,2.9-4.2,6.6c1,6.2,1.4,12.6,2.1,18.8c-0.8,0.3-1.5,0.7-2.3,1c-3.7,1.6-6.1,1.3-6.5-3.7
	c-0.5-7.1-1.4-14.3-2.6-21.3c-0.9-5.1,1.5-7.2,5.9-8.4c11.8-3.4,23.6-7.2,35.4-10.4c4.5-1.2,7.2-3.7,9.6-7.7
	c16.9-27.5,37.6-51.7,64.4-70.1c25.2-17.2,51.5-32.3,81.8-39.4c52.6-12.2,97.5,7.8,128,52.9c18.3,27.1,26.1,57.6,29.5,89.6
	c0.7,6.3,1.8,12.2,5.2,17.8c6.3,10.6,11.6,21.7,17.7,32.4c2,3.6,1.1,5.6-1.7,7.9c-4.2,3.5-8.5,7.1-12.2,11c-3.3,3.5-5.4,2.6-7.6-0.9
	C394,216.9,393.6,216.2,393.2,215.5z"/>
<path class="st1" d="M97.5,192.8c9.5-2.9,19.2-4.5,29-6c3.4-0.6,6.8-1,10.2-1.7c1.8-0.3,3.3-0.6,3.8,1.8
	c-4.1,18.4-1.9,37.5-6.1,55.9c-2.2,9.8-2.6,19.8-2.4,29.8c0.2,9.7,2.2,19.1,4.8,28.4c-16.6-13.4-21.2-32.3-23.9-52.2
	c-1,9-0.8,17.9,2.9,26.3c1.3,3,1.8,6.1,2,9.2c0.6,8.1,2.2,16,5.4,25c-11-8.8-19.4-17.7-23.4-30.4C91,250.3,89.9,221.7,97.5,192.8z"
	/>
<path class="st10" d="M84.3,117.7c-0.6,2.5-3,2.4-4.8,2.9c-13.2,4.1-26.4,8.2-39.6,12c-4.2,1.2-5.5,3.1-4.8,7.5
	c1.4,9,2.3,18.2,3.2,27.3c0.4,4.4,2.4,5.8,6.7,4.5c5.3-1.6,10.8-3,16.7-4.7c-9.2,16.9-13.5,34.7-17.2,52.6
	c-0.8,4.1-2.4,7.3-5.5,10.2c-7.9,7.5-14.2,16.3-19.4,25.8c-3.9-3.6-2.8-8.3-1.2-11.9c3.9-9,3.1-18.6,5-27.9c0.5-2.6-1.1-3.4-3.4-3.8
	c-5.5-0.9-6.1-1.8-4.4-7.2c2.1-6.6,2.9-13.3,3.7-20.1c0.5-4.5-0.4-8.6-3.8-11.9c-2-2-2.1-4.2-1-6.4c6.5-12.6,11.3-25.9,17.4-38.7
	c7.7-15.9,15.2-19.2,36.4-18.3c3.5,0.2,6.9,0.9,10.3,2C81.5,112.7,84,114.2,84.3,117.7z"/>
<path class="st8" d="M252.1,428c11.5-15.9,21.5-31,26.2-48.8c0.4-1.5,1.9-3.5,0-4.5c-2.2-1.1-3.1,1.4-3.8,2.9
	c-5.9,11.6-11.8,23.2-20.3,33.1c-7.5,8.8-15.1,17.7-26.9,23.2c2.8-7.6,4.4-14.8,5.5-22c1.7-11.1,3.8-22.2,3.6-33.6
	c-0.1-4.2-0.7-8.2-2.9-11.9c-2-3.4-0.6-5.7,3.6-5.5c6.4,0.2,12.8,0.7,19.3,0.1c12.8-1,24.9-3.7,37-10.6c-2.9,6.1-5,11.5-6.4,17.2
	c-2.7,11.2-1.9,22,2.1,32.7c0.8,2.1,1.4,3.8-1.2,5.4C276.4,412.9,265.6,421.1,252.1,428z"/>
<path class="st1" d="M227.3,179.7c13.1-0.1,25.7,2.7,38.3,5.6c5.7,1.3,11.4,2.1,16.9,4.3c1.7,0.7,3.7,0.8,3.9,3.2
	c-6.5,20.1-20.4,35.2-34.2,50.3c-1.8,2-2.9,1.8-4.6-0.3c-12.5-15.3-18.9-33.1-21.8-52.3C225.2,187,226.7,183.3,227.3,179.7z"/>
<path class="st6" d="M172.3,377.6c-6,7.3-13.2,13.4-19.6,20.3c-1.3,1.4-3.1,2.6-3.5,4.7c-1,2.3,0.6,3.7,1.8,5.3
	c1.1,1.5,2.3,2.9,1.5,4.9c-3.4,7.5-6.8,15-10,22.6c-1,2.4-2.2,2.9-4.5,1.9c-4.8-2.2-9.7-4.2-13.8-7.6c5.2-12.3,7.5-25.6,12.1-38.1
	c0.7-1.6,1.4-3.2,2.1-4.9c0.5-2.6,1.5-5,3.7-7.6c-2.3,2.2-2.5,5.1-4.7,6.5c-7.6,11.7-13.7,24.3-20.1,37.7
	c-4.9-5.7-8.2-11.5-11.8-17.2c-0.8-1.3,0-2.6,0.4-3.8c1.6-4.7,3.4-9.4,4.7-14.2c2.7-9.6,7.6-17.4,17.2-21.5
	c-0.8,3.7-2.7,7.2-4.5,10.7c-0.5,1-1.5,2-0.6,3.2c1.1,1.5,2.4,0.5,3.6-0.1c11.2-5.5,17.5-14.4,19-26.8c0.1-0.8,0.5-1.5,0.7-2.3
	c1.8-0.3,2.5,0.6,2.3,2.3c-2,2.7-2.1,5.1,1.2,7c1.4,0.8,1.6,1.7,0.7,3.2c-2.3,4,0.1,5.6,3.6,5.6c3.7,0.1,6.4,0.1,6.7,5.2
	c0.2,3.1,3.1,4.4,6.4,2.8C168.9,377.4,170.7,374,172.3,377.6z"/>
<path class="st11" d="M84.3,117.7c-4.3-7-11.8-5.8-18.3-6.9c-6.4-1-12.9,0.5-19.1,2.2c-4.7,1.2-7.5,4.7-9.9,8.5
	c-7.8,12.2-11.9,26.3-18.4,39.1c-0.9,1.8-1.9,3.5-2.7,5.3c-0.9,2.1-2.3,3.8,1,6.5c4.7,3.9,4.2,10.5,3.2,16.3
	c-1.1,6.3-1.7,12.8-4.2,18.8c-1,2.5-0.4,3.5,2.7,3.2c6-0.5,7.1,0.9,5.7,6.8c-1.7,7.3-0.5,14.9-3.1,22.1c-1.3,3.7-3.6,7.1-2.9,11.4
	c0.3,1.6,0.3,3.3,1.1,4.8c-0.7,1.7-1.3,3.4-2,5c-0.2,0-0.4-0.1-0.6-0.1c0-8.5,0-16.9,0-25.4c0-2.9,2-5.9-0.5-8.5
	c-0.9-1-1.8-0.3-6.8,5.5c-0.9-2.6-0.9-4.9-0.8-7.3c0.1-11.2,0.8-22.3,3.7-33.1c0.3-1.1,0.6-2.3,0.6-3.4c0.1-2.1,1.3-4.5-1-6
	c-2.1-1.4-3.7,0.5-5.5,1.2c-0.8,0.3-1.5,0.7-2.2,1.1c-1.5-0.1-1.1-1.2-1.1-2.1c5.6-11.2,9.1-23.2,12.5-35.2
	c2.9-10.2,6.9-19.8,12.1-28.9c2.3-4,4.7-8,9.8-9.4c2.8-0.8,3.2-3.1,1.7-5.6c-0.9-1.5-2-3-3.4-5.1c7.4,1.9,14,0.2,20.6-0.8
	c12.7-1.9,21.5,5,30.5,12c1.1,0.9,1.4,1.7,0.5,2.9C86.4,114.3,85.4,116,84.3,117.7z"/>
<path class="st12" d="M370.8,116c-3.7,4.4-6.9,8.1-10.1,11.8c-5.3,6.2-10.7,12.3-16.1,18.4c-1,1.2-2.9,2.3-2,4.2
	c0.7,1.5,2.6,1.2,4.1,1.3c3.6,0.3,7.3,0.7,10.9,0.9c2.7,0.1,3,1,2.1,3.4c-3.6,9.8-3.5,9.8-13.9,10.1c-9.1,0.2-18.3,0.6-27.4,0.8
	c-1.3,0-3,0.7-3.7-0.5c-0.9-1.5,0.7-2.8,1.6-3.9c7.8-9.9,15.7-19.8,23.6-29.7c3.9-4.8,3.6-5.6-2.6-6.5c-5.6-0.8-11.2-1.6-16.8-2.2
	c-2.7-0.3-3.2-1.2-2.8-3.8c2.1-12.1,2-12,14-10.1c10.5,1.7,21,3.1,31.6,4.6C365.5,115.1,367.7,115.5,370.8,116z"/>
<path class="st8" d="M108.4,385.6c-2.8-0.2-3.2-2.5-4-4.5c-10.9-28.1-13.7-57.3-11.9-87.2c0.5-7.4,1.3-14.9,1.9-22.3
	c9.4,22.6,18.7,45.3,21.8,69.9c1.3,10.3-0.5,20.1-6.8,28.8c-1.1,1.6-1.8,3.5-2.8,5.5c2,0.9,3.6-0.7,5.6-0.4
	C111.5,379,110.7,382.6,108.4,385.6z"/>
<path class="st6" d="M232.2,370.7c2.5,7.9,1.3,15.9,0.2,23.7c-1.8,12.8-2.9,25.8-7.9,38c-1.2,2.9-2.8,4.7-5.7,5.5
	c-3.7,1-7.3,2.4-11,3.3c-5.3,1.4-5.6,1-4.1-4.1c2.2-7.5,4.5-15,6.7-22.5c0.9-5,0.4-10.3,2.3-14.2c-0.1,1.4-1.2,3.5-1.6,5.8
	c-0.3,1.8-1.6,2-2.7,0.3c-2.7-7.7-5.5-15.5-8.2-23.1c4.1-0.3,3.5,11.5,10,3c1.4-1.5,2.6-2.9,4.9-1.2c2.5,1.8,4.4,0.6,5.5-1.9
	c1-2.4,2.4-4.2,4.8-5.4c2.3-1.3,3.1-3.7,3.9-6.1C229.6,370.3,230.1,368.2,232.2,370.7z"/>
<path class="st1" d="M113.4,368.7c7.8-12.1,5.9-25,3.5-38c-1.8-9.6-4.5-19-7-28.8c4.5,3.8,9,7.7,13.6,11.5c1.1,0.9,1.9,2.4,3.7,2.2
	c1.7-2.6-0.3-5.1-0.2-7.6c0.2-4.6,1.9-5.7,5.9-3.4c2,1.1,4,2.4,5.5,4.2c7.9,18,8.4,36.2,1.5,54.6c-1.3,3.4-3.2,6.6-6.6,8.5
	c-1.2-1.5-0.5-3.2-0.3-4.8c1.5-9.8,1.1-19.5-1.5-29.5c-2.4,10.4-6,19.9-12.3,28.2c-1.4,1.9-2.6,4.4-5.7,3.9c-0.1,0-0.2-0.2-0.2-0.4
	C113.3,369,113.4,368.8,113.4,368.7z"/>
<path class="st12" d="M385.5,194.4c-5.4,5.8-10.3,11.4-15.5,16.7c-2.8,3-2.3,4.4,1.7,4.9c2,0.3,4,0.6,5.8,1.3
	c1.5,0.6,5.1-0.7,4.3,2.3c-0.6,2.2-2.3,5.3-6.1,4.8c-5.6-0.8-11.2-1.4-16.8-2.2c-2.6-0.3-5.3-0.7-8.9-1.2c4.2-4.6,8-8.8,11.7-13.1
	c1.9-2.2,5.9-4,5.1-6.8c-0.9-3.4-5.4-2.2-8.3-3.1c-3.8-1.1-7.7-1.7-11.7-2.5c0.2-0.8,0.2-1.3,0.4-1.7c3.7-8.6,3.7-8.5,12.9-6.5
	C368.5,189.3,376.9,191.2,385.5,194.4z"/>
<path class="st13" d="M215.1,214.6c-7.2-6-9.3-15-13.3-22.9c-0.6-1.1-0.2-3-1.8-3.3c-1.5-0.3-2,1.4-2.8,2.4
	c-6.2,7-12.5,14-17.1,22.3c1.5,1.1,3.7-0.2,5.1,1.3c-9.3,0.2-9.4,0.1-5.9-8.1c7-16.7,15.7-32.2,28.8-45.4
	C205.6,179.6,209.6,197.2,215.1,214.6z"/>
<path class="st14" d="M289.4,390.5c-3-17.9,0.9-33.8,13.9-46.9c4.4-0.1,5.6,1.2,4.3,4.9c-0.8,2.3-2.2,4.4-3.1,6.7
	c-1.4,3.5,0.5,3.2,2.8,2.4c2.6-0.9,5.3-1.8,9-3.1c-7.8,12.5-13.1,24.9-6.8,39c-1.9,0.7-2,0.8-3.2-1c-4.1-6-6.3-12.8-7.3-20
	c-0.1-1,0.1-2-0.3-2.9c-3,3.2-4.3,6.8-6.1,15.6C292.2,387.3,292.7,390.1,289.4,390.5z"/>
<path class="st15" d="M170.4,444c-4.3-0.4-8.6-0.9-12.8-1.3c-2.5-0.2-3.7-1-2.4-3.8c2.7-5.7,5.3-11.4,7.9-17.2
	c0.9-2.1,2.1-2.6,4.3-1.8c5,1.8,10,3.5,15.1,5.1c2.1,0.7,2.6,1.8,1.9,3.7c-0.6,1.9-1.2,3.8-1.7,5.7
	C180.1,443.9,180.1,443.9,170.4,444z"/>
<path class="st16" d="M164.3,214.4c-0.7-3.9-1.4-7.8-2-11.7c-0.1-0.6,0-1.5-0.9-1.6c-1.2-0.2-1.8,0.8-2.3,1.6
	c-4.8,6.8-9.1,13.9-12.4,21.6c-2.5,5.8-4.9,11.6-6.6,17.7c-2.6,0.5-2.5-1-2.4-2.9c0.2-4.3,2.9-7.7,4.2-11.6
	c6.4-19.5,16.3-37,28.6-53.3c0.8-1,1.5-2.1,2.4-3.2c0.4,0.4,0.7,0.7,0.7,0.8c-3.3,12.9-4.6,26.1-5.4,39.4
	C167.9,213.4,167.2,215.2,164.3,214.4z"/>
<path class="st17" d="M305.1,201.8c0.1-1.4,0.2-2.9,0.4-4.6c5.9,1.1,10.9,3.9,15.9,6.5c-1.6,10.5-4.5,20.8-7.9,30.8
	c-0.5,1.4-0.4,4-2.6,3.4c-2-0.5-3.5-2.2-3.4-4.9c0.2-7.3,0-14.6-1.1-21.9C305.9,208.1,305.5,205,305.1,201.8z"/>
<path class="st18" d="M328.1,211.8c0.1-1.4,0.3-2.8,0.4-4.8c4.6,3.8,10.9,4.4,13.9,9.8c-3,12.4-5.7,24.9-10.6,36.8
	c-0.6,1.5-0.7,3.3-2.6,4l0.1,0c-0.8-1.7-1.3-3.4-1-5.2C330,238.9,328.9,225.4,328.1,211.8z"/>
<path class="st8" d="M329.4,343.8c0,5.7-1.7,11.1-3.5,16.4c-4,11.6-8.4,23-12.7,34.5c-5.5-9.4-5-19-0.2-28.5
	c2.6-5.2,5.4-10.3,8.2-15.4C323.1,347.5,326.5,345.9,329.4,343.8z"/>
<path class="st19" d="M175.5,367.9c-2.9,1.9-5.9,3.8-8.8,5.6c-1.4,0.9-3.5,1.2-2.8-1.2c1.5-5.5-1.7-5.8-5.6-6.1
	c-1.3-0.1-2.6-0.3-4.6-0.6c2.2-3.1,0-5-0.9-7.6c-1.3-3.5,0.2-8,0.9-12.1c0.2-1.2,2-0.6,3.1-0.1c2.9,1.3,5.8,2.6,8.7,3.8
	c3.3,5.3,5.8,11.1,9.9,15.9C175.8,366.2,175.9,367.1,175.5,367.9z"/>
<path class="st19" d="M220.6,360.5c2.1,0.1,4.3,0,6.4,0.2c1,0.1,2.6-0.5,3,0.9c0.4,1.4,0,3.3-1.4,4c-2.7,1.3-3.9,3.5-4.2,6.3
	c-0.2,1.1-0.8,1.8-2,1.4c-4.5-1.4-5,1.4-5.3,4.8c-0.1,1.1,0,3-2.2,2.4c-1.9-0.5-3.5-3.4-5.6-1.1c-1.2,1.3-1.6,3.4-2.6,5.5
	c-3-3.9-5.6-7.7-7.5-11.9c4.2-3.4,8.4-6.7,13.3-9C215.1,362.7,216.8,358.9,220.6,360.5z"/>
<path class="st20" d="M113.4,368.7c2.9,0.2,3.6-2.3,4.8-4c6.3-8.2,9.7-17.7,12.1-27.6c0.2-0.9,0-2,1.8-2.9
	c3.3,12.5,4.7,24.9,1.2,37.5c-1.3,2.1-2.8,4-6.3,5.2c3-6.3,3.4-12.3,3.5-18.9c-3.4,9.1-11.5,11.4-19.7,15.2
	C111.3,370.8,112.2,369.6,113.4,368.7z"/>
<path class="st14" d="M290.2,191.5c3,1.1,6,2.1,9,3.2c-5.2,13.9-11.7,26.9-22.5,37.6C281.9,218.9,283.9,204.5,290.2,191.5z"/>
<path class="st17" d="M144.3,184.7c5.1-0.8,10.1-2.7,15.3-0.9c-7.2,12.1-14.3,24.3-18.8,37.9C140,209.2,141.9,196.9,144.3,184.7z"/>
<path class="st8" d="M382.4,244.7c1.9-9.5-5.7-12-11.6-15.7c-0.8-0.5-1.7-0.9-2.5-1.4c1.3,0,2.7,0,4,0c9.3,0.6,11.8-0.9,16-10l0,0
	c4.1,3,5,7.4,5.6,12.1c1.1,9.3,2.9,18.6,0.6,27.9c-2-1.8-1.6-4.3-1.4-6.4c0.5-5-1.2-8.5-5.8-10.6c-1.3-0.9-1.4-3-3.4-3.3
	C382.4,239.7,384.2,242.6,382.4,244.7z"/>
<path class="st21" d="M165.2,390.3c2.5-2.6,5-5.2,8.3-8.7c0,3.2-0.3,5.4,0.1,7.4c0.8,5.1,3.9,8.4,8.8,9.7c4.7,1.3,7.4-1.7,9.8-5.1
	c1.9-2.7,3.2-5.7,4.6-9.7c1.7,5.1,3.2,9.3,4.6,13.5c0.5,1.4,0.9,2.9-1,3.6c-1.9,0.6-1.9,2.9-3.4,3.8c-1.5,0.3-1.8-1.6-3.1-1.6
	c-1.9,0.8-3.7,2.3-5.7,0.5l0,0.1c-3.5,0-7,1-10.5,0.2c-0.8-0.3,0.6-3.3-1.9-1.6c-2-0.1-2.6-1.8-3.7-3c-1-1.1-2-2.6-3.6-2.3
	c-4.8,1.1-4.9-1.3-3.8-4.8C165,391.6,165,390.9,165.2,390.3z"/>
<path class="st22" d="M211.2,183.8c-0.3-3.1,0.9-4.7,4.2-4.1c3,0.5,6.2-1.1,9,1.1c-3.2,11.7-4.6,23.7-4.7,35.9
	C214.4,206.4,213.2,195,211.2,183.8z"/>
<path class="st22" d="M174.5,181.8c4.7-0.4,9.3-0.7,14-1.1c-5.3,10-10.5,20-14.1,30.7c-0.4,1.3-1,2.7-2.7,2.3
	c-1.8-0.5-1.3-2.2-1.1-3.4C172,200.9,172.3,191.2,174.5,181.8z"/>
<path class="st13" d="M302.5,234.7c-1.8,0-3.6-0.1-5.1-2.5c4.3,1,4.8-0.9,4-4.1c-0.3-1.1,0.1-2.4-0.2-3.5c-0.4-1.9-0.2-4.6-2.1-5.2
	c-1.7-0.6-2.8,1.9-4.1,3.2c-5.1,4.9-9.9,10.2-16.6,13.1c9-10.9,17.1-22.3,22.5-35.7c2.4,10.9,4.1,21.7,3.8,32.7
	C304.7,234.2,303.8,234.8,302.5,234.7z"/>
<path class="st23" d="M289.4,390.5c3-2.6,1.7-6.5,2.8-9.8c1.8-5.2,2.8-10.7,8-15.7c-0.3,7.4,0.8,13.5,3.2,19.3
	c1.5,3.4,2.5,7.1,6.1,9.2c1.2,1.6,2,3.3,2.6,6.2c-7.5-4-12-9.7-16-17c-3.4,4.1-3.7,8.8-4.4,14.5C290,394.5,289.2,392.7,289.4,390.5z
	"/>
<path class="st24" d="M205.7,359.9c-12.1,13.3-22.7,10-29.1-7.1c5,1.5,9.7,3,14.5,4.2C195.8,358.1,200.7,358.9,205.7,359.9z"/>
<path class="st25" d="M317.1,242.8c-1.6-0.9-3.5-1.6-2.4-4c4.1-9.1,6.2-18.8,8.8-28.7c2.5,4,1.9,8.2,2.2,12.2
	c0.7,8.8,0.6,17.6,0.2,26.3c0,0.9,0.4,2.3-1,2.3c-1,0-1.5-1.1-1.8-2.1c-0.3-5-2.2-9.9-0.4-14.8C321.4,237.2,321.3,241.4,317.1,242.8
	z"/>
<path class="st26" d="M243.1,241.7c-8.4-3.6-12.1-11.6-16.7-18.7c-1.9,1.4,0,3.7-1.9,4.6c-1.4-8.8-2.3-17.6,0.1-26.7
	C227.9,215.8,234.7,229.2,243.1,241.7z"/>
<path class="st27" d="M136.4,391.7c-2,12-5.2,23.7-9.7,35c-0.5,1.2-1.6,2-2.4,3c-4.3-1.6-5.4-4-3-8.3
	C126.8,411.7,130.4,401.1,136.4,391.7z"/>
<path class="st28" d="M160.4,420.7c-2.6,5.9-5.4,11.7-7.8,17.7c-1.7,4.1-4.3,1.9-6.6,1.3c-3.5-0.9-0.8-2.9-0.3-4.1
	c2.8-6.4,5.8-12.7,8.7-19C159.7,417.8,159.8,418,160.4,420.7z"/>
<path class="st29" d="M272.2,241c-2.9,0.1-2.9,0.1-3.1-5.1c-2.8,1.9-5.3,3.6-7.7,5.3c-1,0.7-2,2.1-3.2,0.2
	c6.5-8.2,13.1-16.4,19.6-24.6c-0.8,7.6-4.5,13.9-6.5,20.9C270.9,238.8,268.7,240.8,272.2,241z"/>
<path class="st30" d="M193.5,379.5c0.5,4.3-1.1,8.6-4,12.4c-1.5,2-3,4.2-5.9,3.7c-3.1-0.6-5.4-2.4-6.6-5.4
	c-1.9-4.9,1.1-15.4,5.3-18.7c2.6-2.1,5.3-1.5,7.9-0.4C193.2,372.3,193.4,372.9,193.5,379.5z"/>
<path class="st21" d="M185.5,417.9c0.6,4.1-0.6,5.9-4.9,3.8c-0.3-0.1-0.6-0.2-0.9-0.3c-7-2.1-7-2.1-5.3-8.8c1.1-1.4-0.6-3.8,1.7-4.9
	c3.2-2.1,5.9,0.7,8.9,0.8c0.9,0,0.9,1.2,0.9,2C185.7,413,186.2,415.5,185.5,417.9z"/>
<path class="st23" d="M138.4,308.6c-2.2,0.1-3.6-1.5-5.3-2.4c-1.4-0.7-2.6-2.8-4.2-1.8c-1.3,0.8-0.3,2.8-0.5,4.2
	c-0.4,2.3,1.3,5-1.2,6.9c-1.8-7.2-3.5-14.4-5.3-21.6c-0.4-1.5-0.6-2.9-0.2-5.3c4.9,6.6,9.7,12.4,15.8,16.8
	C138.5,306.1,138.5,307.4,138.4,308.6z"/>
<path class="st31" d="M193.5,428.8c-0.5,3.9-1,7.8-1.4,11.8c-0.2,2.2-1.2,2.8-3.5,3.1c-4.3,0.4-6.1-0.3-4.3-5.1
	c1.4-3.8,2.2-7.9,3.2-11.9C189.4,427.6,192.3,425.7,193.5,428.8z"/>
<path class="st32" d="M165.2,390.3c1.5,1.9,1.2,3.9-0.4,6.2c5.1-2.6,7.7,0.1,9.7,3.9c0.4,0.9,1.1,1.1,2,1.2c1.1,1.4,0.3,2.7-0.2,4
	c-0.3,0.6-0.8,1.1-1.5,1.4c-3.6,1.4-6.3,1.1-6.9-3.5c1.7-4.6-2-0.2-2.4-1.4c-3.7-0.1-6.8-1-6.4-5.7
	C160.7,394.1,162.8,392,165.2,390.3z"/>
<path class="st33" d="M168.2,403.5c1,3.2,3.5,3.5,6.3,3.3c0.9,1.7-0.2,2.7-1.1,3.8c-0.3,0.6-0.7,1.1-1,1.7
	c-2.8,5.7-5.1,6.2-10.7,2.8c-1.8-1.1-1.1-2-0.3-3.1c1.7-2.4,3.4-4.8,5.1-7.3C166.7,403.9,167.2,403.3,168.2,403.5z"/>
<path class="st20" d="M298.3,421.6c-1.4,2.3-3.9,3.3-6.2,4.6c5.1-7.7,8.8-16.1,12.7-24.3c2.2-4.7,4.4,0,6.5,0.7
	C307.8,409.5,303.8,416.1,298.3,421.6z"/>
<path class="st34" d="M197.3,424.6c1.4-4.2,4.9-5.8,9-7.9c-0.6,6-2.9,10.9-4.2,16.1c-0.6,2.4-1.4,4.7-1.9,7.1
	c-0.5,2.2-1.6,3.2-3.8,2.8c-1.6-5,1.3-9.5,1.6-14.3C198.1,427.1,199.2,425.6,197.3,424.6z"/>
<path class="st35" d="M175.5,367.9c-4-5.7-9-10.9-10.2-18.2c4.2,0.2,6.9,2.4,8.7,6.1c1,2.1,2.1,4.2,3.5,5.9
	C180.3,365.1,179.2,366.9,175.5,367.9z"/>
<path class="st36" d="M232.2,370.7c-0.3-0.1-0.6-0.2-0.9-0.3c-0.9,6.4-7.8,8.6-9.9,14.2c-1.3,3.5-3.8,4.4-6.5,1.9
	c-2-1.9-3.2-0.6-4.8,0.1c0.3-2.4,0.3-5,4-2.9c3,1.7,4.7-0.1,5.6-2.8c0.7-2.3,0.8-4.6,4.5-4.3c2.5,0.2,2.8-2.6,3.5-4.7
	C228.4,369.8,229.6,366.4,232.2,370.7z"/>
<path class="st37" d="M220.6,360.5c-4.8,2.9-9.9,5.2-14.3,8.8c-2.1,1.7-4.4,3-7.1,3.6c-2.1-1.4-1.3-2.5,0.3-3.7
	c3.9-2.7,7.7-5.6,11.6-8.3C214.2,358.6,217.4,359.9,220.6,360.5z"/>
<path class="st38" d="M318.3,288.8c3.4-3,2.3-7.3,2.9-10.9c1.2-8.3,1.5-16.7,2.2-25.1c1.1,0.5,2.1,1.2,1.9,2.5
	c-1.4,7.5,1.1,15.2-1.5,22.7c-1,2.9-1.5,6.1-2.3,9.1C321,289,320.5,290.6,318.3,288.8z"/>
<path class="st39" d="M159.1,396.5c0.9,3.9,4.6,4,7.4,5.3c0.3,1-0.3,1.5-1,1.9c-0.9,0.9-2,1.8-2.7,2.8c-1.8,2.7-3.3,2.6-5.6,0.2
	C152.5,402.2,152.4,402.4,159.1,396.5z"/>
<path class="st14" d="M387.2,240.7c3.7,0,6.7,1.2,7,5.3c0.3,3.9,0.1,7.8,0.1,11.7c-0.4,1.7-0.9,3.4-1.3,5.1
	C391.6,255.2,389.3,248,387.2,240.7z"/>
<path class="st21" d="M196.2,409.7c0.2,1,0.3,1.9,0.5,2.9c1.8,8.9,1.8,8.9-7.4,8c-0.6-0.7-0.5-1.5-0.5-2.4c0-3.4-0.1-6.9,0.1-11
	c2.2,1.3,4.2,2.4,5.9,0.1C196.2,407.6,195.6,409,196.2,409.7z"/>
<path class="st40" d="M307.3,357.7c-1.2,1.2-2.6,1.4-3.9,0.3c-1.3-1.1-0.2-2.5,0.2-3.6c0.6-1.7,1.4-3.3,2.3-4.8
	c2.1-3.4,1.5-5.4-2.6-6c3.2-2,7.2-2.2,10.3-4.7c-1.5,6.4-4.7,11.5-7.9,16.6C303.9,358.4,306.1,357.4,307.3,357.7z"/>
<path class="st41" d="M185.5,417.9c0-2.8,0-5.5,0-9.3c-3.8,4.1-6-2.6-9.3-0.1c-0.5-0.6-0.6-1.3-0.3-2c0.7-1.1,0.2-3,2.2-3.1
	c2.9-2.7,6.8,1.5,9.8-1.3c0.1-0.1,0.5,1,0.3,1.7C185.1,408,187.3,413.4,185.5,417.9z"/>
<path class="st42" d="M205.3,407.6c0.4,2.3,3.9,4.4,0.4,6.8c-5.2,3.6-6,3.1-7.5-4.5c0.1-1.9-0.6-4.4,1.4-5.2
	C201.9,403.9,203.5,406.4,205.3,407.6z"/>
<path class="st43" d="M298.3,421.6c4.9-6,7.4-13.6,13-19c3.4,1.2,3.1,2.9,1,5.3C308,412.8,303.5,417.6,298.3,421.6z"/>
<path class="st44" d="M195.1,407.7c-0.2,0.3-0.5,0.5-0.6,0.8c-0.5,1.3,0,3.4-1.8,3.7c-2.1,0.3-1.7-2.3-3.4-3.9c0,4.5,0,8.4,0,12.4
	c-2.2-5.5-0.7-11.3-1.1-17c2.8,0.6,4.5-1.3,6.4-2.8C194.4,403.2,197.5,405.2,195.1,407.7z"/>
<path class="st45" d="M317.1,242.8c2.6-3,3.8-6.7,5.9-10.2c-0.9,5.5,2.4,10.8,0.1,16.3C321.1,246.9,319.1,244.9,317.1,242.8z"/>
<path class="st46" d="M205.3,407.6c-2.2,0.4-3.5-1.3-5.3-2.5c-0.6,1.7-1.2,3.2-1.8,4.8c-0.3-0.7-0.6-1.4-1-2.2c-0.5-1-1.6-2-0.6-3.3
	c1.5-1.6-0.1-5.9,4.3-4.8c0.2-0.8,0.4-1.6,0.6-2.3C202.7,400.8,204,404.2,205.3,407.6z"/>
<path class="st8" d="M388.3,217.7c-2.5-2.8-6.1-3-9.4-3.9c-1.1-0.3-3.4,0.5-3.1-1.4c0.3-1.6,1.9-3,3.2-4.3c1.1-1,2.2-0.1,3,0.8
	C384.4,211.6,387.1,214.1,388.3,217.7C388.2,217.7,388.3,217.7,388.3,217.7z"/>
<path class="st47" d="M294.6,400.3c-0.6-4.3,0-7.9,1.8-11.3C301.7,394.4,301.6,394.5,294.6,400.3z"/>
<path class="st48" d="M197.3,424.6c2.4-1.2,3.4-0.9,2.5,2.1c-1.5,5.3-3.1,10.5-3.4,16.1c-2.1,0.5-1.6-0.9-1.4-2
	C195.8,435.4,196.6,430,197.3,424.6z"/>
<path class="st49" d="M148.5,353.7c-0.5-1.1-1.3-1.8-2.3-2.3c0.4-2.6,0.7-5.2,1.1-7.8c0.1-0.8,0.4-1.7,1.4-1.6c0.8,0.1,2,1,1.5,1.6
	c-2.5,2.9-1.7,5.6-0.1,8.4C150.1,352.2,149,353.2,148.5,353.7z"/>
<path class="st50" d="M208.4,406.6c1.1,0.7,1.6,0.5,1.9-0.9c0.6-2.5,1.6-4.9,2.8-7.2c-0.5,5.5-1,10.9-2.7,16.2
	C210.9,411.7,209.1,409.2,208.4,406.6z"/>
<path class="st51" d="M193.5,428.8c-1.8-1.2-4.8,0.8-6-2.1c1.3-3,3.9-3.2,6.2-2.1C195.7,425.5,194.1,427.4,193.5,428.8z"/>
<path class="st52" d="M152.6,412.9c-0.2-2-1.6-3.1-2.9-4.5c-1.6-1.8-2-3.7-0.4-5.8c0.3,1.8,1.5,3,2.8,4
	C154.6,408.6,154.5,410.6,152.6,412.9z"/>
<path class="st53" d="M172.3,377.6c-1.7-2.2-3.5,0.5-5.2-0.1c2.8-2.5,6.3-3.9,10.3-6.2C176.4,374.7,174.7,376.4,172.3,377.6z"/>
<path class="st54" d="M160.4,420.7c-1.4-2.3-4.5-2.1-6-4.1c-0.1-2.3,1.3-2.8,2.7-1.4C158.6,416.7,163,416.8,160.4,420.7z"/>
<path class="st55" d="M306.5,247.8c-0.6-2.1,0.1-4,0.5-5.9c0.2-0.8,0-2.3,1.6-1.7c1.2,0.4,2,1.3,1.2,2.7
	C308.8,244.6,308.5,246.7,306.5,247.8z"/>
<path class="st56" d="M137.5,385.7c1.3-3.2,3-6.1,6-9.6c-1.1,4.7-3,7.8-5,10.8C138.2,386.4,137.8,386.1,137.5,385.7z"/>
<path class="st57" d="M315.3,245.6c-1.9,0.7-2.7,3.3-5.2,3C312.4,243.3,312.4,243.3,315.3,245.6z"/>
<path class="st58" d="M165.4,403.7c0.3-0.6,0.7-1.3,1-1.9c1.4-1.3,2.9-2.6,4.7-4.2c-0.1,2.8-2.3,4-3,6c-0.6,0.4-1.1,0.8-1.7,1.2
	C166.1,404.4,165.8,404,165.4,403.7z"/>
<path class="st59" d="M196.5,404.5c0.2,1.1,0.4,2.2,0.6,3.3c-0.3,0.6-0.6,1.3-1,1.9c-0.3-0.7-0.7-1.4-1-2c0.4-2.3-1.4-4.4-0.5-6.8
	C195.3,402.1,195.9,403.3,196.5,404.5z"/>
<path class="st60" d="M176.5,406.7c-0.1,0.6-0.2,1.2-0.3,1.8c-0.6,1.4-1.2,2.8-1.8,4.1c-0.3-0.7-0.7-1.4-1-2
	c0.4-1.3,0.8-2.5,1.1-3.8c0.3-0.4,0.6-0.8,0.9-1.2C176.3,405.4,176.8,405.7,176.5,406.7z"/>
<path class="st61" d="M329.3,257.6c0.9,2.1,0.1,3.7-2.1,5.9C327.7,260.8,325.9,258.4,329.3,257.6
	C329.3,257.7,329.3,257.6,329.3,257.6z"/>
<path class="st62" d="M270.4,117.8c2.3-1.1,4.5-2.1,6.8-3.2c2.2-1,2.2-3,1.6-4.7c-0.9-2.6-2.5-0.4-3.6-0.1c-3.5,0.9-7.1,4.8-9.9,3.1
	c-2.3-1.4-2.5-6.2-3.6-9.5c-0.1-0.3-0.3-0.6-0.7-1.1c-3.1,3.7-4.3,8.2-6.4,12.2c-1.6,3-8.7,4.3-10.9,1.8c-1-1.2,0.1-2.2,0.6-3.1
	c3.8-6.6,7.6-13.3,11.6-19.8c1.3-2.2,1.6-4,0.8-6.5c-3-9.4-5.4-18.9-8.7-28.2c-1.9-5.3,2.2-4.7,4.7-6c3.6-1.9,3.8,1,4.5,3.1
	c2.3,7.2,4.6,14.5,7.2,22.8c4.1-7,7.7-13.1,11.2-19.2c1.4-2.4,2.5-4.4,6.1-3.5c3.5,0.8,3.3,3.2,3.5,5.6c0.7,9.3,1.5,18.6,2,27.9
	c0.2,3.3,1,4.4,4,2.5c0.1-0.1,0.3-0.2,0.5-0.2c2.2,0.1,4.3-4,6.3-0.8c2.5,3.9,0.5,8.5-3.3,10.6c-2.3,1.3-6.5,0.4-6.3,5
	c0.1,2.1,0.6,3.2,2.9,2.1c1.9-1,4-1.7,5.9-2.6c1.2-0.5,2.3-0.8,2.7,0.9c0.3,1.2,0.6,2.6-0.9,2.9c-7.5,1.5-12.1,4.8-9.4,13.4
	c0.2,0.6-0.2,1.2-0.9,1.5c-2.8,1.1-9.1-2.2-9.3-5.1c-0.1-2.4-0.9-2.9-3-2c-1.2,0.5-2.5,0.8-3.8,1.2
	C271.3,119.2,270.3,119.7,270.4,117.8z"/>
<path class="st63" d="M270.4,117.8c0.7,0.3,1.3,0.7,2,1c-1.8,1.1-3.6,2.1-6,1.6C267.1,118.2,268.8,118.1,270.4,117.8z"/>
<path class="st64" d="M154.4,279.6c8.9,0.1,17,2.8,24.4,7.4c7.4,4.5,5.8,14.7-2.8,19.8c-11.4,6.9-26.2,0-32.7-9.3
	c-2.7-3.8-4.3-7.7-1.3-12.4C144.8,280.9,147.1,279.7,154.4,279.6z"/>
<path class="st65" d="M284.8,307.5c7.4,0.5,14.3,3.1,20.8,6.8c4,2.3,5.2,6.1,4.5,10.7c-0.8,4.9-4.5,7.3-8.7,7.5
	c-9.6,0.4-18.6-2.1-26.5-7.9c-3.3-2.4-4.2-6-3.3-9.8c0.8-3.7,3.4-6,7.2-6.7C280.6,307.7,282.6,307.7,284.8,307.5z"/>
<path class="st66" d="M229.2,336.9c-0.1,7.4-4.6,12.6-10.8,12.5c-6.3-0.2-13.4-4.4-13.2-8c0.3-8.2,7.1-16.7,13.2-16.5
	C224.5,325,229.3,330.3,229.2,336.9z"/>
<path class="st67" d="M366.2,260.2c1.6,0.3,2.2,0.3,2.9,0.5c7.4,1.4,8.9,5,4.9,11.6c-1,1.6-2.4,1.6-3.9,1.5
	c-7.1-0.6-14.2-1.3-21.3-2c-3.5-0.3-3.2-2.3-1.8-4.5c2.6-4,5.3-7.9,8-12c-2.7-1.6-5.4-1.5-8-2.1c-2.6-0.6-3.3-2-1.9-4.3
	c0.1-0.1,0.2-0.3,0.2-0.4c5.2-10.2,5.2-10.2,16.3-7c3,0.9,6.1,1.7,9.1,2.5c6.4,1.7,6.5,2.1,2.5,7.2
	C371.1,253.9,368.9,256.7,366.2,260.2z"/>
<path class="st68" d="M176.5,406.7c-0.4-0.4-0.8-0.7-1.2-1.1c0.4-1.3,0.7-2.6,1.1-3.9c2.7-1.5,1.8,0.5,1.7,1.7
	C177.6,404.5,177.1,405.6,176.5,406.7z"/>
<path class="st69" d="M191.6,381c0.2,3.7-1.1,6.9-3.4,9.7c-1.4,1.7-2.8,3.5-5.4,2.7c-2.4-0.8-4.1-2.6-4.3-5c-0.5-5,1.4-9.5,4.7-13.2
	c1.5-1.7,3.7-2.4,5.9-1.2C192.1,375.4,191.5,378.4,191.6,381z"/>
<path class="st70" d="M276.6,71.1c0.4,8.1,0.9,16.2,1.3,24.3c0.2,3.6-3.1,3.5-5.2,4.3c-2.6,1-2.3-1.7-2.9-3
	c-2.6-5.4-2.8-10.7,0.8-15.9c2-3,3.3-6.5,4.9-9.7C275.9,71.1,276.3,71.1,276.6,71.1z"/>
<path class="st71" d="M165.4,303.7c-6.9,0.5-12.7-1.9-17.8-6.3c-3.2-2.8-4.3-6.3-2.4-10.3c2-4.1,5.7-5.1,9.7-4.2
	c6.3,1.5,12.4,3.4,18.5,5.5c3.3,1.1,5.9,3.8,5.8,7.4c-0.1,3.8-2.7,6.1-6.4,7.3C170.3,303.8,167.8,303.5,165.4,303.7z"/>
<path class="st71" d="M296.2,328.8c-6.7,0.4-12-3.2-17.6-6c-2.6-1.3-3.6-3.3-3.2-6.1c0.3-2.6,2.1-4,4.3-5c7-3,21.5,1.3,25.7,7.6
	c2.2,3.3,0.3,8-3.8,9C299.9,328.8,298,328.6,296.2,328.8z"/>
<path class="st72" d="M222.3,342.9c-0.2,0.7-0.1,2.1-0.7,2.4c-4.1,2.5-7.5-0.5-11.2-1.6c-3.1-0.9-2.1-3.2-1.7-5.3
	c0.1-0.3,0.2-0.6,0.3-0.9c1.4-3.1,2.3-8,5.9-7.6c3.9,0.4,6.2,4.6,6.9,8.8C222,340,222.1,341.3,222.3,342.9z"/>
<path class="st73" d="M225.1,340.1c-0.3-4.8-2.9-8.4-6.4-11.6C224.9,329.3,227.3,333.5,225.1,340.1z"/>
<path class="st12" d="M349.6,268.8c3-4.4,5.3-8.2,8-11.7c2.3-3.1,1.9-4.7-2-5.3c-0.5-0.1-1.1,0-1.5-0.2c-1.8-1-5.4,0.6-5.3-2.6
	c0.1-4.3,4.2-6.9,8-5.9c4.9,1.4,9.9,2.8,15.5,4.4c-3,3.8-5.4,7.2-8.2,10.4c-2.6,3-2.1,4.6,1.7,5.3c1.3,0.2,2.6,0.4,3.9,0.7
	c1.4,0.3,3.4,0,2.7,2.4c-0.6,1.8,0,4.8-3.4,4.4C362.9,270.1,356.6,269.5,349.6,268.8z"/>
<path class="st74" d="M188.3,381.5c0.4,2.3-0.4,4.3-1.7,6c-0.8,1.2-1.7,2.8-3.5,2c-1.8-0.8-2-2.6-1.5-4.3c0.7-2,1.7-3.9,2.6-5.9
	C185.8,379.6,187.1,380.5,188.3,381.5z"/>
<path class="st75" d="M188.3,381.5c-1.9,0.4-3.2-0.5-4.1-2.1c0.3-1.7,1.5-3,3-2.5C189.5,377.7,188.5,379.8,188.3,381.5z"/>
</svg>
