<?xml version="1.0" encoding="utf-8"?>
<!-- Generator: Adobe Illustrator 24.1.0, SVG Export Plug-In . SVG Version: 6.00 Build 0)  -->
<svg version="1.1" id="Layer_1" xmlns="http://www.w3.org/2000/svg" xmlns:xlink="http://www.w3.org/1999/xlink" x="0px" y="0px"
	 viewBox="0 0 695.2 991" style="enable-background:new 0 0 695.2 991;" xml:space="preserve">
<style type="text/css">
	.st0{fill:#3D3D3D;}
	.st1{fill:#ECECEC;}
	.st2{fill:#D1D1D1;}
	.st3{fill:#EAEAEA;}
	.st4{fill:#595959;}
	.st5{fill:#494949;}
	.st6{fill:#BFBFBF;}
	.st7{fill:#858585;}
	.st8{fill:#EBEBEB;}
	.st9{fill:#B35A61;}
	.st10{fill:#ACACAC;}
	.st11{fill:#4A4A4A;}
	.st12{fill:#C2C2C2;}
	.st13{fill:#B9B9B9;}
	.st14{fill:#B8B8B8;}
	.st15{fill:#A7A7A7;}
	.st16{fill:#929292;}
	.st17{fill:#969696;}
	.st18{fill:#E9E9E9;}
	.st19{fill:#A8A8A8;}
	.st20{fill:#9E9E9E;}
	.st21{fill:#A6A6A6;}
	.st22{fill:#616161;}
	.st23{fill:#ADADAD;}
	.st24{fill:#C0C0C0;}
	.st25{fill:#666666;}
	.st26{fill:#636363;}
	.st27{fill:#646464;}
	.st28{fill:#AEAEAE;}
	.st29{fill:#5A5A5A;}
	.st30{fill:#696969;}
	.st31{fill:#626262;}
	.st32{fill:#C9C9C9;}
	.st33{fill:#CDCDCD;}
	.st34{fill:#656565;}
	.st35{fill:#676767;}
	.st36{fill:#767676;}
</style>
<g>
	<path class="st0" d="M77.3,991c-1.6-1.8-0.5-2.9,0.9-4c3.8-3.2,7.9-6,11.9-9c10.9-8.3,22.6-15.6,32.8-24.9c1.3-0.5,2.5-0.4,3.8-1.5
		c6-5.3,12.7-9.6,19.1-14.3c19-13.8,38.1-27.4,57.4-40.8c8.2-5.7,8.2-6.9,1.3-14c-4-4-8.1-7.9-11.8-12.2
		c-18.1-20.7-30.9-44.5-41.3-69.7c-9.9-23.9-16.8-48.8-25.7-73c-0.5-1.4-0.3-2.8-0.6-3.5c1.2,5.8-0.7,12.2-0.5,18.6
		c0.3,12.5-1.4,24.9-2.5,37.3c-1.1,13.9-2.6,27.8-3.5,41.8c-0.8,13.6-1.3,27.2-1,40.9c0,1.3-0.2,2.7-1,3.8
		c-12.4,11-26,20.1-41.2,26.8c-7,3.1-14.3,5-22.2,4.5c-8.8-0.5-15.7-5.4-18-13.9c-1.6-5.9-2.3-12.1-3.1-18.2
		c-0.3-2.1,0.4-3.9,1.9-5.3c-2-12.3-4.1-24.7-5.9-37c-6-41.9-11.3-83.9-15.3-126c-2.8-29.4-5-58.7-5.5-88.2C7.2,596,6,583.1,3,570.4
		C-0.7,554.3-1.5,538,3.6,522c7.6-24.1,30.8-39.2,55.8-37.2c16.8,1.3,31.5,8.1,45.5,16.8c20,12.4,36.3,29,52,46.4
		c32.1,35.8,61.9,73.4,87.8,113.9c4.3,6.7,9.4,13.1,11.8,20.8c6,19.6,9.9,39.7,12.9,60.1c3.8,26.7,2.8,53.5,3.1,80.3
		c0.2,18.8,2.8,37.2,11.9,54.1c11,20.6,26.9,37.1,43.9,52.8c17,15.7,35,30.3,53.4,44.3c3.4,2.6,3.1,4.6-0.5,6.7
		c-5.1,3.1-10.6,5.7-14.9,10C270,991,173.7,991,77.3,991z"/>
	<path class="st1" d="M40.3,991c-1.1-9.2-1.6-18.3-0.2-27.8c2-13.5,0.6-27.2-1.3-40.8c-2.1-14.9-5.8-29.4-10.8-43.5
		c-3-8.3-0.4-15.6,6.2-18.7c0.9,5.9,1.8,11.8,2.8,17.7c2.3,13.6,8.6,18.4,22.4,17.2c3.7-0.3,7.2-1.4,10.6-2.7
		c16.5-6.3,30.9-16.1,44.2-27.5c1.2-3,0.3-6.2,0.6-9.3c0.1-1.3-0.3-2.9,1.3-3.5c1.8-0.7,2.8,0.7,3.7,1.8c2.7,3.2,3.8,6.9,4,11
		c0.4,8.7-0.5,17.3-1.1,25.9c-1.2,18.8,1.5,37.4,3.5,56.1c0.4,3.4-0.1,6.3-2.1,9c-1.6,1.2-3.1,2.5-4.7,3.7
		c-14.1,10.5-28.2,20.9-42.2,31.4C65,991,52.7,991,40.3,991z"/>
	<path class="st2" d="M509.3,311.3c-2.4-2.5-4.5-5.4-6.2-8.4c-1.4-2.4-3.3-4.4-6.3-4.2c-4.5,0.2-9,0-13.4,0.3
		c-2.8,0.2-5.4,1.1-6.7,3.7c-3.2,6.7-6.2,13.5-8.9,20.4c-2.5,5.6-5.6,10.9-8.1,16.5c-3.8,8.5-9.3,16.2-11.6,25.3
		c-0.1,3.3-4.2,3.6-4.8,6.4c-1.1,5.5-3.8,10.8-3,16.7c-0.3,0.4-0.6,0.8-1,1.1c-2.2,0.1-3.6,1-4.3,3.3c-6.3,21.9-9.8,44.1-7.2,67
		c1.1,9.4,3.5,18.6,5.8,27.8c-7.7-16-9.9-33.2-10.7-50.7c-7.4,29-10.2,58.1-4.5,87.7c0.5,1,0.9,2-0.9,1.9c-4-15.1-5.4-30.4-4.8-45.9
		c1-29.2,6.5-57.7,13.9-85.9c0.8-1.6-2.6-1.3-1.4-3.1c0-0.6-0.1-1.1-0.1-1.7c-0.3-1.3-0.1-2.6,0.5-3.8c2.4-4.6,4-9.5,6.2-14.1
		c0.1-0.3,0.1-0.5,0-0.5c-0.7,0,0.3-0.5-0.4,1c-1.4,5.5-5.6,10.9-6.9,17.5c-2.5,0.7-5,0.9-6.7,3.6c-9.9,16-20.1,31.8-29.9,47.9
		c-9.3,15.2-15.5,31.7-18.3,49.4c-1.4,8.7-1.7,17.4-3,26.2c-0.9-6.1-1.7-12.1-2.6-18.2c-3.5,6.8-4.8,14-5.6,21.2
		c-0.8,7.1-0.5,14.3-0.8,21.4c-7.1-30.1-0.2-59,7.8-87.8c-12.8,23.7-20.7,48.7-19.5,76.7c-2.2-6.1-2-11.7-1.7-17.3
		c1.2-29.9,11.7-56.9,26.8-82.3c6.7-11.3,13.5-22.6,19.3-34.4c0.8-1.6,3.1-4-1-4.8c-1.2-1.3-0.8-2.3,0.5-3.3
		c2.2-1.6,3.6-3.9,4.7-6.4c5.1-10.9,9.9-21.9,14.4-33c24.8-61.5,43.4-124.9,57.2-189.7c0.9-4.4,0.9-8.6-0.6-12.8
		c-4.2-11.8-6.5-24.1-8-36.5c-0.4-3.2-0.8-6.3,0.2-9.4c-4.6,17.7-13.7,32.9-25.2,46.8c-1,1.2-2.3,2.1-3.9,1.2
		c-1.7-1-1.9-2.7-1.2-4.3c1.7-3.7,3.5-7.4,5.2-10.8c-1.2,1.6-1.8,3.9-2.9,6c-1.3,2.3-2.4,4.6-4.5,6.3c-1.1,0.9-2.1,1.8-3.7,0.9
		c-1.6-1-1.6-2.5-1.2-4c0.5-1.9,2.1-3.3,3-6.1c-3.9,8.9-6.7,10.2-15.5,7.7c-4.2-1.2-6.8-4.7-6.4-8c-0.4,6.8-7.1,10.5-10.3,16.2
		c-0.4,0.8-1.8,0.9-2.8,0.9c-4.1,0-8.2,0.3-12.4-0.8c-3.1-0.8-4.2-2.4-4.2-5.4c-0.1-5.3-0.1-10.6,0.4-14c-1.1,5.5,0.4,13-1.4,20.3
		c-0.9,3.6-2.5,4.3-5.8,2.5c-4.2-2.2-5-6.2-5.1-10.7c-0.5,2.4,2.1,5.7-1.7,6.3c-3.8,0.6-3.1-3-3.6-5.2c-1.7-7.8-0.5-15.5,0.2-21.2
		c-0.4,4.2-1.3,10.4-2.1,16.7c-0.2,1.7-0.5,3.4-2.4,4c-1.8,0.6-3.2-0.3-4.5-1.5c-2.6-2.3-4.1-5.4-5.6-8.4c-0.1-0.2-0.1-0.3,0-0.3
		c0.7-0.1-0.3-0.7,0.1,0.4c0.5,2.8,1,6.3-2.9,7.6c-3.5,1.2-5.9-1.3-7.9-3.9c-0.6-0.8-0.7-1.8-1-2.8c-1.1-4-0.8-8.1-0.5-12.2
		c-0.4,3.5,0.4,7.2-0.6,10.7c-0.7,2.4,0,6.3-3.8,6.3c-3.4,0-3.8-3.6-4.6-6.2c-0.3-0.8-0.1-1.7-0.3-2.5c-1.8-8.2-0.8-16.1,1.6-24
		c-1,3.1-1.3,6.3-2.3,9.4c-2,6.1-2.4,12.2-1.6,18.7c1,7.9,1.2,16,1,23.9c-0.2,12.1-1.2,24.2-3.1,36.3c-1.6,10.7-0.8,21.3,4.4,31.1
		c1,1.4,0.3,2.4-0.7,3.5c-5.1,5.2-5.4,11.3-3.2,17.8c-3.8,3.8-8.6,6.3-12.5,9.9c-0.6,0.6-1.7,1-2.6,0.1c-2.3-8.5-0.1-17,0.1-25.6
		c0-0.3,0.1-0.4,0.2-0.4c0.6,0.2-0.1-0.6,0,0.1c-1,9-2.1,18-0.4,27c-0.8,1.5-2.3,2-3.6,2.7c-2.7-0.6-2.2-2.5-1.7-3.9
		c-1.5,1.6,0.8,3.3,0.8,5.3c-2.3,1.8-4.5,3.7-7,5.4c-1.3,0.9-2.3,1.4-3.4,0c-1.1-1.1-0.9-2.5-0.7-3.8c0.5-4.8,0.9-9.7,1.6-14.5
		c1.4-11,3-21.9,5.8-33.1c0.1,1.4-0.5,2.1-0.7,3c-3.2,12.3-4.5,25-6.1,37.6c-0.5,3.8-2,8.1,0.6,12c-1,3.4-3.9,2.5-4.5,0.7
		c-1.4-4.5-2.7-9.1-2.2-13.9c0.1-1.2,0.9-1.6,2-1.6c1.9-1.3,1.7-3.5,1.9-5.4c2.2-20.3,6.6-40.1,14.4-59c3.6-8.9,4.8-18.4,7.1-27.5
		c0.4-1.4,0.1-2.6-0.5-3.9c-3.7-8.7-5.2-17.9-5.6-27.3c-1.2-28.8,5.6-55.4,21.5-79.6c0.7-0.2,1.1-0.6,1.6-1.2
		c4.2-4.6,8.6-8.9,14.5-11.2c2.4-1,5.1-1.8,7.1,0.1c3.4,3.1,5.5,1.8,7.7-1.2c4.5-6.3,10.8-8.9,18.2-10.2c19.6-3.4,39.1-1.2,58.6,1.3
		c2.4,0.3,3.9,1.7,4.8,3.9c0.7,1.7,1.2,3.5,1.9,5.1c2,4.6,4.6,5.6,7.8,2c5.3-6.1,11-5.6,17.5-3c12,4.8,23.1,10.9,31,21.5
		c-2.5-3.5-4.6-7.5-6.8-11.3c-4.5-7.7-10.3-14.2-17.4-19.7c-5.5-4.2-12-5.5-18.2-7.9c-5.2-5-10.4-10.1-15.3-15.4
		c-1.5-1.6-3.7-3.4-0.7-5.7c17.1,0.6,34.3,1.1,51,5.9c42.4,12.4,72.9,37.6,85.5,81c9,30.8,12.7,62.6,14.4,94.6
		c1.7,32.8,0,65.6-0.8,98.4c-0.4,15.8-2.2,31.6-0.7,47.4c2.7,30,6.7,59.9,12.7,89.5c7.2,35,10.3,71,26,103.8c0.3,1,0.2,1.5-1,1.1
		c-1-0.9-0.9-2.9-3.1-3.3c1.3,7.1,3.3,13.7,5.3,20.3c12.5,40.4,24.2,81,29.1,123.2c4.8,40.5,1.4,80-15.5,117.7c-1.1,0.5-1.3,0-1.2-1
		c11.9-37,11.1-74.2,2.9-111.7c-2.9,20.7-6.3,41.1-13.7,60.7c-1.2,0.5-1.3,0-1-1c7.5-29.8,9.3-59.9,4.4-90.2
		c-6.9-41.8-18.1-82.6-30.8-123c-0.5-1.5-0.4-3.3-2.3-4.5c0.2,1.1,0.3,1.9,0.5,2.7c7.8,41.1,13.7,82.5,15.5,124.3
		c1.2,28,0.8,55.9-4.3,83.6c-3.5,1.6-3-1.3-3.2-3c-0.9-6.9-1.7-13.7-4.5-20.2c-0.7-1.6-1.2-3.5,0.8-4.9c-1.2-9.2-2-18.5-3.5-27.7
		c-1-5.6,1.6-10.8,0.5-16.3c-4.5-22.4-6.8-45-6.8-67.9c0-36.4,0.3-72.9-1.4-109.3c-0.4-8.2,0.4-16.7-2.6-24.6
		c-4.2-4.8-7.5-10-6-16.8c-0.4-1.6-0.7-3.3-1.2-4.8c-12-36.3-18.5-73.5-19.9-111.7c0-1.1,0.4-2.4-1.2-3.2c-1.3,1.1-2.6,2.3-4,3.5
		c-6.8,5.5-14.3,8.4-23.1,6.9c-5.1-0.9-9.1-3.9-13.4-6.4C512.1,314.3,510.7,312.8,509.3,311.3z"/>
	<path class="st3" d="M386.4,391c-2.7-1-2.5-3-2.3-5.3c1.1-9.6,2.4-19.1,2.8-28.8c0.2-6,1-11.8,6.3-16.1c3.7-3.1,4.4-7.5,3.7-12.3
		c-1-7-2.3-14-2.7-20.9c-2.9,6.4-5.6,13.2-9.1,19.6c-2.6,4.7-3.8,9.6-2.2,14.9c1.1,3.7,0.1,6.7-1.9,9.9c-7,10.9-14.4,21.7-21,32.8
		c-3.6,6.1-7.6,9.5-14.8,7.9c-4.3,0-8.6-0.1-12.8,0c-3.5,0.1-4.9-0.8-4.7-4.8c0.2-4.6,2.1-9,1.4-13.6c0.4-3.6,1.8-7,2.5-10.6
		c1.8-10,5-19.5,7.6-29.3c0-3.2,2.7-2.5,4.4-2.6c4.3-0.3,8.5-0.6,12.8-1.2c4.9-0.7,8.6-3.1,11.4-7.1c3-4.1,4.1-9,5.7-13.6
		c-1.2-3.4,0.2-6.8,0.5-10.1c0.6-6.6-0.8-13.2,1.1-19.8c0.6-2.2-1.2-2.9-3-3.1c-2.8-0.4-5.6,0.2-8.4,0.5c-9.1,0.9-17.6,0.5-22.3-9.5
		c-1.2-2.5-3.2-4.6-4.9-6.9c-1.5-2-2.7-4.2-3-6.8c-0.6-1.5,0.7-2,1.5-2.8c5.6-5,7.1-10.4,4.6-15.8c-2.6-5.5-8.1-7.9-15.6-6.7
		c-1.7,0.3-3.2,0.8-4.5-0.9c-3-2.7-4.1-6.4-5-10.1c-1.7-7.6-1.6-15.3-0.5-22.9c3.1-21.5,3.4-43,1.3-64.7c-1-10.6,5-19.6,9-29
		c-0.2,6.2-1.1,12.2-1.6,18.2c-0.5,6,0.2,11.8,2.6,17.4c3.3-6.1,2.7-13,5.7-20.4c0.1,3,0.3,4.7,0.3,6.3c0.1,4.5,0.8,9,2.2,13.3
		c0.6,2,1.8,3.9,4.1,3.8c2.8-0.2,2.4-2.7,2.7-4.6c0.3-2-0.4-4.2,1.2-6.5c2.1,3.6,3.8,6.7,5.7,9.8c0.8,1.4,1.6,3.3,3.6,2.8
		c1.8-0.5,1.4-2.5,1.6-3.9c1.3-7.5,2.8-14.9,6.2-21.9c-0.1,10.2-1.3,20.4,0.9,31.1c1.5-3.5-0.2-6.8,2.2-10.2
		c0.9,3.8,1.5,6.9,2.4,9.9c0.8,2.5,1.4,6,4.5,5.7c2.8-0.3,1.8-3.8,2.4-5.9c0.3-1.3,0.2-2.7,0.4-4c1.1-5.9,2.2-11.9,3.3-17.8
		c1.7,2.3,0.7,4.4,0.9,6.4c0.5,5.9-1.9,12.4,4.2,17.1c3.5,2.7,10.9,3.2,13-0.6c3.3-5.8,9.1-10,10.5-16.9c0.1-0.7,0.3-1.7,1.7-1.6
		c0.1,1.1,0.3,2.3,0.2,3.4c-0.3,4.8,3,7,6.6,8.4c3.9,1.5,7.8,1.2,10.5-3.1c1.7-2.7,3.8-5.1,6.4-8.7c0.2,5.7-3.1,9.2-3.4,14.2
		c5.9-5.7,8.8-12.2,12.2-18.5c-0.6,6.8-3.6,12.9-5,19.5c13.2-14.4,21.1-31.8,27.1-50.4c1.8,1.6,1.5,3,1.5,4.3
		c1,15.9,3.4,31.5,8.7,46.5c1.7,4.9,1.9,9.6,0.8,14.6c-6.6,30.3-14,60.4-22.8,90.1c-13.5,45.9-29.5,90.9-49.6,134.4
		c-1.5,3.3-3.4,6.1-7.1,7.2C389.7,391,388,391,386.4,391z"/>
	<path class="st3" d="M644.2,910.9c-1.2,0.1-3.2-0.5-3.5,1c-0.4,2.1,1.9,1.8,3.2,2.3c0.9,0.4,1.9,0.6,2.8,0.9
		c17,4.6,32.1,12.7,46.2,23.1c1.2,0.9,2.5,1.8,2.2,3.6c-0.4,2-2.1,2.5-3.8,2.6c-3.1,0.2-6-0.6-8.7-2c-5.5-2.7-11-5.6-16.5-8.2
		c-8.7-4.1-17.9-6.3-27.5-6.5c-2.3-0.1-4.5,0.3-5.1,3c-0.5,2.5,1.9,2.8,3.4,3.6c3.9,2,7.8,3.8,11.6,5.8c8,4.2,14.7,10.3,22.4,15.1
		c1.5,1,2.9,2.6,2.2,4.6c-0.7,2.1-2.9,2.1-4.7,2c-3-0.1-5.8-1.1-8.7-2.2c-10.5-4.3-21.1-8.3-31.5-12.8c-8.9-3.9-18.3-2.9-27.5-4.3
		c-1.9-0.3-3.6,0.6-4.5,2.5c-0.9,1.7-0.7,3.4,0.5,4.7c4.5,4.6,8.2,10.1,15.3,11.3c3.8,0.6,7.3,2.4,10,5.3c1.8,1.9,3.2,4.2,1.7,6.8
		c-1.3,2.3-3.7,1.8-5.9,1.3c-10.9-2.2-21.9-4-30.8-11.8c-2.4-2-5.4-3.2-8-5c-13.9-9.5-20.3-24.2-26.5-39c-0.2-0.4-0.2-1-0.2-1.5
		c-0.1-15-1.1-30-2.7-44.9c-0.3-2.3,0.2-3.5,2.8-3.3c11.1,1.2,22,0.1,32.6-3c2.9-0.8,3.6,0.4,3.5,2.9c-0.1,1.7-0.1,3.3-0.3,5
		c-0.3,2.5,0.7,3.8,3.3,3.8c13.8,0,27.6,1.8,41.3-1.6c5-1.2,10.2-1.5,15.3-2.2c2.6-0.3,4.9,0.3,7.1,1.8c4.8,3.3,9.7,6.4,14.6,9.6
		c1.6,1,3.3,2,2.7,4.2c-0.6,2.4-2.8,2.5-4.8,2.6c-4.2,0-8.7-0.2-12.1-2.5c-7.1-4.8-13.4-0.6-20,0.7c-0.9,0.2-1.6,0.6-1.6,1.6
		c0,1.1,0.5,1.9,1.7,2.2c1,0.2,2,0.3,3,0.4c19.4,3.1,38.3,7.3,52.9,22c1.3,1.3,3.4,2,2.5,4.3c-0.8,2-2.7,2.4-4.6,2.4
		c-4.4,0.1-8-2.2-11.5-4.4c-8.5-5.1-17.5-8.1-27.5-7.7C648.5,910.9,646.4,910.8,644.2,910.9z"/>
	<path class="st4" d="M493.9,399.2c0.1-0.1,0.3,0,0.5,0c1.5,2,3.1,3.9,4.4,6c9.4,15.2,17.2,31.2,24.8,47.3c3,6.3,4.2,12.6,3.5,19.4
		c-2.1,18.5,0.8,36.9,0.6,55.4c0,3.5,0.4,7,0.6,10.5c0.6,11.7,1.2,23.3,7.5,33.7c2.5,4.1,3.2,8.6,2.6,13.5c-0.7,5.6-1,11.3-1.1,16.9
		c-0.4,23.7,1.4,47.3,4.7,70.7c3.8,27.3,6.3,54.6,5.3,82.2c-0.1,4,0,8,0.3,12c1.2,18.6,2.6,37.2,3.6,55.8
		c0.6,11.6-0.2,11.9-11.6,10.6c-5-0.6-7.3-2.7-7.5-7.9c-1.1-23.6-2.4-47.2-3.8-70.8c-0.8-12.4-1.8-24.9-2.8-37.3
		c-2.8-0.3-2.5-2.7-2.7-4.5c-2.4-14.8-3-29.8-3.9-44.7c-0.8-11.9-0.5-24-2-35.8c-1.6-12.9-3.4-25.7-4.8-38.6
		c-4-36.4-6.9-72.8-11-109.2c-0.4-3.6-1.7-7.4,0.2-11c-3.1-5.8-4.5-11.7-4.9-18.4c-0.7-12.7-3.1-25.2-3.2-38
		C490.3,413.8,490.7,402.1,493.9,399.2z"/>
	<path class="st2" d="M524.6,720.7c-1.1,0-1.4-0.9-1.8-1.6c-10.1-16.7-20.1-33.3-30.2-50c-0.6-1-1.3-2.1-1.3-3.2
		c0-4.7-2.8-6.8-6.8-8c-2-0.6-2.6-2.2-2.9-4.2c-2-11.7-6.4-22.4-13.6-31.8c-1.1-1.5-2.2-3-0.8-4.9c1.2-2.8,2.2-5.6,3.6-8.2
		c1.5-3.1,1.5-6-1.1-8.2c-8-6.8-8.6-15.1-5.9-24.4c0.4-1.6,0.6-3.3,0.6-5c0.3-15,4.2-29.4,10.9-42.5c8.3-16.4,16.3-32.8,22.7-50
		c0.7-2,0.9-4.3,3.2-5.4c1.1,4,2.4,7.9,2.8,12.1c2.4,24.8,4.8,49.7,7.3,74.5c1.6,15.9,3.2,31.7,5,47.5c1.1,10,3.3,19.9,3.7,29.9
		c0.6,13.2,1.5,26.5,2,39.7c0.5,13.4,2.5,26.7,3.4,40C525.1,718.3,525.9,719.8,524.6,720.7z"/>
	<path class="st4" d="M245.3,527.4c2.9,6.5,5.2,12.8,5.7,20c0.3,4.5,1.6,8.5-3.5,11.2c-1.1,0.6-1.6,2.5-2.2,3.8
		c-6.6,15.3-17.4,27-30.6,36.9c-3.3,2.5-4.8,1.2-5.3-2.3c-0.7-4.8-2.1-9.4-3.7-14c-2.7-7.3-4-14.8-3.3-22.6c2.3-28,4.1-56.2,8.5-84
		c4-25.5,3.8-51.1,1.7-76.7c-0.5-6.2,0.9-7.9,7.3-7.5c13,0.7,24.6,5.6,35.1,13c2.4,1.7,2.9,3.9,2.6,6.5c-1,8.1-1.9,16.2-2.7,24.3
		c-0.4,4.1-2,7.5-4.1,11.1c-7.4,12.5-14.2,25.3-14.5,40.3C236.9,501.5,239.8,514.8,245.3,527.4z"/>
	<path class="st3" d="M319.4,245.3c2.8,1.3,2.5,3.8,1.1,6.2c-5.1,5.2-11.2,9.1-16.7,13.6c-0.7,0.1-1.4,0.2-1.9,0.8
		c-0.7,1.1-2,1.2-3,1.8c-3.2,0.6-3,5-6.1,5.6c-1.9-0.2-3.4,1.4-3.3,2.5c0.2,3.8-2.3,7.9,1.5,11.3c1.2,1.1,0.8,3.1,0.6,4.8
		c-0.9,6.8-0.9,13.6-2.6,20.3c-2.2,4.6-6.4,7.5-9.3,11.6c-1.5,2.1-3.7,3.1-6.3,3.3c-6.3,6.6-12.5,13.4-19,19.8
		c-3.2,3.1-6,6.1-6.3,10.9c-0.1,2-1.1,3.1-3.3,2.1c-10.6-4.9-21.9-6.8-33.5-6.7c-3,0-3.5-1.5-2.6-3.8c1.1-2.8,0.6-5.1-1-7.5
		c-1-1.5-1.2-3.4-1.2-5.3c0.2-14.8-0.5-29.6-1.1-44.5c-0.1-2.2-0.1-4.4,1.5-6.1c5.1-5.5,8.6-12.7,16.6-14.8c1.2-0.3,1.6-1.5,2.4-2.4
		c5.7-6.5,13.2-11.3,21.3-12c5.9-0.6,6.9-3.5,8.6-7.1c0.8-1.8,1.3-3.8,1.9-5.7c0.9-3,2.8-4.6,6.1-4.9c9.2-0.8,16.5,5.7,18.7,16.9
		c0.6,3.9,1.1,7.8,1.8,11.6c0.2,1,0.2,2.6,2.1,1.5l0,0c3.3-1.5,6.3-3.5,9.1-5.7c0-1.5,0.5-2.5,2.2-2.2c0.9-0.6,1.9-1.2,2.8-1.8
		c0.1-1.1,0.3-2.1,1.9-1.3c4.4-3.3,8.7-6.7,13.1-10C315.3,245.1,317.3,244.3,319.4,245.3z"/>
	<path class="st5" d="M422.8,689c-5.4,2-10.7,4.7-16.6,5.1c-3.4,0.7-6.4-0.3-9.3-2c-4.3-2.5-8.2-5.6-12.4-8.3c-3.1-2-3.8-4.5-2.7-8
		c2.5-8,6-15.5,9.2-23.1c1.6-3.7,3.8-7,7-9.5c22.7-9.5,45.6-18.7,69.2-26c10.6,11.6,16.2,25.3,17.3,40.9
		C465.5,671.5,444.5,680.8,422.8,689z"/>
	<path class="st5" d="M596.1,725.5c1.8-2.2,3.7-2.1,5.4,0.6c2.7,4.3,4.7,8.7,4.8,13.9c1.2,2.2,1.7,4.6,2,7.2
		c2.6,28.5,6.2,56.9,9.8,85.3c2.6,20.1,5.8,16.7-15,26.9c-5.9,2.9-6.8,2.4-8.6-4.2c-6.4-23-10.6-46.4-13.1-70.2
		c-0.9-8.7-2.2-17.5-1.3-26.3C581.4,745.7,588.2,735.3,596.1,725.5z"/>
	<path class="st2" d="M288.5,317.6c-2,18.9-1.9,37.8-1.7,56.7c0,6.1-0.8,12.3,1.8,18c-1.7,2.3,0.1,4.1,0.7,6.1
		c-1.4,4.2,0.7,7.8,1.7,11.6c0.3,1.9,0.9,3.8,1.5,5.6c0.9,2.5,2.6,4.9,1.3,7.8c-1.1,1.1-2,2.3,0.1,3.3c0.9,0.5,0.9,1.2,0.7,2.1
		c-0.9,1.6-1.5,3.3-1.4,5.2c0.6,7.4,4.2,14,5.1,21.4c-1.9-2.6-3.2-5.4-4.7-8.1c-1.5-2.7-1.9-6-4.4-8.2c-2,0-2.8-1.9-4.2-2.8
		c-1.9-3.6-0.4-8.4-3.8-11.8c-0.6,5.9,0.5,15.1,2.3,18.2c-0.4,1.8-1.3,3.4-1.2,5.4c2.6,15.8,9.8,29.5,19.6,41.9
		c1.8,2.3,3.8,4.4,6.1,7c-2.8-0.1-4.1-1.7-5.6-2.9c-9.7-7.6-16.8-17.4-22.7-28.1c-1.2-2.1-1.6-6.5-4.3-5.5c-2.9,1.1-1.2,5.1-0.6,7.7
		c4.9,21.9,3.9,43.2-5.7,63.8c-0.6,2.3,1.1,5.3-1.9,7c-1.3-0.5-3.6,0-2.7-2.8c0.6-1.8,0.2-3.6-0.1-5.4c0.8-4.7-0.9-9.1-1.5-13.6
		c0.6-0.9-0.3-2-0.5-2.3c-1.8-3.3,2.7-4.7,2.1-7.7c-1.5-8.4,1.7-17.2-3-25.3c0.7-3.5,3.3-6.9-0.3-10.3c0.5-17.1,1.5-34.1,2.4-51.2
		c1.1-7.8,2.1-15.7,2.4-23.6c2.5-21.1,5.1-42.2,7.6-63.2c0.3-2.2,1.4-4.6-0.5-6.6c4.2-5.1,9.4-9.2,12.8-15
		C289.5,312.8,288.8,315.5,288.5,317.6z"/>
	<path class="st1" d="M341.3,30.2c3.2-2.8,3.8,1.6,5.9,2.2c2.4-3.5,1.2-9.1,6.2-11.1c1.6-0.7,3.1-1.5,4.6-2.2
		c23.1-11,47.2-12.8,72-7.6c1.1,0.2,1.8,0.8,2.2,1.7c0.9,3.7,1.6,7.5,3.1,11.1c1.1,2.5,1.1,6.3,4.5,6.5c2.9,0.1,3.2-3.4,4.5-5.5
		c0.8-1.3,1.6-2.5,2.4-3.8c1-1.6,2.3-1.6,3.9-1.2c4.9-0.6,9.3,1.2,13.3,3.5c15.7,9,25,23,30.4,39.8c0,0.1-0.4,0.4-0.6,0.6
		c-10.2-10.8-21.9-19.3-36.3-23.8c-3.9-1.2-7.3-1.3-10.6,1.8c-9.6,8.8-9.7,8.8-14.7-4c-1-2.7-2.5-4.5-5.6-5
		c-13.7-1.9-27.4-3.5-41.3-2.8c-13.9,0.8-28,1.7-35.4,16.7c-1.1,2.3-3.3,2.6-4.5-0.1c-2.6-5.9-6.3-4.2-10.6-2.2
		c-4.8,2.3-8.3,6.7-13.5,8.3C326.7,44.4,333.7,37.1,341.3,30.2z"/>
	<path class="st6" d="M489.5,418.8c-1.3-0.7-1.1-2.3-1.1-3.6c0.1-5.5,0.2-11,0.2-16.4c0-1.4,1.1-3.3-0.6-4.1c-1.5-0.7-2.6,1-3.8,1.9
		c-5.5,4.1-11.4,7.4-17.5,10.5c-3.1,1.6-5.5,1.2-8.1-1.1c-4.4-4.1-8.3-8.6-12-13.3c-1.5-1.9-2.9-3.7-5.6-3.6c0-0.2,0-0.5,0.1-0.7
		c1.2-7.4,2.9-14.7,5.2-21.9c1.5-0.8,2.6-0.3,3.1,1.2c1.8,5.3,6.3,8,10.5,11c2.9,2.1,6.1,2.5,9.5,1.3c4.2-1.5,8.2-3.6,12.3-5.4
		c5.6-2.4,8.1-6.5,8.6-12.3c0.9-10.9,2-21.9,2.9-32.8c0.4-4.7-1.5-6.5-6.2-6c-4.6,0.5-9.3,0.4-13.9,1.1c-2.2,0.4-5.1,1-6-2.5
		c2.8-6.9,5.8-13.8,8.5-20.7c1.4-3.4,4-4.7,7.3-5c5.6-0.4,11.2-0.6,16.9-1c2.8-0.2,4.9,1,6.1,3.5c2.6,5.5,6.7,9.9,10.4,14.5
		c-16.1,26.4-20.7,55.6-22,85.8c0.3,6-0.6,11.9-1.1,17.8C491.9,417.5,491.3,419.8,489.5,418.8z"/>
	<path class="st7" d="M366.5,405.2c-9.3,6.7-9.7,6.6-12-4.7c-1-5-3-7.9-8.4-7.5c-0.1,0-0.2-0.1-0.2-0.4c0-0.2,0.1-0.3,0.5-0.4
		c2.9-0.2,5.6,0,7.6-3.3c7.7-12.5,15.6-24.8,23.8-36.9c2.6-4,3.6-7.7,1.8-12.1c-1.3-3.1-0.8-6,0.7-9c4.2-8.5,8.2-17.1,12.4-25.6
		c0.6-1.3,0.9-3.2,3.3-3.6c1.2,8.4,1.8,16.8,3.7,24.8c1.8,7.4-0.3,12.9-5.7,17.7c-1.9,1.6-3.5,3.3-3.7,6.2
		c-1.1,13.6-2.5,27.1-3.8,40.7C379.8,395.8,373.2,400.5,366.5,405.2z"/>
	<path class="st5" d="M181.3,462.6c-1.9,1.4-4.6,3.2-5-1.4c-0.9-2.7-0.9-5.5-0.6-8.4c0.6-6.6,1.1-13.3,1.6-19.9
		c1.9-22.7,3.9-45.4,7.5-68c1.6-9.7,1.7-9.7,11.5-11c7.3-1,8.5,0.2,7.4,7.4c-2.4,15-3.9,30.1-5.6,45.1c-1.6,14.2-3.2,28.4-4.8,42.6
		C191.3,455.3,186.2,458.9,181.3,462.6z"/>
	<path class="st6" d="M363.2,695.4c-3.4-2.7-7.1-5-10.7-7.3c-3.5-2.2-4.1-4.5-1.6-8.2c4.7-7.1,9.5-14.1,14.7-20.8
		c1.4-1.7,2.9-3.2,5-4c9.2-4,18.3-7.9,27.5-11.9c-4.4,10.4-9.2,20.7-13.2,31.3c-1.5,3.9-0.6,6.1,2.7,8.3c6.1,4.1,12.2,8.1,18.8,11.4
		C392.1,700.7,377.9,707.3,363.2,695.4z"/>
	<path class="st6" d="M579.4,756.4c-0.3-14.9-1.4-29.9,4.6-44.3c3.1-7.5,5.2-15.5,7.8-23.2c0.5-1.5,0.6-3.3,2.6-4.5
		c1.6,2.5,3.2,5,4.7,7.4c4.8,8.7,5.4,18.5,6.9,28c0.1,3.1,0.3,6.3,0.4,9.4c0.1,3.6,1.8,7.1-0.2,10.7c-1.4-2.8-2.9-5.6-4.4-8.4
		c-3.3-5.9-3.6-6-7.5-0.1c-5.7,8.6-10.3,17.8-14.3,27.2C579.9,758,579.4,757.2,579.4,756.4z"/>
	<path class="st6" d="M190.7,478.4c-0.5,4.4,0.1,9.2-2.7,13c-3.6,5-7.6,9.7-11.4,14.5c-0.7,0.9-1.4,2.2-2.8,1.7
		c-1.2-0.4-1.5-1.8-1.5-3c-0.1-1.7-0.1-3.3,0-5c0.7-10.8,1.5-21.6,2.3-32.4c0.2-2.1,0-4.4,1.7-6.1c2.2,1.6,3.3-0.4,4.6-1.5
		c4.2-3.5,8.3-7.1,12.4-10.7C193.3,458.9,191.7,468.6,190.7,478.4z"/>
	<path class="st6" d="M272.7,637.4c0.1,1.4,0.1,2.8,0.1,3.9c1.2-1.7-2-5,1.7-6.4c1.4,4,0.7,8.2,0.9,12.3c0.1,2,0.1,4.2,2.1,5.2
		c7.9,4.2,10.9,12,14.3,19.6c5.2,11.8,5.3,11.7-4.2,20.1c-0.2,0.2-0.5,0.5-0.7,0.7c-1.6,1.7-2.9,1.2-3.9-0.7c-3-6.1-7.2-11.6-9.6-18
		c-2.8-6.7-6.1-13.3-7-20.5c-0.3-2.7-3.2-5.7-0.3-8.6c3.6,1.4,4.6-0.1,4.2-3.6c-0.2-1.8,0-3.6,0-5.4
		C272,635.1,272.5,635.7,272.7,637.4z"/>
	<path class="st6" d="M339.8,393.1c-4.4,0.6-9.2-1.2-13.2,2.1c-4,2.3-7.1,5.8-10.6,8.8c-3.2,2.6-7.8,1.5-11.2,4.2
		c-2.7,2.1-4.9,0.5-6.9-1.9c-2.1-2.6-2.1-6.5-5.2-8.5c2.5-7.7,6-14.9,11.6-20.8c5.9,3.2,11.6,2.9,17.2-0.9c1.9-1.3,4.2-2.1,6.2-3.1
		c1.8-0.9,3.1-0.7,4.3,0.9c-0.6,4.2-1.1,8.5-1.8,12.7c-0.6,4.1,1.1,5.8,5.2,5.6c3.6-0.2,7.2,0,10.9,0c-0.1,0.2-0.2,0.5-0.3,0.7
		C344,393,341.9,392.8,339.8,393.1z"/>
	<path class="st8" d="M269.5,618.7c0.2-14.2,0.1-28.5-0.5-42.8c-0.5-12.2,0.2-24.5-1.8-36.7c-0.3-2.6,0.2-4.9,1.9-7
		c1.5,4,3.2,8,3.3,12.5c0.4,20.4,0.4,40.9,1.6,61.3c0.6,9.7-3,19.4,0.4,28.9c-0.8,4.4,0.8,9-1.3,14c-3-4.3-0.9-9-2.7-12.8
		C267,630.4,269.4,624.5,269.5,618.7z"/>
	<path class="st2" d="M363.1,16c17.6-9.2,36.6-13.3,56.3-15c3.1-0.5,6.3,0,9.4-0.3c3.5,0,2.2,0.4,3,1.3c1.1,1.3,0.5,12.9-0.6,14.2
		c-0.2,0.2-0.6,0.1-1,0.1c-1.5-2-3.6-2.8-6-3.1c-10.5-1.6-21-2.4-31.6-1.2c-11.8,1.3-23.1,4.1-34.5,7.1
		C359.7,18,361.3,16.9,363.1,16z"/>
	<path class="st9" d="M433.5,1.3c0,0,5.2,5.2,7.8,8.3c3.1,3.6,7.4,6.1,9.3,10.7c-3.3,4.6-6,9.6-8.2,14.8c-1.7,3.9-3.1,3-4.8,0.1
		c-3.5-5.9-6-12.2-7.4-18.9c-0.2-1.8-0.4-3.6-0.6-5.4c0.3-7.8,0.6-6.5,0.7-10.8L433.5,1.3z"/>
	<path class="st9" d="M335,10.2c-0.2-1.4-1-3.2,0.6-4.2c1.7-1,2.7,0.8,3.7,1.8c4.7,4.4,9.4,9,14.1,13.5c-1.6,6-3.1,11.9-4.8,18.2
		c-4-2.6-4.1-7.1-7.3-9.3C339.6,23.4,336,17.2,335,10.2z"/>
	<path class="st5" d="M375.7,606.6c0.1-4.4,4.6-9,9.1-9.1c4.9-0.1,9.2,4.3,9.2,9.3c0,5.2-4,9.2-9.2,9.1
		C379.7,615.9,375.6,611.6,375.7,606.6z"/>
	<path class="st5" d="M288.1,600.4c4.9,0,8.9,4,8.9,8.8c0,5-3.7,9.2-8.4,9.5c-5.1,0.2-9.1-3.7-9.2-9
		C279.3,603.9,282.6,600.4,288.1,600.4z"/>
	<path class="st5" d="M285.1,511.6c5,0,9.1,4.2,9,9.3c-0.1,5-4,8.9-8.9,9c-5.4,0-8.9-3.7-8.9-9.2
		C276.5,515.5,280.2,511.6,285.1,511.6z"/>
	<path class="st5" d="M377,519.9c0.1-5.1,3.9-8.7,9-8.6c5,0.1,9,4,9,8.8c0,4.8-4,8.8-8.9,8.9C380.7,529,376.9,525.2,377,519.9z"/>
	<path class="st3" d="M264.3,498.5c0,6.8,1.7,13.5,1.2,20.3c0.6,4.2,1.6,8.4-1,12.3c-3.2-9.4-5.4-19-6.2-28.9
		c-0.8-6.4-0.6-12.8,0.1-19.1c0.2-3,1.2-5.8,2-8.7c0.5-2,1.2-2.7,3.1-2.1c2.3,2.5,1.5,5.3,1,8.1
		C264.7,486.3,264.3,492.4,264.3,498.5z"/>
	<path class="st10" d="M569,441.9c-2.8-0.1-5.6-0.8-8.3-1.3c-1.1-0.2-2.4-0.6-2.5-2c-0.1-1.5,1.3-1.8,2.4-2.1
		c2.5-0.8,5.2-1.3,7.7-2.1c3.9-1.3,8.3-1.5,11-5.1c2.4,5.5,4.6,11,6,16.8C580.6,442,574.8,442,569,441.9z"/>
	<path class="st3" d="M293.3,434.2c-0.4-1.7-0.7-3.4-1.1-5.1c-0.1-1.4-0.2-2.9-0.1-4.3c0.6-0.9,1.5-1.6,2.2-2.5
		c6.2-7.9,12.3-15.9,21.2-21.1c3.4-2.4,6.9-4.8,11-6C315.5,408.2,304.4,421.2,293.3,434.2z"/>
	<path class="st5" d="M316.1,417.5c4.1,0.1,5.9,2.5,6,6.4c0.1,4.7-3.9,9-8.3,8.9c-3.7-0.1-5.7-2.2-6-5.3
		C307.7,421.9,311.6,417.3,316.1,417.5z"/>
	<path class="st11" d="M271.7,672.4c-7.3-7.7-6.6-18-8.9-27.4c-0.2-0.8-0.3-1.9,0.8-2c1.3-0.1,1.8,1.3,2.6,2.1
		c1.9,6.5,3.8,13,5.5,19.5c0.8,3.1,2.7,6.1,1.7,9.6C272.9,673.6,272.3,673,271.7,672.4z"/>
	<path class="st12" d="M647.5,581.1c-0.4,0.5-0.8,0.5-1.2,0c-7.7-20.1-17.1-39.5-25.9-59.1c0.3-0.4,0.7-0.7,1-1.1
		C631.3,540.5,640.2,560.5,647.5,581.1z"/>
	<path class="st8" d="M426.8,389.4l-0.3,0c-1.6-0.5-3.6-0.9-2.4-3.2c3.8-7.1,7.7-14.1,11.6-21.1c-0.5,5.6-2,10.8-3.6,16
		c-1,3.2-2.2,6.3-5.1,8.4L426.8,389.4z"/>
	<path class="st11" d="M400.4,431.1L400.4,431.1c2.9-4,4.4-9.1,9.1-11.9c3.6,3,2.8,6.3,0.8,9.8c-2.3,3.8-6,4.2-10,4.2
		C399.5,432.4,399.8,431.8,400.4,431.1z"/>
	<path class="st13" d="M264.3,421.6c0.5,5.6-1.4,10.9-1.5,16.4c0,0.9,0.9,3.7-2.2,3c-0.6-0.6-0.9-1.3-0.6-2.1c1-14.1,3-28.1,6.1-42
		c1.4,7.8,0.4,15.5-0.7,23.2C264.8,420.5,264.3,421,264.3,421.6z"/>
	<path class="st14" d="M401.1,428.9c8.3-12.9,17-25.5,26.1-37.9c1.3,0.7,2.3,1.5,1.4,3.1c-1.7-0.2-2.3,1.2-3,2.2
		c-5.4,7.6-10.7,15.2-16.1,22.9c-3.5,3.7-5.2,8.6-9.1,12C400.5,430.4,400.6,429.6,401.1,428.9z"/>
	<path class="st15" d="M262.7,442.2c-0.9,10.3-0.4,20.7-2.1,30.9c-0.5,3.3-1.5,6.5-1.4,10c-1.6,6.3-1,12.8-1,19.2c-1-2-1-4.2-1-6.3
		c0-8.8-0.3-17.5,0.2-26.3c0.5-10.2,0.6-20.5,2.7-30.6c0.4,0.4,0.7,0.8,1.1,1.1C262.4,440.2,262.8,441.3,262.7,442.2z"/>
	<path class="st16" d="M660.5,622.1c5.8,19.2,8.3,38.9,9.4,58.8c-2.1-19.9-5.7-39.5-10.6-58.8C659.8,621.1,660.2,621.2,660.5,622.1z
		"/>
	<path class="st17" d="M389,452.9c-3,7.6-6.2,15-8.1,23c-1.8,7.7-3.4,15.4-5.4,24.4c0.3-13.4,6.8-37.4,12.7-48.2
		C388.6,452.2,388.9,452.4,389,452.9z"/>
	<path class="st10" d="M646.3,581.1c0.4,0,0.8,0,1.2,0c5.7,13.2,9.8,27,13,41c-0.4,0-0.8,0-1.1,0C655.9,608.1,651,594.6,646.3,581.1
		z"/>
	<path class="st18" d="M282.5,448.3c-0.4-1.8-0.8-3.5-1.3-5.3c-0.4-1.5,0.1-3.3,0.7-4.3c1-1.8,1.6-5.6,5.4-3.6
		c1.2,1.1,1.8,2.6,2,4.1C287.1,442.3,284.8,445.3,282.5,448.3z"/>
	<path class="st19" d="M423.3,535.9c-1.9-3.1-3.2-6.4-3.9-10c0.3-0.6,0.6-1.3,0.9-1.9C421.8,527.9,423,531.8,423.3,535.9z"/>
	<path class="st20" d="M629.9,791c1.7-4,3.4-8,5.1-12c0.4,0.3,0.8,0.7,1.2,1C634.8,784,633,787.8,629.9,791z"/>
	<path class="st21" d="M620.7,737c-0.4-0.1-0.7-0.3-1.1-0.4c1.2-3.2,2.3-6.4,3.5-9.6c0.3,0.3,0.7,0.6,1,1
		C623,731,621.9,734,620.7,737z"/>
	<path class="st14" d="M394,440.9c0.3-0.1,0.6-0.2,0.8-0.4c-0.1,0.3-0.2,0.6-0.3,0.9c-1.8,3.9-3.7,7.7-5.5,11.5
		c-0.3-0.3-0.5-0.5-0.8-0.8C389.8,448.1,391.5,444.3,394,440.9z"/>
	<path class="st14" d="M394.5,441.3c-0.2-0.2-0.4-0.3-0.6-0.5c1.7-3.5,3.1-7.2,6.4-9.7c-0.1,0.7-0.1,1.3-0.1,2
		C398.3,435.9,396.4,438.6,394.5,441.3z"/>
	<path class="st5" d="M447.4,363.3c0.7-2,1.1-4.2,2.1-6.1c6.3-11.5,12-23.4,17.7-35.2c8-0.1,16-0.7,23.8-2.2
		c4.7-0.9,5.6,0.9,5.2,4.9c-1,11.3-1.7,22.6-3,33.8c-1.9,17.2,1.9,12.7-13.9,20c-17.6,8.2-12.7,9.2-29.3-4.4c-2.3-1.9-3.3-4.1-3-6.9
		C446,365.8,446.6,364.5,447.4,363.3z"/>
	<path class="st22" d="M581.4,426c-1.8-6.2-3.8-12.4-5.5-18.7c-9-32.6-13.8-65.8-14-99.6c0-3.8,0.9-7,4.3-9.1c1.3,1.4,1.1,2.8,1.2,4
		c2.8,28.2,6.3,56.3,11,84.2c2.2,13.1,6.8,25.8,6,39.4C583.2,427.6,582.3,426.8,581.4,426z"/>
	<path class="st23" d="M319.3,228.2c9.3-4.3,17.9-2.2,22.1,5.4c4,7.3,1.7,15.3-6,20.6c-1.1,2.2-2.2,4.2-5.1,4.4
		c-3.7,0.1-7.2-0.3-10.5-2c-2-1-3-2.2-2.5-4.4c0.5-1.3,2.2-2.3,1.1-3.9c-0.8-1.3-2-0.5-3.1-0.1C310.7,241.7,312.2,234.7,319.3,228.2
		z"/>
	<path class="st3" d="M501.7,219.3c-0.9,0.7-1.9,1.8-3.1,1.1c-1.5-0.8-0.8-2.4-0.7-3.6c1.1-11.8,2.4-23.5,3.5-35.3
		c0.3-3.5,2.1-5.4,5.3-6.5c8.3-2.9,13.6,1.3,13.6,12.2C518.6,199.5,512.8,210.9,501.7,219.3z"/>
	<path class="st22" d="M525.3,303.1c8.5,3.3,13.9,1.5,18.5-6.2c0.9-1.4,1.8-2.9,2.2-4.5c1-4.9,4.7-6.9,8.7-8.8
		c2.7-1.3,3.7-0.5,3.6,2.3c-0.1,5.3-0.1,10.6-0.2,16c0,1.3-0.4,2.7-1.1,3.8c-8.3,13.4-26.4,16-38.6,5.6
		C517.7,305.9,520,303.3,525.3,303.1z"/>
	<path class="st24" d="M510.2,301.4c-1.2-2-3.6-4.4-0.5-6.4c2.6-1.6,5.6-1.7,8.1,0.9c2.4,2.5,5,4.8,7.5,7.2c-2.3,2.7-4.6,5.4-7,8.1
		C514.6,308.7,512.4,305,510.2,301.4z"/>
	<path class="st25" d="M286.3,269.1c-1.1-1.4-1.1-3.1-1.1-4.8c0.7-17.4,3.5-34.4,8.1-51.2c0.3-1.2,0.3-2.7,2.5-3.2
		C292,229.8,288.7,249.4,286.3,269.1C286.3,269.1,286.3,269.1,286.3,269.1z"/>
	<path class="st6" d="M541.4,292.5c-4.2,3.7-8.1,7.7-14,8.6c-1.6-1.1-3.4-2.1-4.8-3.4c-2.8-2.8-2.4-4.4,1.5-5.4
		c5.8-1.4,11.6-2.6,17.5-3.8c1.2-0.3,3.2-1.2,3,1.6C543,290.4,542.3,291.7,541.4,292.5z"/>
	<path class="st24" d="M461.2,322c2.5-7.6,5-15.2,7.5-22.8c0.5-1.6,0.7-4.3,3.2-3.5c2.6,0.8,1.6,3.3,1,5.1
		c-2.6,7.2-5.2,14.4-8.6,21.2C463.2,322.8,462.2,323.7,461.2,322z"/>
	<path class="st18" d="M493.8,220.9c-0.3,1.8-1,3.9-3.4,3.4c-2.2-0.5-1.7-2.6-1.3-4.2c2.2-9.1,4.5-18.3,6.7-27.4
		C496.2,202.2,495.5,211.6,493.8,220.9z"/>
	<path class="st26" d="M299.7,239.3c0.2-5,1.3-10,3.9-15.2c-0.5,11.8-0.9,22.9-1.4,34c-0.6,0.4-1.2,0.9-1.9,1.3
		C298.2,252.8,299.4,246,299.7,239.3z"/>
	<path class="st26" d="M540.4,297.4c-3.8,5.2-7.4,6.1-13.1,3.7c1.5-1.4,2.9-3.1,4.7-4.3c4-2.6,7-6.9,12.5-6.7
		C543.2,292.6,542.1,295.2,540.4,297.4z"/>
	<path class="st8" d="M444.6,383.2c-0.3,2.2-0.9,4.2-3.3,5.1c-1.4-0.5-2.4-1.5-2-3c2.1-7.5,3.3-15.4,8.1-21.9
		c-0.1,1.3-0.2,2.5-0.3,3.8C446.3,372.5,445.5,377.8,444.6,383.2z"/>
	<path class="st27" d="M562.3,280.7c0-1,0.4-2.1,1.6-2.1c0.4,0,1.1,0.8,1.2,1.3c0.2,5.9,3.2,12.2-3,17.8
		C561.2,291.6,562,286.2,562.3,280.7z"/>
	<path class="st28" d="M587.1,441.4c-2.6-5.1-3.9-10.4-5.7-15.5c1,0.1,1.9,0.1,2.8,0.2C589,430.2,590.5,437,587.1,441.4z"/>
	<path class="st29" d="M454.7,343.3c-0.4-0.2-0.8-0.3-1.1-0.5c2.6-6.9,5.1-13.9,7.7-20.8c1,0,2,0.1,3.1,0.1
		C461.1,329.2,457.9,336.3,454.7,343.3z"/>
	<path class="st30" d="M297.6,251.9c0,3.1,0,6.2,0,9.4c-0.7,0.7-1.5,1.4-2.2,2.2C293.4,259.2,296,255.6,297.6,251.9z"/>
	<path class="st2" d="M345.6,269.6c1.8,3.1,4.6,4.4,8.1,5c6.5,1.1,12.9-0.9,19.4-0.5c3.1,0.2,6,0.6,7.6,3.7c0.6,1.2,1.3,2.9-0.4,3.4
		c-4.8,1.4-3.7,5.2-4,8.6c-0.4,6.8,0.9,13.6-0.9,20.3c-2.2-0.8-4.1,2.5-6.5,0.6c-4.7-4.4-6.4-10.6-10-15.7c-0.2-0.3-0.2-0.5,0-0.5
		c0.7-0.1-0.5-0.6-0.1,0c2.5,4.6,4.9,9.3,7.8,13.8c0.9,1.4,2.2,2.8,1.5,4.7c-3.7,3.1-8.4,4-13,4.8c-9.5,1.7-18.9,3.8-28.6,1.8
		c-2.8-0.3-2-3.1-3.1-4.6c-6.8-9-10-19.5-12.6-30.3c2,8.6,3.5,17.4,6.8,25.7c1.1,2.9,1.1,5.4-0.4,8c-0.9,1-2.1,0.8-3.3,0.7
		c-3.3-1.3-2.4-4.8-3.5-7.2c-4.9-10.1-5.9-21.2-7.9-32.2c-1-5.5,0.1-11.2-1.1-16.6c5.5-3.4,10.1-8.1,15.9-11
		c5.7,3.9,11.7,5.3,18.2,2.1C337.7,260.1,342.5,264.3,345.6,269.6z"/>
	<path class="st13" d="M369.6,309.1c2,0.1,4.8-3.8,5.8,1.1c-0.8,2.9-1.2,5.8-2.3,8.6c-3.3,8.6-8.8,14.5-18.8,15
		c-4.2,0.2-8.6-0.1-12.7,1.5c-1.3,0.6-2.1,1.9-3.6,2.2c-5.6,1-8.8,4.8-11.2,9.6c-1.2,2.4-2.5,4.7-5,6c-8.6-1.4-10.1-4-7-11.6
		c1.2-2.8,0.1-4.4-3-4.5c-3.4-0.1-5.1,1.9-6,4.9c-1.2,4.3-2,8.7-2.8,13.1c-1.1,6.6-3.9,13.2-0.9,20c0.4,1,0.1,2-0.4,2.8
		c-3.7,6.7-7,13.6-11.2,20c-0.9,1.4-2,3.4-4.2,1.4c-0.3-1.8-0.6-3.5-0.9-5.3c1.8-7.3,2-14.9,3.2-22.3c2.6-16.4,5.1-32.8,10.7-48.6
		c1.7-4.7,4.3-7.8,9.4-8.4c0.8-0.2,1.5-0.5,2.3-0.6c1.7,0.4,1.9,2.3,3.2,3.2c0.8-0.4,1.5-0.9,2.2-1.3c3.9-2.3,7.3-0.6,10.7,1.3
		c8.5,1.5,16.8-0.1,25.1-1.4c4.9-0.8,9.8-1.6,14-4.6C366.9,309.5,367.9,308.9,369.6,309.1z"/>
	<path class="st5" d="M332.1,373.9c-4.6,2.3-9.4,4.3-13.8,7c-5.1,3.1-9.2,2.8-13.1-1.7c-2.8-1.2-1.8-3.2-0.8-4.9
		c3.5-6.2,6.5-12.7,10.1-18.9c1.6-2.9,3.8-4.6,7.1-5.1c2.1-1.8,2.8-4.5,4-6.8c4-7.8,6.7-9.2,15.9-8.3
		C337.7,348,334.6,360.9,332.1,373.9z"/>
	<path class="st22" d="M284.3,378.4c-1.1-22.1,0.1-44.2,1.8-66.3c1.6-6.5,2.3-13.1,2.3-19.8c0.6-0.9,0.1-1.9,0.1-2.9
		c0.5-6.2-0.6-12.8,3.6-18.3c1.5-2.2,3.5-3.9,6-4.7c2,0.3,1.5,1.9,1.6,3.1c1.4,14.4,4.5,28.5,10.1,41.9c0.7,1.6,1,3.1,0.4,4.8
		c-5.6,1.2-7.8,5.2-9.4,10.3c-4.8,15.3-7.6,31-9.7,46.9c-0.9,7.1-2.3,14.1-5.8,20.5C285.1,388.7,284.6,383.5,284.3,378.4z"/>
	<path class="st31" d="M275.2,295.1c-0.2,1.7-1.5,2.9-2.7,4.1c-1.3,1.4-2.9,1.5-4.6,1.1c-2.1-0.5-1.6-2.3-1.6-3.7
		c-0.2-7.5,0-15-0.7-22.4c-0.5-5.8-0.1-11.2,2.5-16.4c0.5-1.1,0.4-3,2.1-2.9c1.8,0.1,2.1,1.8,2.2,3.4c0.3,4,0.8,8,3.2,11.4
		c3.7,5.5,3.7,5.5-1.9,9.8c-0.5,0.4-1.2,0.7-1.6,1.2c-0.9,1.1-3.6,1.7-2.1,3.8c1.5,2.1,2.9,0.2,4.2-0.7c0.8-0.5,1.6-1.1,3.8-2.6
		C276.5,286.7,275.7,290.9,275.2,295.1z"/>
	<path class="st25" d="M308.2,309.6c-4.8-11.6-7.1-23.8-8.8-36.2c-0.4-3-0.9-6.3,0.9-9.3c0.4-0.3,0.7-0.7,1-1c2,1.3,1.7,3.5,1.8,5.4
		c1,16.8,4.2,33.1,11.2,48.6c-0.9-0.7-1.9-1.5-2.8-2.2C309.6,313.6,309,311.5,308.2,309.6z"/>
	<path class="st32" d="M310.3,316.1c-8-15.6-11.4-32.4-12.1-49.8c0.7-0.7,1.4-1.5,2.1-2.2c0,1.8-0.2,3.7-0.1,5.5
		c1.1,15.8,4.9,30.9,11.3,45.3C311.1,315.4,310.7,315.8,310.3,316.1z"/>
	<path class="st33" d="M287.3,279c0-3.6,1.3-6.4,4.9-7.9c-0.9,7.1-2,14.2-3.8,21.2C287.1,288,287.3,283.5,287.3,279z"/>
	<path class="st23" d="M295.3,397.1c0,5.9-2.1,10.7-7.2,14.1c-1.3-3.9-1.5-8-1.8-12.1c4.9-6.4,8.1-13.8,12-20.7
		c0.8-1.4,1.1-2.9,0.3-4.3c-1.6-2.7-1-5.5-0.5-8.3c1.4-7.4,2.8-14.7,4.3-22.1c2.4-11.3,2.9-11.6,14.3-9.2c5.4,1.1,5.8,2.5,2,6.8
		c-4.5,5.2-3.8,7.4,2.9,9c-0.9,0.9-2.2,1.7-2.8,2.8c-4.7,8.6-9.8,17-13.6,26.1C301.4,384.9,298.3,391,295.3,397.1z"/>
	<path class="st31" d="M297.4,400.5c4,6.8,4,6.7,10.9,3.5c2.4-1.1,4.9-2,7.3-2.9c-6.1,7.2-12.2,14.3-18.4,21.5c-1,1.2-1.9,2.8-4,2.4
		c-0.9-0.2-1.3-0.7-0.8-1.6c-1.4-4.1-2.9-8.2-4.4-12.2c0.6-5.6,4.3-9.6,7.2-14.1C296,398.3,296.7,399.4,297.4,400.5z"/>
	<path class="st26" d="M264.4,415.8c0.2,0,0.5,0,0.8,0c0.1,1.4,0.2,2.9,0.3,4.3c-1,15.5-2.2,31-1.3,46.6c0.1,1.9-0.3,3.6-0.8,5.4
		c-1.9,3.4-3.2,7.1-4.2,10.9c-1.1-2.2-0.9-4.5-0.8-6.8c0.3-12.1,1.6-24.1,2.8-36.1C262.2,432,263.3,423.9,264.4,415.8z"/>
	<path class="st26" d="M278.3,423.6c-0.1-1.8,0.8-3.2,1.9-4.4c1.1-1.2,2.5-1.6,3,0.3c1.4,5.2,4.5,10,4.2,15.6c-2,2.6-4,5.2-6.1,7.9
		C278.8,436.8,278.6,430.2,278.3,423.6z"/>
	<path class="st34" d="M266.4,502.6c0.1,5.4,1.1,10.8-0.9,16.1c-2.6-12.8-5.4-25.5-1.1-38.5C267.1,487.5,266.3,495.1,266.4,502.6z"
		/>
	<path class="st35" d="M278.9,402.6c0.4,2.7,2.7,5.4-0.3,8.6C277.3,407.9,277.5,405.2,278.9,402.6z"/>
	<path class="st36" d="M292.3,429c-2-2.3-1.9-5.1-2.5-7.9c1.8,0.2,1.8,1.7,2.8,2.3c0.2,0.5,0.5,1.1,0.8,1.6
		C293.6,426.5,293.1,427.8,292.3,429z"/>
	<path class="st31" d="M309.9,277.7c4.6,13.7,9.4,27.3,17.4,39.5c-3.6,0.2-7.4,1.2-10.7-1.3C311.9,303.5,308.1,291.1,309.9,277.7z"
		/>
	<path class="st30" d="M356,287.9c4.5,7.1,8.5,14.5,13.6,21.2c-0.8,1.2-1.9,1.8-3.3,2C361.6,303.9,357.7,296.4,356,287.9z"/>
</g>
</svg>
