<?xml version="1.0" encoding="utf-8"?>
<!-- Generator: Adobe Illustrator 24.1.0, SVG Export Plug-In . SVG Version: 6.00 Build 0)  -->
<svg version="1.1" id="Layer_1" xmlns="http://www.w3.org/2000/svg" xmlns:xlink="http://www.w3.org/1999/xlink" x="0px" y="0px"
	 viewBox="0 0 695.16 991.04" style="enable-background:new 0 0 695.16 991.04;" xml:space="preserve">
<style type="text/css">
	.st0{fill:#3D3D3D;}
	.st1{fill:#ECECEC;}
	.st2{fill:#D1D1D1;}
	.st3{fill:#EAEAEA;}
	.st4{fill:#595959;}
	.st5{fill:#494949;}
	.st6{fill:#BFBFBF;}
	.st7{fill:#858585;}
	.st8{fill:#EBEBEB;}
	.st9{fill:#6E6E6E;}
	.st10{fill:#ACACAC;}
	.st11{fill:#4A4A4A;}
	.st12{fill:#C2C2C2;}
	.st13{fill:#B9B9B9;}
	.st14{fill:#B8B8B8;}
	.st15{fill:#A7A7A7;}
	.st16{fill:#929292;}
	.st17{fill:#969696;}
	.st18{fill:#E9E9E9;}
	.st19{fill:#A8A8A8;}
	.st20{fill:#9E9E9E;}
	.st21{fill:#A6A6A6;}
	.st22{fill:#616161;}
	.st23{fill:#ADADAD;}
	.st24{fill:#C0C0C0;}
	.st25{fill:#666666;}
	.st26{fill:#636363;}
	.st27{fill:#646464;}
	.st28{fill:#AEAEAE;}
	.st29{fill:#5A5A5A;}
	.st30{fill:#696969;}
	.st31{fill:#626262;}
	.st32{fill:#C9C9C9;}
	.st33{fill:#CDCDCD;}
	.st34{fill:#656565;}
	.st35{fill:#676767;}
	.st36{fill:#767676;}
</style>
<g>
	<path class="st0" d="M328.86,991.04c-4.29-4.33-9.81-6.85-14.9-9.99c-3.53-2.18-3.89-4.13-0.45-6.74
		c18.45-14.01,36.41-28.63,53.44-44.35c16.95-15.64,32.86-32.15,43.9-52.75c9.09-16.96,11.68-35.32,11.89-54.13
		c0.3-26.81-0.76-53.65,3.07-80.33c2.91-20.32,6.9-40.42,12.86-60.06c2.33-7.69,7.46-14.12,11.76-20.83
		c25.96-40.5,55.74-78.05,87.81-113.86c15.63-17.45,31.95-34.01,51.98-46.41c13.99-8.66,28.69-15.43,45.5-16.76
		c25.05-1.99,48.19,13.07,55.83,37.18c5.07,16,4.33,32.26,0.59,48.4c-2.95,12.73-4.21,25.54-4.45,38.61
		c-0.54,29.48-2.72,58.86-5.54,88.22c-4.05,42.13-9.31,84.11-15.35,125.99c-1.78,12.36-3.91,24.67-5.89,37.01
		c1.49,1.47,2.21,3.26,1.93,5.33c-0.84,6.08-1.55,12.21-3.11,18.15c-2.22,8.48-9.16,13.37-17.95,13.91
		c-7.9,0.49-15.23-1.41-22.24-4.52c-15.14-6.73-28.8-15.81-41.17-26.83c-0.8-1.14-1.04-2.46-1.01-3.8
		c0.32-13.64-0.18-27.25-1.02-40.86c-0.87-13.95-2.37-27.84-3.5-41.77c-1.01-12.43-2.8-24.82-2.45-37.32
		c0.18-6.4-1.69-12.73-0.5-18.56c-0.27,0.75-0.07,2.12-0.58,3.51c-8.9,24.22-15.78,49.16-25.65,73.03
		c-10.43,25.21-23.25,49.04-41.34,69.74c-3.74,4.27-7.82,8.19-11.79,12.22c-6.9,7.03-6.9,8.27,1.32,13.97
		c19.3,13.38,38.46,26.96,57.44,40.77c6.44,4.69,13.14,9.06,19.13,14.33c1.29,1.14,2.55,1.05,3.83,1.51
		c10.18,9.3,21.9,16.58,32.8,24.93c3.94,3.02,8.03,5.84,11.86,9.02c1.39,1.15,2.53,2.25,0.9,4.03
		C521.5,991.04,425.18,991.04,328.86,991.04z"/>
	<path class="st1" d="M617.82,991.04c-14.07-10.45-28.15-20.9-42.22-31.36c-1.59-1.18-3.13-2.44-4.69-3.67
		c-2.01-2.71-2.45-5.65-2.07-9.04c2.07-18.63,4.69-37.22,3.52-56.07c-0.53-8.63-1.43-17.24-1.06-25.92
		c0.18-4.16,1.34-7.85,4.02-11.02c0.94-1.11,1.94-2.54,3.71-1.85c1.56,0.61,1.19,2.16,1.3,3.47c0.28,3.11-0.67,6.28,0.56,9.33
		c13.32,11.43,27.69,21.18,44.19,27.49c3.42,1.31,6.92,2.36,10.59,2.69c13.8,1.25,20.09-3.56,22.4-17.15c1-5.89,1.9-11.8,2.85-17.7
		c6.62,3.08,9.17,10.4,6.2,18.69c-5.07,14.16-8.77,28.64-10.83,43.54c-1.88,13.57-3.28,27.31-1.28,40.82
		c1.4,9.44,0.91,18.51-0.2,27.75C642.48,991.04,630.15,991.04,617.82,991.04z"/>
	<path class="st2" d="M178.78,313.39c-4.31,2.47-8.33,5.52-13.43,6.39c-8.87,1.51-16.38-1.43-23.15-6.9
		c-1.4-1.13-2.74-2.34-4.04-3.46c-1.66,0.8-1.21,2.12-1.25,3.19c-1.35,38.17-7.92,75.41-19.87,111.7c-0.52,1.57-0.81,3.22-1.2,4.83
		c1.5,6.87-1.86,11.99-6.04,16.83c-3.09,7.97-2.27,16.42-2.64,24.64c-1.65,36.41-1.42,72.87-1.39,109.31
		c0.02,22.88-2.3,45.49-6.77,67.9c-1.1,5.52,1.48,10.77,0.53,16.35c-1.56,9.18-2.39,18.47-3.54,27.72c1.99,1.35,1.46,3.23,0.76,4.87
		c-2.77,6.47-3.53,13.34-4.45,20.21c-0.22,1.62,0.22,4.6-3.23,2.97c-5.08-27.69-5.53-55.61-4.33-83.63
		c1.8-41.87,7.73-83.21,15.5-124.33c0.15-0.78,0.27-1.57,0.47-2.72c-1.9,1.28-1.83,3.07-2.3,4.53
		C85.71,554.19,74.52,595,67.65,636.81c-4.97,30.27-3.13,60.43,4.35,90.21c0.26,0.96,0.13,1.51-1.03,0.98
		c-7.42-19.59-10.86-40.06-13.73-60.74c-8.19,37.49-9.05,74.77,2.9,111.73c0.14,0.97-0.08,1.51-1.18,0.99
		c-16.97-37.68-20.31-77.17-15.55-117.72c4.96-42.17,16.59-82.77,29.13-123.15c2.06-6.63,4.02-13.29,5.33-20.34
		c-2.23,0.37-2.09,2.33-3.11,3.26c-1.17,0.42-1.36-0.08-1.02-1.09c15.68-32.83,18.85-68.84,26-103.79
		c6.04-29.53,10-59.44,12.72-89.47c1.43-15.8-0.34-31.62-0.73-47.42c-0.82-32.79-2.53-65.57-0.82-98.37
		c1.67-32.01,5.46-63.8,14.41-94.63c12.6-43.42,43.08-68.66,85.47-81.04c16.66-4.87,33.81-5.39,50.96-5.95
		c2.92,2.31,0.76,4.1-0.74,5.71c-4.95,5.31-10.11,10.41-15.34,15.43c-6.16,2.37-12.69,3.7-18.17,7.88
		c-7.13,5.45-12.94,11.96-17.4,19.66c-2.21,3.83-4.29,7.74-6.83,11.28c7.91-10.62,18.98-16.67,30.98-21.49
		c6.57-2.63,12.27-3.06,17.55,2.99c3.19,3.65,5.8,2.68,7.79-1.95c0.72-1.68,1.24-3.44,1.91-5.14c0.86-2.18,2.38-3.54,4.76-3.85
		c19.47-2.53,38.93-4.69,58.56-1.33c7.35,1.26,13.71,3.92,18.16,10.18c2.15,3.02,4.33,4.37,7.69,1.22c2.01-1.89,4.64-1.02,7.07-0.06
		c5.96,2.34,10.39,6.59,14.55,11.22c0.46,0.51,0.91,0.95,1.57,1.15c15.92,24.18,22.75,50.84,21.53,79.62
		c-0.39,9.35-1.89,18.56-5.56,27.28c-0.53,1.25-0.81,2.52-0.46,3.89c2.34,9.18,3.48,18.67,7.09,27.53
		c7.72,18.96,12.18,38.72,14.35,59.03c0.21,1.96-0.04,4.08,1.89,5.43c1.11,0.02,1.92,0.49,2.04,1.65c0.48,4.81-0.82,9.46-2.18,13.91
		c-0.55,1.81-3.46,2.64-4.46-0.74c2.55-3.83,1.09-8.17,0.59-11.96c-1.66-12.58-2.93-25.27-6.12-37.62
		c-0.22-0.84-0.78-1.57-0.71-2.96c2.82,11.19,4.4,22.11,5.83,33.08c0.63,4.81,1.05,9.64,1.56,14.47c0.14,1.31,0.35,2.67-0.73,3.77
		c-1.15,1.41-2.14,0.88-3.43,0.01c-2.44-1.66-4.68-3.57-6.96-5.39c-0.01-1.99,2.31-3.68,0.8-5.3c0.44,1.43,0.94,3.31-1.74,3.94
		c-1.36-0.67-2.81-1.18-3.63-2.66c1.73-8.99,0.56-17.98-0.4-26.98c0.07-0.67-0.63,0.18,0-0.05c0.09-0.03,0.15,0.1,0.16,0.39
		c0.24,8.51,2.39,17.02,0.1,25.55c-0.9,0.88-1.99,0.51-2.62-0.07c-3.91-3.66-8.73-6.16-12.51-9.94c2.22-6.56,1.92-12.64-3.19-17.84
		c-1-1.02-1.69-2.05-0.72-3.46c5.14-9.86,5.99-20.42,4.35-31.13c-1.85-12.04-2.87-24.17-3.1-36.27c-0.15-7.91,0.07-16,1.04-23.9
		c0.8-6.48,0.42-12.59-1.61-18.7c-1.02-3.07-1.27-6.33-2.3-9.41c2.37,7.89,3.45,15.87,1.62,24.03c-0.18,0.8-0.07,1.68-0.33,2.47
		c-0.85,2.59-1.19,6.14-4.61,6.16c-3.79,0.02-3.14-3.91-3.84-6.3c-1.01-3.46-0.16-7.12-0.57-10.67c0.23,4.07,0.59,8.15-0.53,12.17
		c-0.27,0.96-0.4,2.02-0.99,2.81c-1.97,2.6-4.37,5.16-7.88,3.95c-3.91-1.35-3.42-4.86-2.89-7.65c0.45-1.1-0.54-0.46,0.12-0.36
		c0.06,0.01,0.06,0.11-0.03,0.29c-1.49,3.04-2.96,6.1-5.57,8.41c-1.3,1.16-2.69,2.04-4.49,1.48c-1.9-0.6-2.19-2.26-2.39-3.96
		c-0.74-6.26-1.69-12.5-2.08-16.68c0.77,5.67,1.98,13.42,0.25,21.22c-0.48,2.15,0.23,5.81-3.59,5.16c-3.85-0.66-1.25-3.93-1.74-6.34
		c-0.1,4.54-0.9,8.44-5.06,10.69c-3.3,1.79-4.82,1.13-5.76-2.51c-1.88-7.31-0.38-14.84-1.44-20.32c0.41,3.4,0.46,8.7,0.36,14
		c-0.05,2.92-1.09,4.54-4.24,5.37c-4.15,1.08-8.25,0.84-12.4,0.81c-1-0.01-2.33-0.1-2.77-0.9c-3.24-5.78-9.92-9.45-10.29-16.24
		c0.4,3.28-2.12,6.76-6.35,7.97c-8.74,2.5-11.52,1.26-15.46-7.67c0.9,2.85,2.43,4.29,2.96,6.15c0.41,1.45,0.33,2.98-1.23,3.96
		c-1.54,0.96-2.6,0.01-3.69-0.85c-2.1-1.66-3.19-3.99-4.47-6.27c-1.14-2.04-1.71-4.35-2.93-5.96c1.69,3.36,3.47,7.05,5.19,10.75
		c0.76,1.63,0.55,3.36-1.17,4.34c-1.55,0.88-2.86,0.02-3.85-1.18c-11.55-13.91-20.64-29.15-25.21-46.81c1.02,3.08,0.62,6.2,0.23,9.4
		c-1.51,12.44-3.8,24.69-8,36.53c-1.49,4.21-1.55,8.43-0.62,12.79c13.86,64.8,32.38,128.2,57.21,189.69
		c4.49,11.12,9.27,22.12,14.37,32.98c1.15,2.45,2.49,4.73,4.7,6.36c1.32,0.98,1.67,2,0.52,3.31c-4.1,0.79-1.81,3.14-0.99,4.78
		c5.84,11.8,12.55,23.11,19.29,34.42c15.11,25.36,25.57,52.34,26.79,82.25c0.23,5.58,0.46,11.25-1.74,17.31
		c1.27-27.99-6.66-52.97-19.47-76.69c7.99,28.8,14.85,57.65,7.75,87.77c-0.32-7.12,0.01-14.29-0.8-21.39
		c-0.83-7.23-2.13-14.38-5.64-21.18c-0.87,6.07-1.73,12.15-2.6,18.22c-1.28-8.8-1.59-17.55-2.95-26.2
		c-2.77-17.69-9.01-34.13-18.28-49.36c-9.79-16.07-20.04-31.86-29.91-47.89c-1.69-2.74-4.16-2.97-6.67-3.65
		c-1.24-6.57-5.49-11.95-6.86-17.45c-0.62-1.48,0.31-0.98-0.36-0.98c-0.15,0-0.16,0.17-0.01,0.5c2.19,4.64,3.83,9.53,6.18,14.1
		c0.65,1.27,0.78,2.5,0.51,3.84c-0.02,0.57-0.05,1.13-0.07,1.7c1.24,1.77-2.19,1.49-1.35,3.08c7.43,28.18,12.85,56.7,13.88,85.91
		c0.55,15.53-0.76,30.87-4.81,45.92c-1.82,0.12-1.47-0.84-0.93-1.89c5.72-29.58,2.85-58.71-4.51-87.66
		c-0.84,17.52-3.05,34.67-10.71,50.7c2.32-9.19,4.73-18.36,5.8-27.81c2.6-22.88-0.86-45.09-7.19-67.01
		c-0.67-2.34-2.06-3.25-4.29-3.32c-0.36-0.34-0.67-0.71-0.95-1.12c0.79-5.87-1.86-11.14-2.99-16.66c-0.57-2.8-4.73-3.11-4.79-6.41
		c-2.34-9.15-7.78-16.88-11.62-25.34c-2.54-5.59-5.65-10.9-8.11-16.52c-2.67-6.93-5.67-13.73-8.92-20.4
		c-1.27-2.6-3.91-3.46-6.69-3.67c-4.48-0.34-8.97-0.09-13.45-0.32c-3.01-0.15-4.87,1.77-6.28,4.2c-1.75,3.03-3.76,5.87-6.2,8.4
		C182.52,312.54,181.12,314.06,178.78,313.39z"/>
	<path class="st3" d="M303.84,390.94c-3.74-1.03-5.56-3.84-7.09-7.16c-20.08-43.5-36.03-88.52-49.57-134.44
		c-8.77-29.73-16.2-59.8-22.8-90.08c-1.11-5.07-0.93-9.74,0.8-14.65c5.3-15.03,7.77-30.63,8.73-46.5c0.08-1.27-0.27-2.68,1.54-4.29
		c6.08,18.6,13.96,35.95,27.14,50.39c-1.38-6.58-4.39-12.7-4.97-19.48c3.35,6.3,6.28,12.8,12.19,18.48
		c-0.25-5.07-3.54-8.55-3.35-14.23c2.64,3.53,4.75,5.96,6.42,8.66c2.65,4.26,6.53,4.59,10.46,3.05c3.54-1.39,6.85-3.6,6.57-8.35
		c-0.07-1.13,0.14-2.27,0.22-3.41c1.41-0.06,1.54,0.97,1.68,1.65c1.42,6.93,7.24,11.15,10.52,16.95c2.13,3.78,9.48,3.28,12.99,0.57
		c6.11-4.71,3.77-11.19,4.24-17.09c0.16-2.06-0.84-4.16,0.88-6.43c1.11,5.95,2.23,11.9,3.3,17.85c0.23,1.31,0.08,2.7,0.42,3.97
		c0.56,2.12-0.4,5.66,2.35,5.93c3.15,0.3,3.79-3.25,4.54-5.73c0.91-2.99,1.48-6.09,2.38-9.93c2.37,3.39,0.65,6.73,2.18,10.23
		c2.22-10.77,1.05-20.93,0.92-31.13c3.38,6.98,4.91,14.39,6.19,21.88c0.24,1.41-0.17,3.42,1.59,3.88c2,0.52,2.81-1.46,3.65-2.82
		c1.91-3.08,3.68-6.26,5.74-9.81c1.65,2.25,0.92,4.47,1.22,6.47c0.28,1.89-0.14,4.45,2.66,4.61c2.32,0.13,3.46-1.82,4.1-3.78
		c1.39-4.3,2.13-8.73,2.19-13.26c0.02-1.63,0.15-3.27,0.29-6.31c3.03,7.41,2.45,14.3,5.71,20.42c2.43-5.55,3.12-11.41,2.64-17.38
		c-0.49-6.05-1.37-12.07-1.56-18.22c3.99,9.4,10,18.39,9,29c-2.04,21.66-1.84,43.17,1.31,64.71c1.11,7.58,1.25,15.29-0.45,22.86
		c-0.84,3.74-1.95,7.44-4.98,10.15c-1.21,1.67-2.78,1.18-4.45,0.91c-7.5-1.21-12.99,1.19-15.57,6.66
		c-2.53,5.37-0.97,10.76,4.62,15.77c0.84,0.75,2.06,1.25,1.5,2.75c-0.28,2.56-1.43,4.73-2.95,6.75c-1.69,2.26-3.77,4.34-4.94,6.85
		c-4.64,9.94-13.15,10.43-22.28,9.48c-2.81-0.29-5.59-0.86-8.42-0.46c-1.76,0.25-3.58,0.94-2.96,3.11
		c1.86,6.55,0.49,13.22,1.06,19.8c0.29,3.36,1.62,6.68,0.46,10.11c1.56,4.69,2.73,9.51,5.69,13.64c2.84,3.97,6.46,6.4,11.39,7.07
		c4.26,0.58,8.52,0.89,12.8,1.18c1.66,0.11,4.32-0.58,4.36,2.61c2.62,9.74,5.82,19.33,7.61,29.28c0.64,3.58,2.06,6.98,2.47,10.62
		c-0.74,4.64,1.11,9.04,1.35,13.61c0.2,3.94-1.2,4.9-4.71,4.75c-4.28-0.18-8.56-0.04-12.84-0.04c-7.2,1.62-11.2-1.7-14.84-7.85
		c-6.6-11.16-13.97-21.89-20.98-32.82c-2.01-3.13-3.03-6.2-1.94-9.86c1.56-5.29,0.35-10.13-2.24-14.86
		c-3.5-6.41-6.18-13.22-9.09-19.61c-0.44,6.83-1.75,13.83-2.72,20.87c-0.67,4.83,0.03,9.27,3.74,12.32
		c5.27,4.33,6.06,10.13,6.31,16.12c0.4,9.66,1.63,19.23,2.78,28.8c0.27,2.28,0.43,4.37-2.27,5.32
		C307.12,391.03,305.48,390.98,303.84,390.94z"/>
	<path class="st3" d="M44.47,910.91c-10.01-0.36-19.03,2.57-27.52,7.71c-3.52,2.13-7.11,4.48-11.52,4.36
		c-1.85-0.05-3.8-0.4-4.55-2.41c-0.86-2.3,1.22-3.03,2.49-4.31c14.62-14.66,33.56-18.83,52.94-21.97c0.99-0.16,1.99-0.23,2.97-0.43
		c1.14-0.24,1.68-1.1,1.69-2.17c0.01-0.96-0.72-1.42-1.61-1.6c-6.6-1.35-12.91-5.45-19.99-0.7c-3.4,2.28-7.87,2.53-12.1,2.49
		c-2.07-0.02-4.2-0.15-4.85-2.57c-0.59-2.23,1.16-3.21,2.74-4.23c4.9-3.15,9.81-6.3,14.64-9.56c2.18-1.47,4.47-2.16,7.07-1.81
		c5.11,0.68,10.34,0.92,15.32,2.15c13.69,3.38,27.5,1.64,41.28,1.59c2.59-0.01,3.56-1.29,3.29-3.79c-0.18-1.65-0.18-3.32-0.27-4.99
		c-0.14-2.52,0.51-3.72,3.46-2.88c10.68,3.03,21.56,4.2,32.64,2.98c2.64-0.29,3.08,0.95,2.82,3.26
		c-1.65,14.91-2.66,29.86-2.73,44.86c0,0.5,0.03,1.04-0.15,1.48c-6.17,14.8-12.58,29.45-26.5,38.96c-2.61,1.78-5.7,2.96-8.05,5.01
		c-8.87,7.73-19.88,9.59-30.81,11.76c-2.13,0.42-4.54,0.99-5.87-1.33c-1.49-2.6-0.06-4.85,1.7-6.75c2.7-2.91,6.18-4.67,10-5.28
		c7.13-1.13,10.85-6.69,15.32-11.27c1.21-1.24,1.41-2.99,0.55-4.67c-0.95-1.84-2.6-2.79-4.52-2.49c-9.16,1.45-18.63,0.48-27.49,4.35
		c-10.37,4.53-20.99,8.5-31.46,12.81c-2.81,1.16-5.65,2.1-8.66,2.22c-1.77,0.07-3.91,0.11-4.65-2.04c-0.72-2.07,0.64-3.67,2.19-4.63
		c7.65-4.74,14.33-10.9,22.36-15.06c3.85-1.99,7.78-3.8,11.64-5.77c1.53-0.78,3.93-1.01,3.39-3.56c-0.56-2.68-2.84-3.02-5.1-2.96
		c-9.62,0.25-18.81,2.46-27.51,6.53c-5.58,2.61-11.01,5.54-16.54,8.24c-2.72,1.33-5.62,2.15-8.68,1.95
		c-1.7-0.11-3.38-0.57-3.78-2.61c-0.35-1.8,0.93-2.66,2.17-3.57c14.07-10.36,29.25-18.48,46.2-23.08c0.96-0.26,1.94-0.51,2.85-0.91
		c1.24-0.54,3.56-0.21,3.17-2.29c-0.28-1.52-2.25-0.95-3.5-1.01C48.8,910.84,46.63,910.91,44.47,910.91z"/>
	<path class="st4" d="M201.97,416.96c-0.05,12.76-2.51,25.33-3.16,38.01c-0.34,6.68-1.8,12.63-4.85,18.39
		c1.9,3.6,0.64,7.36,0.23,10.95c-4.1,36.35-6.99,72.83-10.97,109.19c-1.41,12.88-3.18,25.74-4.81,38.61
		c-1.5,11.89-1.24,23.9-2.02,35.84c-0.98,14.93-1.56,29.89-3.93,44.69c-0.28,1.77,0.09,4.16-2.74,4.45
		c-0.95,12.43-2.05,24.86-2.8,37.3c-1.41,23.59-2.72,47.18-3.84,70.79c-0.25,5.21-2.47,7.34-7.51,7.9
		c-11.41,1.26-12.19,0.97-11.6-10.6c0.95-18.61,2.4-37.2,3.58-55.81c0.25-3.99,0.45-8,0.3-11.98c-1.01-27.57,1.52-54.87,5.34-82.15
		c3.28-23.42,5.05-47.02,4.65-70.72c-0.1-5.65-0.43-11.33-1.12-16.94c-0.6-4.87,0.12-9.4,2.61-13.46
		c6.39-10.42,6.99-22.04,7.55-33.72c0.17-3.49,0.61-6.98,0.59-10.46c-0.14-18.46,2.75-36.89,0.63-55.38
		c-0.78-6.78,0.5-13.06,3.47-19.35c7.61-16.13,15.41-32.15,24.82-47.32c1.31-2.11,2.94-4.02,4.42-6.02
		c0.16,0.01,0.39-0.04,0.48,0.04C204.45,402.08,204.88,413.83,201.97,416.96z"/>
	<path class="st2" d="M169.72,717.08c0.92-13.35,2.83-26.59,3.37-40c0.54-13.22,1.42-26.44,1.99-39.67
		c0.43-10.01,2.61-19.94,3.74-29.93c1.8-15.83,3.44-31.68,5.03-47.54c2.49-24.82,4.91-49.65,7.3-74.48
		c0.4-4.18,1.71-8.11,2.81-12.11c2.29,1.07,2.48,3.43,3.21,5.4c6.38,17.21,14.41,33.62,22.72,49.99
		c6.68,13.14,10.58,27.51,10.87,42.55c0.03,1.66,0.14,3.37,0.59,4.95c2.69,9.29,2.09,17.66-5.87,24.43
		c-2.61,2.22-2.57,5.16-1.06,8.21c1.32,2.68,2.38,5.49,3.55,8.25c1.46,1.91,0.35,3.4-0.79,4.89c-7.25,9.45-11.56,20.16-13.61,31.82
		c-0.34,1.93-0.89,3.52-2.93,4.17c-4.02,1.15-6.82,3.26-6.8,7.96c0,1.06-0.72,2.2-1.31,3.18c-10.04,16.68-20.11,33.33-30.19,49.99
		c-0.41,0.68-0.73,1.54-1.83,1.56C169.24,719.75,170.06,718.27,169.72,717.08z"/>
	<path class="st4" d="M458.94,487.52c-0.29-14.96-7.14-27.75-14.51-40.28c-2.08-3.54-3.67-7-4.09-11.08
		c-0.84-8.12-1.77-16.22-2.73-24.33c-0.32-2.69,0.19-4.87,2.56-6.54c10.56-7.46,22.11-12.31,35.13-13.05
		c6.4-0.37,7.76,1.25,7.26,7.48c-2.07,25.62-2.29,51.13,1.71,76.68c4.35,27.81,6.14,55.94,8.49,83.98
		c0.65,7.76-0.65,15.27-3.34,22.57c-1.67,4.54-3,9.18-3.73,13.98c-0.54,3.54-2.05,4.76-5.34,2.3c-13.16-9.84-23.96-21.6-30.58-36.87
		c-0.59-1.36-1.09-3.23-2.18-3.81c-5.05-2.69-3.81-6.74-3.47-11.19c0.55-7.13,2.84-13.5,5.7-19.95
		C455.39,514.82,458.23,501.48,458.94,487.52z"/>
	<path class="st3" d="M379.89,248.1c4.35,3.34,8.71,6.68,13.06,10.02c1.53-0.82,1.74,0.18,1.86,1.33c0.93,0.59,1.85,1.18,2.78,1.77
		c1.73-0.28,2.27,0.64,2.22,2.18c2.82,2.24,5.78,4.27,9.09,5.74l-0.02-0.04c1.86,1.12,1.9-0.52,2.06-1.51
		c0.66-3.86,1.2-7.75,1.78-11.62c2.24-11.2,9.55-17.67,18.73-16.88c3.32,0.29,5.18,1.88,6.12,4.9c0.59,1.91,1.02,3.9,1.86,5.68
		c1.73,3.64,2.72,6.58,8.62,7.15c8.06,0.78,15.58,5.55,21.28,12.04c0.76,0.86,1.19,2.07,2.41,2.4c8.04,2.12,11.55,9.33,16.62,14.78
		c1.61,1.73,1.64,3.92,1.55,6.12c-0.62,14.81-1.32,29.62-1.09,44.45c0.03,1.87-0.18,3.74-1.22,5.28c-1.62,2.38-2.11,4.74-1.04,7.51
		c0.87,2.26,0.44,3.81-2.59,3.78c-11.63-0.12-22.88,1.83-33.52,6.72c-2.25,1.04-3.21-0.11-3.31-2.08c-0.24-4.76-3.12-7.77-6.28-10.9
		c-6.5-6.44-12.69-13.2-19.01-19.83c-2.61-0.14-4.84-1.18-6.34-3.29c-2.87-4.04-7.1-6.99-9.28-11.58
		c-1.72-6.65-1.77-13.5-2.63-20.26c-0.15-1.65-0.63-3.65,0.62-4.76c3.82-3.39,1.26-7.52,1.49-11.27c0.06-1.06-1.44-2.64-3.31-2.48
		c-3.14-0.68-2.93-5-6.13-5.63c-0.95-0.67-2.27-0.76-2.98-1.83c-0.46-0.64-1.19-0.68-1.88-0.83c-5.54-4.58-11.67-8.44-16.74-13.65
		c-1.43-2.4-1.66-4.89,1.09-6.18C377.9,244.33,379.87,245.15,379.89,248.1z"/>
	<path class="st5" d="M210.64,658.01c1.09-15.61,6.74-29.29,17.33-40.88c23.55,7.37,46.44,16.5,69.17,26.05
		c3.2,2.51,5.36,5.73,6.98,9.46c3.3,7.62,6.75,15.17,9.25,23.12c1.1,3.5,0.36,5.96-2.73,7.99c-4.16,2.74-8.1,5.8-12.41,8.33
		c-2.95,1.73-5.92,2.74-9.33,2.03c-5.93-0.41-11.18-3.08-16.59-5.11C250.67,680.85,229.64,671.46,210.64,658.01z"/>
	<path class="st5" d="M115.04,758.75c0.91,8.85-0.35,17.61-1.28,26.35c-2.51,23.72-6.71,47.15-13.1,70.16
		c-1.82,6.54-2.68,7.09-8.6,4.18c-20.82-10.26-17.6-6.87-15.02-26.93c3.64-28.41,7.2-56.83,9.84-85.35
		c0.24-2.54,0.75-4.92,1.98-7.15c0.03-5.16,2.04-9.62,4.75-13.9c1.69-2.66,3.67-2.75,5.43-0.57
		C106.95,735.34,113.76,745.73,115.04,758.75z"/>
	<path class="st2" d="M409.03,312.12c3.38,5.76,8.65,9.89,12.83,14.97c-1.85,2.09-0.75,4.42-0.48,6.64
		c2.5,21.09,5.05,42.17,7.58,63.25c0.29,7.93,1.27,15.79,2.36,23.64c0.96,17.06,1.94,34.12,2.44,51.19
		c-3.63,3.35-0.99,6.81-0.32,10.28c-4.67,8.08-1.52,16.97-3,25.33c-0.53,3.01,3.89,4.39,2.14,7.73c-0.13,0.25-1.09,1.36-0.46,2.26
		c-0.51,4.54-2.29,8.94-1.45,13.62c-0.29,1.8-0.72,3.61-0.1,5.4c0.94,2.74-1.4,2.23-2.68,2.77c-2.97-1.7-1.29-4.66-1.89-7
		c-9.68-20.58-10.62-41.92-5.74-63.82c0.58-2.62,2.3-6.62-0.62-7.68c-2.69-0.98-3.16,3.44-4.33,5.53
		c-5.97,10.7-13.01,20.48-22.73,28.11c-1.49,1.17-2.81,2.79-5.59,2.86c2.23-2.55,4.26-4.67,6.07-6.96
		c9.81-12.43,17.05-26.08,19.6-41.92c0.11-1.92-0.75-3.6-1.19-5.37c1.8-3.14,2.94-12.37,2.32-18.22c-3.43,3.42-1.96,8.16-3.81,11.78
		c-1.43,0.85-2.16,2.79-4.18,2.76c-2.43,2.21-2.89,5.47-4.35,8.2c-1.46,2.72-2.79,5.52-4.68,8.11c0.84-7.38,4.46-14.06,5.07-21.43
		c0.06-1.9-0.56-3.6-1.43-5.24c-0.19-0.89-0.14-1.65,0.72-2.1c2.04-1.07,1.14-2.19,0.09-3.34c-1.35-2.91,0.41-5.29,1.3-7.81
		c0.65-1.83,1.2-3.68,1.54-5.6c1-3.8,3.13-7.43,1.73-11.6c0.62-2.02,2.43-3.85,0.74-6.15c2.62-5.74,1.77-11.94,1.81-18.03
		c0.13-18.92,0.22-37.85-1.73-56.71C406.39,315.51,405.62,312.76,409.03,312.12z"/>
	<path class="st1" d="M373.88,53.17c-5.2-1.63-8.67-6.03-13.52-8.3c-4.3-2.01-8-3.68-10.58,2.24c-1.15,2.64-3.34,2.39-4.49,0.07
		c-7.41-14.97-21.5-15.92-35.41-16.7c-13.82-0.78-27.57,0.83-41.27,2.75c-3.05,0.43-4.53,2.25-5.58,4.96
		c-4.97,12.77-5.09,12.84-14.66,3.99c-3.33-3.07-6.71-2.99-10.61-1.75c-14.34,4.55-26.09,13.01-36.27,23.85
		c-0.25-0.24-0.67-0.51-0.64-0.63c5.41-16.9,14.78-30.84,30.45-39.85c4.02-2.31,8.39-4.13,13.28-3.52c1.53-0.39,2.86-0.42,3.86,1.21
		c0.78,1.27,1.59,2.53,2.39,3.79c1.28,2.03,1.6,5.57,4.46,5.45c3.44-0.14,3.46-3.97,4.53-6.45c1.52-3.52,2.17-7.31,3.08-11.05
		c0.45-0.96,1.12-1.5,2.22-1.73c24.82-5.25,48.89-3.43,72,7.58c1.55,0.73,3.09,1.47,4.64,2.2c4.99,1.99,3.75,7.56,6.19,11.08
		c2.15-0.54,2.76-4.98,5.93-2.17C361.41,37.08,368.5,44.38,373.88,53.17z"/>
	<path class="st6" d="M201.97,416.96c-0.54-5.93-1.45-11.83-1.15-17.81c-1.34-30.13-5.99-59.41-22.04-85.76
		c3.7-4.67,7.77-9.07,10.36-14.55c1.18-2.5,3.3-3.61,6.08-3.45c5.62,0.33,11.25,0.6,16.87,0.96c3.38,0.22,5.98,1.53,7.33,4.96
		c2.73,6.94,5.64,13.81,8.48,20.71c-0.87,3.49-3.8,2.81-5.97,2.45c-4.63-0.77-9.29-0.67-13.92-1.13c-4.72-0.47-6.59,1.3-6.22,5.98
		c0.85,10.93,1.94,21.85,2.86,32.78c0.49,5.82,3,9.97,8.57,12.34c4.13,1.76,8.08,3.91,12.33,5.41c3.39,1.2,6.58,0.85,9.47-1.28
		c4.14-3.04,8.65-5.75,10.48-11.01c0.54-1.56,1.58-2.05,3.12-1.24c2.35,7.16,3.99,14.47,5.2,21.89c0.03,0.25,0.05,0.49,0.08,0.74
		c-2.68-0.04-4.11,1.8-5.58,3.65c-3.71,4.68-7.61,9.2-12.03,13.26c-2.54,2.34-4.92,2.75-8.06,1.14
		c-6.07-3.11-11.97-6.46-17.46-10.52c-1.14-0.84-2.23-2.61-3.77-1.87c-1.67,0.81-0.58,2.68-0.57,4.08
		c0.05,5.47,0.2,10.95,0.25,16.42c0.01,1.3,0.26,2.92-1.06,3.64C203.81,419.75,203.25,417.46,201.97,416.96z"/>
	<path class="st7" d="M308.77,391.07c-1.28-13.57-2.64-27.13-3.78-40.72c-0.24-2.86-1.86-4.57-3.71-6.19
		c-5.47-4.79-7.48-10.26-5.73-17.71c1.89-8.03,2.48-16.37,3.67-24.81c2.43,0.41,2.64,2.32,3.28,3.65
		c4.15,8.52,8.11,17.14,12.35,25.61c1.52,3.03,2.02,5.89,0.74,9.04c-1.78,4.39-0.87,8.17,1.78,12.13
		c8.13,12.17,16.07,24.47,23.75,36.92c2.03,3.29,4.71,3.1,7.63,3.27c0.38,0.03,0.54,0.15,0.5,0.35c-0.05,0.24-0.13,0.36-0.22,0.36
		c-5.41-0.43-7.44,2.46-8.44,7.48c-2.24,11.36-2.65,11.39-11.97,4.74C322,400.49,315.38,395.78,308.77,391.07z"/>
	<path class="st5" d="M501.82,449.05c-1.61-14.22-3.27-28.43-4.83-42.65c-1.66-15.06-3.17-30.14-5.57-45.11
		c-1.15-7.16,0.09-8.31,7.35-7.35c9.8,1.3,9.96,1.27,11.52,11c3.61,22.54,5.66,45.25,7.54,67.98c0.55,6.63,1.02,13.28,1.64,19.9
		c0.27,2.86,0.32,5.65-0.61,8.39c-0.47,4.64-3.18,2.85-5.03,1.44C508.97,458.93,503.83,455.34,501.82,449.05z"/>
	<path class="st6" d="M288.9,694.11c6.6-3.23,12.68-7.29,18.78-11.37c3.3-2.21,4.12-4.38,2.66-8.28
		c-3.96-10.62-8.83-20.84-13.2-31.27c9.16,3.96,18.32,7.93,27.48,11.88c2.05,0.88,3.63,2.29,4.98,4.03
		c5.22,6.7,9.98,13.71,14.71,20.77c2.44,3.64,1.89,5.93-1.63,8.16c-3.65,2.31-7.35,4.62-10.7,7.33
		C317.22,707.29,303.08,700.69,288.9,694.11z"/>
	<path class="st6" d="M115.04,758.75c-4.02-9.48-8.6-18.67-14.33-27.24c-3.9-5.83-4.2-5.8-7.46,0.13c-1.52,2.76-2.93,5.57-4.38,8.36
		c-2-3.52-0.24-7.1-0.16-10.65c0.07-3.14,0.24-6.27,0.37-9.41c1.49-9.55,2.14-19.31,6.93-28.05c1.57-2.47,3.15-4.94,4.73-7.43
		c2,1.18,2.1,2.97,2.61,4.48c2.62,7.72,4.7,15.66,7.82,23.17c5.96,14.38,4.91,29.34,4.61,44.29
		C115.76,757.19,115.3,757.97,115.04,758.75z"/>
	<path class="st6" d="M501.82,449.05c4.13,3.57,8.22,7.2,12.43,10.69c1.26,1.05,2.41,3.1,4.61,1.48c1.68,1.72,1.55,4,1.71,6.1
		c0.82,10.78,1.54,21.57,2.27,32.37c0.11,1.66,0.1,3.33,0.03,4.99c-0.05,1.17-0.31,2.53-1.51,2.95c-1.35,0.46-2.06-0.87-2.75-1.73
		c-3.86-4.79-7.81-9.53-11.44-14.5c-2.8-3.84-2.21-8.61-2.68-13.03C503.42,468.6,501.89,458.89,501.82,449.05z"/>
	<path class="st6" d="M424.72,636.08c0.01,1.81,0.18,3.63-0.02,5.41c-0.39,3.46,0.66,4.96,4.25,3.59c2.9,2.88,0.06,5.85-0.26,8.57
		c-0.85,7.23-4.13,13.85-6.96,20.54c-2.44,6.39-6.63,11.85-9.6,17.96c-0.92,1.9-2.22,2.39-3.87,0.73c-0.23-0.24-0.47-0.47-0.72-0.69
		c-9.51-8.45-9.34-8.38-4.17-20.14c3.36-7.63,6.35-15.33,14.3-19.58c2.02-1.08,2.04-3.2,2.12-5.25c0.16-4.12-0.53-8.31,0.85-12.35
		c3.66,1.48,0.51,4.69,1.71,6.43c0.06-1.06-0.03-2.47,0.12-3.91C422.65,635.68,423.13,635.09,424.72,636.08z"/>
	<path class="st6" d="M349.02,392.97c-0.09-0.24-0.18-0.47-0.28-0.71c3.63-0.03,7.26-0.2,10.87-0.05c4.07,0.18,5.86-1.43,5.22-5.57
		c-0.65-4.24-1.21-8.49-1.8-12.73c1.19-1.58,2.58-1.72,4.34-0.85c2.08,1.03,4.33,1.8,6.23,3.09c5.61,3.81,11.3,4.1,17.23,0.88
		c5.6,5.97,9.1,13.12,11.6,20.82c-3.09,1.98-3.06,5.86-5.2,8.46c-1.96,2.38-4.18,3.99-6.87,1.85c-3.39-2.7-7.97-1.63-11.22-4.22
		c-3.51-2.95-6.59-6.45-10.62-8.78c-3.97-3.33-8.77-1.5-13.18-2.1C353.28,392.8,351.13,392.99,349.02,392.97z"/>
	<path class="st8" d="M424.72,636.08c-1.83,3.79,0.22,8.43-2.74,12.77c-2.17-4.98-0.58-9.61-1.33-13.98
		c3.43-9.56-0.17-19.25,0.42-28.93c1.25-20.39,1.17-40.86,1.62-61.29c0.1-4.43,1.79-8.41,3.31-12.45c1.64,2.06,2.24,4.41,1.89,7
		c-1.97,12.17-1.26,24.47-1.76,36.7c-0.59,14.24-0.7,28.52-0.49,42.77C425.72,624.54,428.14,630.43,424.72,636.08z"/>
	<path class="st2" d="M337.11,19.08c-11.36-3-22.73-5.8-34.48-7.11c-10.68-1.19-21.14-0.41-31.65,1.16
		c-2.4,0.36-4.48,1.15-5.98,3.13c-0.33-0.02-0.81,0.1-0.97-0.08c-1.14-1.31-1.67-12.92-0.61-14.19c0.72-0.86,1.65-1.39,2.95-1.29
		c3.12,0.23,6.27-0.25,9.39,0.27c19.65,1.69,38.65,5.81,56.3,15C333.81,16.88,335.43,18.03,337.11,19.08z"/>
	<path class="st9" d="M275.77,0.96c-9.33,0.24-9.32,0.24-10.18,9.88c-0.16,1.81-0.39,3.61-0.59,5.41
		c-1.41,6.71-3.84,13.03-7.38,18.92c-1.75,2.91-3.16,3.73-4.83-0.13c-2.24-5.18-4.86-10.18-8.2-14.77c1.89-4.61,6.25-7.08,9.3-10.67
		c2.63-3.1,6.23-5.38,7.87-9.33C266.46-0.14,271.14-0.21,275.77,0.96z"/>
	<path class="st9" d="M353.87,30.18c-3.17,2.2-3.29,6.74-7.31,9.33c-1.67-6.31-3.24-12.27-4.81-18.24
		c4.68-4.5,9.34-9.02,14.06-13.47c1.02-0.97,2.03-2.75,3.71-1.75c1.54,0.91,0.78,2.71,0.59,4.15
		C359.19,17.22,355.53,23.39,353.87,30.18z"/>
	<path class="st5" d="M310.42,615.9c-5.18,0.04-9.19-3.94-9.19-9.13c0-5.01,4.3-9.35,9.18-9.27c4.42,0.07,8.99,4.64,9.07,9.06
		C319.57,611.6,315.44,615.86,310.42,615.9z"/>
	<path class="st5" d="M415.77,609.66c-0.1,5.24-4.17,9.2-9.24,8.98c-4.67-0.2-8.42-4.42-8.4-9.45c0.01-4.85,4.04-8.83,8.94-8.83
		C412.54,600.37,415.88,603.93,415.77,609.66z"/>
	<path class="st5" d="M418.76,520.61c0.08,5.53-3.49,9.26-8.85,9.24c-4.83-0.01-8.73-3.95-8.86-8.95c-0.13-5.11,3.95-9.33,9-9.31
		C414.91,511.62,418.69,515.53,418.76,520.61z"/>
	<path class="st5" d="M309.06,528.98c-4.88-0.02-8.91-4.03-8.91-8.87c0-4.8,4.01-8.71,9.01-8.81c5.16-0.1,8.91,3.49,9.01,8.62
		C318.29,525.24,314.49,529,309.06,528.98z"/>
	<path class="st3" d="M430.8,480.23c-0.53-2.8-1.34-5.62,0.97-8.08c1.9-0.52,2.64,0.15,3.13,2.14c0.7,2.9,1.79,5.69,1.95,8.72
		c0.62,6.38,0.89,12.76,0.06,19.15c-0.82,9.9-3.09,19.48-6.25,28.87c-2.58-3.91-1.56-8.11-0.99-12.27
		c-0.53-6.81,1.17-13.48,1.17-20.28C430.84,492.4,430.42,486.31,430.8,480.23z"/>
	<path class="st10" d="M109.81,445.98c1.43-5.82,3.61-11.37,6.04-16.83c2.77,3.67,7.18,3.84,11.05,5.13
		c2.52,0.83,5.13,1.36,7.68,2.11c1.08,0.32,2.44,0.61,2.38,2.11c-0.05,1.45-1.38,1.8-2.49,2.02c-2.76,0.54-5.55,1.26-8.34,1.34
		C120.34,442.02,114.6,442.03,109.81,445.98z"/>
	<path class="st3" d="M368.53,395.17c4.13,1.12,7.56,3.54,11,5.95c8.88,5.21,15,13.25,21.22,21.11c0.68,0.86,1.62,1.52,2.21,2.46
		c0.1,1.44-0.02,2.89-0.08,4.34c-0.35,1.71-0.71,3.42-1.06,5.13C390.73,421.16,379.63,408.17,368.53,395.17z"/>
	<path class="st5" d="M387.36,427.43c-0.29,3.15-2.3,5.22-6.01,5.33c-4.32,0.13-8.33-4.19-8.26-8.86c0.06-3.88,1.93-6.3,5.98-6.43
		C383.52,417.32,387.49,421.91,387.36,427.43z"/>
	<path class="st11" d="M421.73,674.19c-1.01-3.47,0.9-6.44,1.72-9.56c1.71-6.54,3.66-13.03,5.51-19.54
		c0.82-0.77,1.27-2.21,2.57-2.11c1.09,0.08,0.93,1.25,0.75,2.01c-2.29,9.34-1.59,19.65-8.85,27.39
		C422.85,672.98,422.29,673.58,421.73,674.19z"/>
	<path class="st12" d="M73.74,520.94c0.34,0.36,0.68,0.72,1.02,1.09c-8.81,19.61-18.23,38.96-25.93,59.06
		c-0.39,0.51-0.8,0.52-1.22,0.04C54.99,560.49,63.9,540.51,73.74,520.94z"/>
	<path class="st8" d="M268.07,389.33c-2.9-2.05-4.1-5.14-5.07-8.36c-1.56-5.18-3.09-10.38-3.6-16.02
		c3.86,7.04,7.78,14.04,11.56,21.12c1.26,2.36-0.73,2.77-2.37,3.25c0,0-0.27,0.04-0.27,0.04L268.07,389.33z"/>
	<path class="st11" d="M294.94,433.13c-3.94,0.07-7.7-0.37-9.99-4.18c-2.05-3.42-2.81-6.78,0.78-9.77
		c4.63,2.81,6.13,7.99,9.13,12.03l-0.07-0.09C295.39,431.75,295.66,432.41,294.94,433.13z"/>
	<path class="st13" d="M429.69,420.18c-1.17-7.71-2.18-15.42-0.74-23.21c3.08,13.84,5.06,27.85,6.11,41.99
		c0.31,0.84-0.05,1.5-0.6,2.1c-3.03,0.72-2.16-2.08-2.17-3.01c-0.07-5.51-1.98-10.85-1.45-16.41
		C430.9,421.03,430.36,420.45,429.69,420.18z"/>
	<path class="st14" d="M294.87,431.2c-3.88-3.38-5.63-8.37-9.13-12.03c-5.36-7.62-10.7-15.25-16.09-22.85
		c-0.73-1.03-1.27-2.47-3-2.22c-0.91-1.62,0.08-2.42,1.35-3.08c9.12,12.33,17.84,24.94,26.1,37.86
		C294.52,429.56,294.62,430.43,294.87,431.2z"/>
	<path class="st15" d="M434,440.09c0.35-0.38,0.71-0.75,1.07-1.13c2.12,10.09,2.21,20.37,2.72,30.59c0.44,8.75,0.15,17.53,0.16,26.3
		c0,2.15-0.02,4.32-1.03,6.31c-0.01-6.4,0.59-12.84-0.98-19.16c0.1-3.42-0.89-6.66-1.43-9.97c-1.67-10.18-1.21-20.57-2.08-30.85
		C432.35,441.32,432.76,440.25,434,440.09z"/>
	<path class="st16" d="M35.78,622.04c-4.88,19.37-8.45,38.96-10.58,58.82c1.18-19.9,3.63-39.6,9.44-58.79
		C35,621.15,35.37,621.14,35.78,622.04z"/>
	<path class="st17" d="M306.95,452.07c5.87,10.82,12.39,34.88,12.71,48.24c-2.01-9.07-3.62-16.78-5.43-24.44
		c-1.87-7.95-5.12-15.43-8.11-23C306.23,452.42,306.51,452.17,306.95,452.07z"/>
	<path class="st10" d="M35.78,622.04c-0.38,0.01-0.75,0.02-1.13,0.03c3.21-14,7.31-27.72,12.97-40.95c0.41-0.01,0.81-0.02,1.22-0.04
		C44.16,594.64,39.21,608.1,35.78,622.04z"/>
	<path class="st18" d="M405.78,439.28c0.27-1.58,0.86-3,2.04-4.13c3.83-2,4.37,1.73,5.41,3.58c0.55,0.97,1.06,2.75,0.67,4.27
		c-0.42,1.78-0.84,3.56-1.26,5.33C410.35,445.31,408.07,442.29,405.78,439.28z"/>
	<path class="st19" d="M274.79,524.06c0.31,0.63,0.62,1.26,0.93,1.89c-0.66,3.55-1.97,6.85-3.85,9.96
		C272.16,531.78,273.37,527.89,274.79,524.06z"/>
	<path class="st20" d="M58.96,779.98c0.39-0.33,0.79-0.66,1.18-0.99c1.69,3.99,3.39,7.98,5.08,11.98
		C62.12,787.76,60.35,783.97,58.96,779.98z"/>
	<path class="st21" d="M70.97,728c0.34-0.33,0.69-0.65,1.03-0.98c1.17,3.2,2.34,6.39,3.52,9.59c-0.36,0.14-0.73,0.28-1.09,0.42
		C73.27,734.03,72.12,731.01,70.97,728z"/>
	<path class="st14" d="M306.95,452.07c-0.28,0.27-0.55,0.54-0.83,0.8c-1.83-3.85-3.66-7.69-5.49-11.54
		c-0.09-0.29-0.17-0.58-0.26-0.86c0.27,0.13,0.55,0.25,0.82,0.38C303.68,444.29,305.37,448.15,306.95,452.07z"/>
	<path class="st14" d="M294.94,433.13c-0.05-0.67-0.09-1.35-0.14-2.02c3.25,2.51,4.65,6.23,6.39,9.73
		c-0.19,0.16-0.37,0.32-0.56,0.49C298.74,438.6,296.84,435.87,294.94,433.13z"/>
	<path class="st22" d="M580.9,864.91c-1.81-3.33,0.17-7.22-1.61-11.01c-4.38,3.63-5.92,8.02-5.56,13.27
		c1.19,17.46,1.38,34.95,1.28,52.45c-0.03,4.69-0.03,9.31-2.5,13.56c-1.23,2.11-0.75,4.55-0.85,6.87
		c-0.24,5.32-0.49,10.64-0.74,15.96c-20.58-14.74-41.13-29.5-61.74-44.19c-8.54-6.09-17.1-12.17-25.83-17.98
		c-3.74-2.48-3.67-4.38-0.52-7.25c33.26-30.27,53.01-68.75,67.23-110.61c5.84-17.18,10.9-34.64,17.82-51.44
		c1.04-2.54,2.29-5,4.15-7.38c-0.55,6.23,0.64,12.24,0.67,18.28c0.14,25.36,3.9,50.44,5.54,75.68c0.49,7.47,1.55,14.95,1.43,22.41
		C579.49,844.02,581.6,854.4,580.9,864.91z"/>
	<path class="st5" d="M248.02,367.13c0.28,2.86-0.68,5.07-2.98,6.94c-16.59,13.51-11.71,12.51-29.32,4.35
		c-15.75-7.3-11.91-2.76-13.85-19.97c-1.26-11.24-1.96-22.54-2.99-33.8c-0.37-3.99,0.51-5.76,5.19-4.86
		c7.84,1.51,15.82,2.18,23.82,2.25c5.69,11.85,11.38,23.7,17.71,35.23c1.02,1.85,1.42,4.04,2.11,6.07
		C248.55,364.54,249.17,365.76,248.02,367.13z"/>
	<path class="st22" d="M110.93,426.13c-0.86-13.56,3.78-26.3,5.98-39.39c4.69-27.94,8.14-56.03,10.98-84.2
		c0.13-1.29-0.09-2.69,1.2-4.05c3.34,2.18,4.29,5.3,4.26,9.14c-0.28,33.84-5.06,67.04-14.03,99.65c-1.72,6.26-3.69,12.45-5.54,18.68
		C112.89,426.82,111.98,427.59,110.93,426.13z"/>
	<path class="st23" d="M379.89,248.1c-1.06-0.39-2.27-1.14-3.11,0.13c-1.09,1.63,0.66,2.65,1.15,3.94c0.5,2.24-0.51,3.42-2.52,4.43
		c-3.36,1.69-6.83,2.14-10.51,2.01c-2.97-0.1-4.06-2.16-5.14-4.35c-7.69-5.33-10.03-13.38-6.01-20.64
		c4.2-7.58,12.79-9.69,22.08-5.42C383,234.72,384.42,241.67,379.89,248.1z"/>
	<path class="st3" d="M175,187.27c-0.04-10.92,5.26-15.12,13.56-12.21c3.13,1.1,4.94,3.04,5.26,6.51
		c1.08,11.76,2.31,23.51,3.46,35.26c0.12,1.26,0.79,2.81-0.71,3.61c-1.21,0.65-2.2-0.41-3.1-1.1
		C182.38,210.9,176.56,199.54,175,187.27z"/>
	<path class="st22" d="M176.84,311.16c-12.18,10.45-30.25,7.87-38.6-5.58c-0.67-1.07-1.05-2.48-1.1-3.75
		c-0.17-5.32-0.14-10.65-0.23-15.97c-0.05-2.81,0.95-3.62,3.62-2.3c3.95,1.95,7.68,3.93,8.68,8.84c0.32,1.57,1.31,3.05,2.17,4.47
		c4.65,7.74,10.06,9.53,18.51,6.21C175.2,303.29,177.48,305.94,176.84,311.16z"/>
	<path class="st24" d="M176.84,311.16c-2.32-2.69-4.63-5.39-6.95-8.08c2.5-2.39,5.09-4.69,7.48-7.19c2.52-2.64,5.55-2.55,8.12-0.93
		c3.12,1.95,0.67,4.42-0.5,6.39C182.8,305.02,180.51,308.68,176.84,311.16z"/>
	<path class="st25" d="M408.89,269.13c-2.42-19.75-5.71-39.37-9.59-59.12c2.18,0.45,2.18,1.98,2.51,3.16
		c4.67,16.74,7.41,33.79,8.13,51.16c0.07,1.67,0.07,3.35-1.06,4.76C408.88,269.09,408.89,269.13,408.89,269.13z"/>
	<path class="st6" d="M150.65,290.19c-0.23-2.81,1.74-1.85,2.99-1.59c5.83,1.18,11.66,2.38,17.45,3.77
		c3.92,0.94,4.37,2.56,1.53,5.35c-1.39,1.36-3.2,2.29-4.83,3.41c-5.89-0.89-9.84-4.91-14-8.62
		C152.83,291.66,152.13,290.38,150.65,290.19z"/>
	<path class="st24" d="M230.87,322.16c-3.49-6.84-6.03-14.06-8.65-21.25c-0.68-1.86-1.61-4.3,0.97-5.14
		c2.53-0.82,2.69,1.89,3.23,3.49c2.55,7.57,5.01,15.17,7.5,22.76C232.98,323.7,231.92,322.76,230.87,322.16z"/>
	<path class="st18" d="M199.28,192.7c2.25,9.14,4.54,18.27,6.74,27.42c0.38,1.57,0.87,3.68-1.32,4.17c-2.4,0.54-3.07-1.64-3.39-3.41
		C199.65,211.6,198.97,202.23,199.28,192.7z"/>
	<path class="st26" d="M394.81,259.46c-0.62-0.44-1.24-0.89-1.86-1.33c-0.45-11.08-0.89-22.15-1.37-33.99
		c2.64,5.2,3.71,10.19,3.92,15.18C395.79,246.01,396.98,252.82,394.81,259.46z"/>
	<path class="st26" d="M150.65,290.19c5.46-0.23,8.53,4.09,12.49,6.67c1.74,1.14,3.11,2.83,4.66,4.27c-5.7,2.4-9.29,1.49-13.09-3.7
		C153.09,295.21,151.99,292.62,150.65,290.19z"/>
	<path class="st8" d="M248.02,367.13c-0.1-1.27-0.2-2.53-0.3-3.8c4.83,6.52,5.95,14.42,8.09,21.92c0.43,1.51-0.64,2.43-1.99,2.97
		c-2.4-0.84-2.96-2.89-3.3-5.07C249.68,377.81,248.85,372.47,248.02,367.13z"/>
	<path class="st27" d="M133.08,297.79c-6.18-5.63-3.16-11.93-2.98-17.8c0.02-0.48,0.75-1.33,1.15-1.33c1.22,0,1.59,1.06,1.64,2.08
		C133.13,286.17,133.93,291.59,133.08,297.79z"/>
	<path class="st28" d="M110.93,426.13c0.95-0.06,1.9-0.11,2.85-0.17c-1.85,5.09-3.09,10.42-5.7,15.48
		C104.69,436.99,106.12,430.24,110.93,426.13z"/>
	<path class="st29" d="M230.87,322.16c1.02-0.05,2.03-0.1,3.05-0.14c2.56,6.93,5.12,13.87,7.68,20.8c-0.38,0.17-0.75,0.34-1.13,0.52
		C237.27,336.27,234.07,329.22,230.87,322.16z"/>
	<path class="st30" d="M399.81,263.4c-0.74-0.73-1.48-1.45-2.22-2.18c0-3.12,0-6.24,0-9.35C399.2,255.65,401.78,259.21,399.81,263.4
		z"/>
	<path class="st2" d="M359.76,254.25c6.5,3.18,12.48,1.82,18.17-2.09c5.8,2.96,10.45,7.58,15.92,11.02
		c-1.27,5.48-0.15,11.1-1.13,16.64c-1.93,10.91-2.96,22.04-7.86,32.16c-1.16,2.4-0.29,5.86-3.55,7.18
		c-1.17,0.08-2.38,0.29-3.32-0.71c-1.48-2.61-1.48-5.15-0.35-8.03c3.25-8.29,4.73-17.08,6.78-25.68
		c-2.58,10.78-5.84,21.3-12.62,30.31c-1.12,1.49-0.34,4.25-3.11,4.58c-9.71,1.98-19.18-0.09-28.64-1.77
		c-4.54-0.81-9.22-1.67-12.95-4.81c-0.73-1.94,0.58-3.31,1.48-4.7c2.88-4.42,5.25-9.13,7.75-13.77c0.35-0.57-0.81-0.05-0.15,0.05
		c0.18,0.03,0.21,0.2,0.02,0.48c-3.51,5.12-5.22,11.37-9.96,15.72c-2.37,1.93-4.24-1.35-6.49-0.6c-1.78-6.71-0.48-13.57-0.93-20.34
		c-0.22-3.34,0.83-7.16-3.95-8.58c-1.69-0.5-1.04-2.24-0.42-3.43c1.61-3.09,4.5-3.53,7.62-3.73c6.48-0.42,12.87,1.58,19.39,0.46
		c3.51-0.6,6.29-1.89,8.11-5.04C352.67,264.26,357.45,260.08,359.76,254.25z"/>
	<path class="st13" d="M328.83,311.09c4.17,3.05,9.16,3.85,14.01,4.64c8.28,1.34,16.61,2.97,25.07,1.42
		c3.38-1.92,6.78-3.64,10.68-1.3c0.75,0.44,1.49,0.88,2.24,1.32c1.23-0.9,1.45-2.81,3.18-3.21c0.81,0.08,1.56,0.37,2.33,0.59
		c5.1,0.59,7.74,3.71,9.41,8.37c5.63,15.76,8.14,32.17,10.74,48.6c1.18,7.43,1.41,14.99,3.2,22.32c-0.3,1.77-0.6,3.54-0.91,5.31
		c-2.23,1.99-3.28,0.02-4.22-1.42c-4.16-6.4-7.48-13.28-11.16-19.95c-0.48-0.87-0.86-1.88-0.43-2.84
		c3.04-6.81,0.29-13.38-0.85-19.98c-0.76-4.4-1.57-8.82-2.76-13.14c-0.83-3.03-2.55-5.02-5.95-4.91c-3.1,0.1-4.16,1.73-3,4.53
		c3.15,7.61,1.59,10.21-6.99,11.6c-2.54-1.28-3.87-3.59-5.05-5.99c-2.35-4.83-5.55-8.65-11.19-9.62c-1.5-0.26-2.29-1.6-3.57-2.18
		c-4.11-1.56-8.49-1.27-12.73-1.46c-10.06-0.45-15.5-6.36-18.84-14.95c-1.06-2.74-1.54-5.71-2.29-8.57
		c1.05-4.91,3.81-1.07,5.81-1.13C327.21,308.86,328.29,309.54,328.83,311.09z"/>
	<path class="st5" d="M353.62,335.22c9.19-0.94,11.85,0.48,15.89,8.27c1.21,2.33,1.96,4.96,4.02,6.8c3.25,0.47,5.42,2.23,7.07,5.11
		c3.54,6.2,6.54,12.68,10.09,18.87c0.99,1.74,2.01,3.69-0.79,4.91c-3.85,4.49-8.02,4.85-13.09,1.71c-4.36-2.7-9.17-4.68-13.77-6.97
		C360.58,360.85,357.44,347.95,353.62,335.22z"/>
	<path class="st22" d="M409.7,393.83c-3.52-6.38-4.84-13.38-5.78-20.5c-2.11-15.85-4.86-31.55-9.66-46.86
		c-1.6-5.1-3.83-9.11-9.42-10.32c-0.57-1.66-0.25-3.18,0.42-4.79c5.57-13.42,8.66-27.45,10.06-41.88c0.12-1.21-0.34-2.81,1.62-3.09
		c2.57,0.87,4.53,2.53,6.05,4.74c4.21,5.5,3.13,12.07,3.63,18.31c0.08,0.95-0.45,1.94,0.13,2.88c0,6.69,0.69,13.3,2.29,19.81
		c1.72,22.07,2.92,44.15,1.8,66.29C410.57,383.55,410.08,388.69,409.7,393.83z"/>
	<path class="st31" d="M417.04,281.21c2.17,1.48,2.96,2.06,3.79,2.58c1.3,0.83,2.7,2.81,4.16,0.67c1.44-2.11-1.19-2.63-2.13-3.76
		c-0.41-0.5-1.04-0.82-1.58-1.22c-5.58-4.22-5.58-4.22-1.85-9.77c2.32-3.45,2.85-7.41,3.16-11.41c0.12-1.61,0.45-3.22,2.25-3.37
		c1.76-0.14,1.6,1.75,2.15,2.86c2.6,5.21,3.09,10.61,2.54,16.44c-0.7,7.43-0.48,14.95-0.72,22.43c-0.04,1.4,0.45,3.18-1.63,3.68
		c-1.68,0.4-3.28,0.33-4.61-1.07c-1.16-1.22-2.49-2.4-2.66-4.12C419.49,290.89,418.64,286.7,417.04,281.21z"/>
	<path class="st25" d="M383.66,314.94c-0.94,0.74-1.89,1.48-2.83,2.22c7.04-15.43,10.27-31.74,11.25-48.58
		c0.11-1.88-0.28-4.08,1.76-5.4c0.34,0.33,0.68,0.65,1.03,0.98c1.78,2.94,1.29,6.27,0.88,9.26c-1.69,12.34-3.94,24.58-8.77,36.17
		C386.17,311.55,385.56,313.65,383.66,314.94z"/>
	<path class="st32" d="M383.66,314.94c6.41-14.44,10.14-29.56,11.26-45.31c0.13-1.81-0.03-3.65-0.06-5.48
		c0.69,0.74,1.38,1.49,2.07,2.23c-0.71,17.4-4.08,34.14-12.1,49.76C384.45,315.75,384.05,315.35,383.66,314.94z"/>
	<path class="st33" d="M406.74,292.31c-1.74-6.97-2.88-14.06-3.76-21.18c3.54,1.44,4.85,4.25,4.85,7.88
		C407.83,283.48,408.05,287.96,406.74,292.31z"/>
	<path class="st23" d="M389.9,379.18c-3.82-9.06-8.92-17.47-13.58-26.09c-0.6-1.11-1.84-1.87-2.78-2.79
		c6.69-1.6,7.39-3.81,2.86-8.98c-3.76-4.28-3.35-5.64,2.04-6.75c11.44-2.37,11.94-2.09,14.29,9.25c1.52,7.33,2.89,14.7,4.28,22.06
		c0.52,2.78,1.07,5.57-0.49,8.27c-0.82,1.42-0.51,2.9,0.27,4.28c3.93,6.95,7.16,14.3,12.01,20.7c-0.27,4.07-0.51,8.15-1.77,12.08
		c-5.07-3.32-7.17-8.16-7.17-14.06C396.88,390.97,393.73,384.89,389.9,379.18z"/>
	<path class="st31" d="M399.85,397.15c2.88,4.44,6.62,8.44,7.17,14.06c-1.46,4.08-2.92,8.16-4.37,12.25
		c0.52,0.9,0.13,1.35-0.76,1.57c-2.04,0.37-2.92-1.2-3.97-2.43c-6.14-7.16-12.26-14.32-18.39-21.48c2.44,0.97,4.94,1.83,7.32,2.94
		c6.94,3.2,6.92,3.24,10.92-3.53C398.45,399.39,399.16,398.28,399.85,397.15z"/>
	<path class="st26" d="M434,440.09c1.14,12.01,2.48,24.01,2.76,36.09c0.05,2.29,0.29,4.65-0.82,6.82
		c-0.97-3.78-2.27-7.43-4.16-10.85c-0.52-1.74-0.94-3.48-0.83-5.35c0.93-15.57-0.27-31.09-1.26-46.62c0.1-1.44,0.2-2.88,0.3-4.32
		c0.25-0.01,0.5-0.03,0.75-0.04C431.82,423.91,432.91,432,434,440.09z"/>
	<path class="st26" d="M413.9,442.99c-2.03-2.62-4.05-5.23-6.08-7.85c-0.28-5.65,2.83-10.4,4.19-15.62
		c0.49-1.89,1.81-1.55,2.96-0.34c1.17,1.24,2.02,2.64,1.92,4.41C416.53,430.16,416.35,436.75,413.9,442.99z"/>
	<path class="st34" d="M430.8,480.23c4.31,12.98,1.42,25.75-1.13,38.53c-2.05-5.27-0.98-10.76-0.9-16.12
		C428.9,495.15,428.07,487.51,430.8,480.23z"/>
	<path class="st35" d="M416.56,411.14c-2.97-3.18-0.71-5.89-0.26-8.57C417.64,405.22,417.83,407.88,416.56,411.14z"/>
	<path class="st36" d="M401.89,425.03c0.25-0.52,0.51-1.05,0.76-1.57c0.93-0.61,0.93-2.18,2.75-2.34c-0.58,2.82-0.54,5.64-2.51,7.9
		C402.07,427.82,401.55,426.53,401.89,425.03z"/>
	<path class="st31" d="M378.59,315.85c-3.3,2.54-7.04,1.49-10.68,1.3c7.95-12.19,12.73-25.77,17.37-39.48
		C387.04,291.1,383.24,303.55,378.59,315.85z"/>
	<path class="st30" d="M328.83,311.09c-1.36-0.22-2.48-0.81-3.26-1.99c5.11-6.7,9.1-14.11,13.59-21.25
		C337.48,296.42,333.54,303.93,328.83,311.09z"/>
</g>
</svg>
