<?xml version="1.0" encoding="utf-8"?>
<!-- Generator: Adobe Illustrator 24.1.0, SVG Export Plug-In . SVG Version: 6.00 Build 0)  -->
<svg version="1.1" id="Layer_1" xmlns="http://www.w3.org/2000/svg" xmlns:xlink="http://www.w3.org/1999/xlink" x="0px" y="0px"
	 viewBox="0 0 916 916" style="enable-background:new 0 0 916 916;" xml:space="preserve">
<style type="text/css">
	.st0{fill:url(#SVGID_1_);}
	.st1{fill:#CA2723;}
	.st2{fill:#C00A0A;}
	.st3{fill:#C91F1E;}
	.st4{fill:#E13534;}
	.st5{fill:#D62D29;}
	.st6{fill:#FFFFFF;}
	.st7{fill:url(#SVGID_2_);}
</style>
<g>
	
		<linearGradient id="SVGID_1_" gradientUnits="userSpaceOnUse" x1="15" y1="334" x2="881.4713" y2="334" gradientTransform="matrix(1 0 0 1 0 124)">
		<stop  offset="0" style="stop-color:#AD2121"/>
		<stop  offset="1" style="stop-color:#D6101B"/>
	</linearGradient>
	<circle class="st0" cx="458" cy="458" r="443"/>
	<path class="st1" d="M458,458L55.6,350.6c0,0-54.2,160.6,18.4,271.8c15.1,23.2,24.9,46.3,36.8,65.8c45,73.8,85.5,122.1,240.8,174.1
		C387.4,724,458,458,458,458z"/>
	<path class="st2" d="M53,350.6L456,458L244.2,97.2c-48.6,31.2-91.4,70.6-126.6,116.5C93,234.6,53,350.6,53,350.6z"/>
	<path class="st3" d="M241.3,99.2L458,458l253.4-332.7c-28.1-22.1-117.3-86.5-247.7-88.4C353.4,35.3,273.3,79.3,241.3,99.2z"/>
	<path class="st4" d="M711.4,125.3L458,458l405.3,102.5c9.5-34.1,35.1-142.8-15.5-264.1C808.1,201.4,742,147.3,711.4,125.3z"/>
	<path class="st5" d="M862.3,559.6L455.1,455.1L346.8,859.4c57.9,18.5,106.2,20,137.3,18.4c0,0,172.6-8.9,294-151.9
		c8.1-9.5,15.3-19.3,15.9-20C816.5,675.7,844.8,628.2,862.3,559.6z"/>
	<polygon class="st6" points="374.3,607.2 295.4,607.2 459.9,181.4 511.2,181.4 650,607.2 570.2,607.2 471.3,271.7 	"/>
	<polygon class="st6" points="471.3,596.8 477,607.2 701.4,496 689,465.6 	"/>
	<polygon class="st6" points="295.4,181.4 238.4,214.6 454.2,568.3 677.6,434.2 652.9,368.6 478.9,471.3 	"/>
	<linearGradient id="SVGID_2_" gradientUnits="userSpaceOnUse" x1="34.3" y1="458" x2="881.7" y2="458">
		<stop  offset="0" style="stop-color:#AD2121"/>
		<stop  offset="1" style="stop-color:#D6101B"/>
	</linearGradient>
	<path class="st7" d="M458,42.1c229.8,0.1,415.9,186.5,415.8,416.3c-0.1,167-100.1,317.8-253.9,382.9
		C408.2,930.7,164.2,831.6,74.8,620s9.7-455.7,221.3-545.1C347.3,53.1,402.4,42,458,42.1 M458,34.3C224,34.3,34.3,224,34.3,458
		S224,881.7,458,881.7S881.7,692,881.7,458S692,34.3,458,34.3z"/>
	<g>
		<path class="st6" d="M286.9,736.4h-12.8l-2.2-14.8h-15.6l-2.2,14.8h-11.7l12.9-81.6H274L286.9,736.4z M257.9,710.5h12.3l-6.1-41.3
			L257.9,710.5z"/>
		<path class="st6" d="M304.1,677.2v59.1h-11.5v-81.6h16l13.1,48.9v-48.9H333v81.6h-13L304.1,677.2z"/>
		<path class="st6" d="M342.2,654.7h12.7v81.6h-12.7V654.7z"/>
		<path class="st6" d="M364.2,654.7h12.7v70h20.9v11.7h-33.6V654.7z"/>
		<path class="st6" d="M403.3,654.7H416v81.6h-12.7V654.7z"/>
		<path class="st6" d="M463.3,673.5v2.9c0,8.4-2.5,13.8-8.2,16.4c6.8,2.7,9.5,8.9,9.5,17.5v6.7c0,12.6-6.6,19.3-19.3,19.3h-20v-81.6
			h19.2C457.7,654.7,463.3,660.9,463.3,673.5z M438,666.4V688h5c4.7,0,7.6-2.1,7.6-8.6v-4.5c0-5.8-1.9-8.4-6.5-8.4L438,666.4
			L438,666.4z M438,699.6v25.1h7.3c4.3,0,6.6-1.9,6.6-8v-7.1c0-7.6-2.4-9.9-8.2-9.9L438,699.6L438,699.6z"/>
		<path class="st6" d="M498.8,736.4c-0.7-2.1-1.2-3.4-1.2-10v-12.8c0-7.6-2.5-10.4-8.3-10.4h-4.4v33.2h-12.7v-81.6h19.2
			c13.2,0,18.9,6.2,18.9,18.8v6.4c0,8.4-2.7,13.9-8.3,16.6c6.4,2.7,8.4,8.9,8.4,17.4v12.6c0,4,0.1,6.9,1.4,9.9L498.8,736.4z
			 M484.9,666.4v25.1h5c4.7,0,7.6-2.1,7.6-8.6v-8c0-5.8-1.9-8.4-6.5-8.4L484.9,666.4L484.9,666.4z"/>
		<path class="st6" d="M518.7,654.7h12.7v81.6h-12.7V654.7z"/>
		<path class="st6" d="M581.8,736.4H569l-2.2-14.8h-15.6l-2.2,14.8h-11.7l13-81.6h18.6L581.8,736.4z M552.8,710.5H565l-6.1-41.3
			L552.8,710.5z"/>
		<path class="st6" d="M600,724v12.4h-12.3V724H600z"/>
		<path class="st6" d="M598.6,654.7h39.3v11.7h-13.3v70h-12.7v-70h-13.3V654.7z"/>
		<path class="st6" d="M662.6,721.3l9.7-66.6H684l-12.4,81.6h-19l-12.5-81.6h12.8L662.6,721.3z"/>
	</g>
</g>
</svg>
