<?xml version="1.0" encoding="utf-8"?>
<!-- Generator: Adobe Illustrator 24.1.0, SVG Export Plug-In . SVG Version: 6.00 Build 0)  -->
<svg version="1.1" id="Layer_1" xmlns="http://www.w3.org/2000/svg" xmlns:xlink="http://www.w3.org/1999/xlink" x="0px" y="0px"
	 viewBox="0 0 415.1 478.4" style="enable-background:new 0 0 415.1 478.4;" xml:space="preserve">
<style type="text/css">
	.st0{fill:#020202;}
	.st1{fill:#030304;}
	.st2{fill:#522C20;}
	.st3{fill:#2A2C0E;}
	.st4{fill:#535718;}
	.st5{fill:#5D5D5D;}
	.st6{fill:#D42F35;}
	.st7{fill:#FCF1DC;}
	.st8{fill:#945C48;}
	.st9{fill:#F3FE01;}
	.st10{fill:#DFDDED;}
	.st11{fill:#FDFDFD;}
	.st12{fill:#EDEBF6;}
	.st13{fill:#EDECF6;}
	.st14{fill:#283A84;}
	.st15{fill:#283C85;}
	.st16{fill:#CFDAD7;}
	.st17{fill:#43EFF5;}
	.st18{fill:#44F0F7;}
	.st19{fill:#ECB18E;}
	.st20{fill:#FCFCFC;}
	.st21{fill:#945B47;}
	.st22{fill:#FBFBFB;}
	.st23{fill:#935B47;}
	.st24{fill:#FAFBFA;}
	.st25{fill:#EBAF93;}
	.st26{fill:#EBAF92;}
	.st27{fill:#512C20;}
	.st28{fill:#ECB093;}
	.st29{fill:#CBF3F9;}
	.st30{fill:#CCF3F8;}
	.st31{fill:#F7F7F7;}
	.st32{fill:#EAAF93;}
	.st33{fill:#D0DBD8;}
	.st34{fill:#E7AD90;}
	.st35{fill:#EDEDED;}
	.st36{fill:#E7E8E8;}
	.st37{fill:#F7F8F7;}
	.st38{fill:#9C2022;}
	.st39{fill:#CDD9D5;}
	.st40{fill:#512C1F;}
	.st41{fill:#EBB194;}
	.st42{fill:#DAA48B;}
	.st43{fill:#F6F7F7;}
	.st44{fill:#E6AE92;}
	.st45{fill:#D3DEDA;}
	.st46{fill:#F6F6F6;}
	.st47{fill:#D2DDDA;}
	.st48{fill:#D2DCD8;}
	.st49{fill:#E8B196;}
	.st50{fill:#CFD9D6;}
	.st51{fill:#E8E8E8;}
	.st52{fill:#D3DDDA;}
	.st53{fill:#E6EDEE;}
	.st54{fill:#9B2428;}
	.st55{fill:#8C5844;}
	.st56{fill:#895442;}
	.st57{fill:#EBF3F4;}
	.st58{fill:#E2E9F0;}
	.st59{fill:#E8F2F3;}
	.st60{fill:#8C5742;}
	.st61{fill:#8F2125;}
	.st62{fill:#DDAA91;}
	.st63{fill:#DAAA90;}
	.st64{fill:#922228;}
	.st65{fill:#851F21;}
	.st66{fill:#68171A;}
	.st67{fill:#E6E6E6;}
	.st68{fill:#515453;}
	.st69{fill:#784939;}
	.st70{fill:#4E1213;}
	.st71{fill:#CD9B83;}
	.st72{fill:#595F5D;}
	.st73{fill:#EAC6B9;}
	.st74{fill:#EAC6BA;}
	.st75{fill:#141311;}
	.st76{fill:#0B0D0D;}
	.st77{fill:#D43238;}
	.st78{fill:#35ACA5;}
	.st79{fill:#97EBEA;}
</style>
<path class="st0" d="M412.1,160.8c-2.1,6.3-4.2,12.6-6.1,19c-0.7,2.2-1.6,2.9-3.9,2.2c-5.9-1.7-11.8-3.2-18.2-5
	c0.5,6.3,3.3,11.7,4.8,17.4c5.1,18.9,10.7,37.6,13.3,57.1c3.5,26.2,3.1,52.3-1.8,78.4c-5.2,27.7-12.9,54.6-23.2,80.7
	c-3.4,8.5-7.8,16.4-14.4,23.1c5.7-18.8,7.5-38.2,10-57.5c-2.3,2.4-2.6,5.6-3.5,8.5c-6.6,20.5-15.4,40-28.7,57.1
	c-1.6,2.1-3.6,3.9-5.4,5.8c-3.4-1.8-0.3-3.4,0.5-4.5c5.5-7.3,10.4-14.9,14.6-23c0.9-1.8,1.8-3.5,2.5-5.4
	c12.1-23.9,18.7-49.9,27-75.7c2.5,1.4,2.5,2.9,2.3,4.3c-0.5,3.8-0.4,7.7-1.6,11.4c-3.6,11.1-3.5,22.6-4.9,34
	c-1.3,10.3-2.6,20.6-5,27c6.1-13.2,11.8-30.5,16.9-48c5.7-19.2,10-38.7,12-58.6c1.8-18.4,1.6-36.8-0.9-55.2
	c-2.5-18.4-6.9-36.3-12.5-53.9c-1.2-5.7-3.4-11.2-4.9-16.8c-1.1-4.1-3.7-5.8-7.6-6.7c-15.5-3.4-31-6.3-46.7-8.2
	c-16.5-2-33.1-3.4-49.7-3.2c-18,0.2-35.8,3-53.5,5.5c-44.4,6.3-85.3,22.1-122.6,46.8c-23,15.2-18.1,11.7-21.2,37.4
	c-0.2,1.5,0,3-0.1,4.5c-0.1,3.8,0.3,7.6-0.8,10.9c-0.2,1,1.1,0.4,0.4,0.5c-0.1,0-0.2-0.1-0.1-0.3c0.5-4.2,2.4-7.8,4.4-11.5
	c1.2-1.9,1.9-3.9,2.4-6c0.3-1.4,0.4-3.4,2.3-3.4c2.3-0.1,2.1,2.1,2.4,3.7c0.1,0.5,0.1,1,0.1,1.5c-0.5,53.9,15.6,103.2,40.5,150.2
	c0-2.5,0.5-4.8,0.7-7.1c1.2-16.4-3.1-31.7-9-46.6c-3.7-9.3-7.2-18.6-12-27.4c-6-11-8.3-23.2-9.7-35.4c-1.4-11.7-2.7-23.5-2.3-35.3
	c0-7.5-0.7-15,1-22.3c0.3-1.1,0.4-2.3,0.7-3.4c0.5-1.3,0.5-3.5,2.4-3.2c1.6,0.2,1.7,2.3,1.7,3.7c0.2,5.3,0.2,10.6,0,15.9
	c-0.7,20.2,0.3,40.3,4.9,60c3.4,14.5,9.9,27.5,21.3,37.8c-1.2-5.7-2-11.5-2.8-17.2c-0.8-5.8-1.6-11.5-4.7-16.7
	c-1.6-2.7-2.2-5.9-2.9-9c-0.3-1.6-1-3.8,0.8-4.5c2-0.8,2.5,1.6,3.2,3c0.6,1,1,2.1,1.4,3.2c4.1,10.2,11,18,20.5,23.9
	c-4.2-6.6-7.3-13.6-10-20.7c-3.3-8.8-5.3-17.8-4.6-27.3c0.2-2.5,0-5,0-7.5c0.4-13,0.6-26-5.1-38.2c-1.7-7.5-2.8-15-1-22.6
	c0.3-1.5,0-4,2.1-3.8c1.9,0.1,1.6,2.5,1.9,4.1c1.3,6.8,0.8,13.8,2.3,20.6c1.1,4.2,2.2,8.3,4.3,12.1c0.9,1.7,1.3,4.7,4.2,4
	c2.6-0.7,4.8-2.4,5.3-5.3c0.5-2.9,0.9-5.9,1.3-8.8c0.6-4.6,1.5-9.1,2.3-13.7c1.1-5.2,2.1-10.5,4-15.5c0.6-1.7,1.4-3.7,3.7-3.3
	c2.4,0.4,2.4,2.6,2.5,4.3c0.2,3.2,0.2,6.3,0,9.5c-0.5,6.1,0.8,11.9,2.6,17.6c0.6,1.8,0.9,4.2,3.5,4.2c2.6,0,3.7-1.9,4.3-4.1
	c1.8-7.6,3.7-15.2,6.3-22.5c1.8-5.9,3.5-11.8,5.8-17.4c0.8-1.9,1.3-5.1,3.6-4.7c2.7,0.5,1.8,3.8,1.9,6c0.2,3.8,0.1,7.6,0,11.4
	c-0.5,14.5,2.6,28.3,8.9,39.5c-1.1-4.7-1.9-11.2-1.6-17.7c0.1-1.5,0-3.1,0.9-4.3c1.3-1.9,2.8-2.3,4.4-0.3c0.9,1,1.3,2.3,1.8,3.5
	c4.4,9.9,10.2,18.6,18.1,26.1c5.2,5,6.5,4.7,9.1-2.3c3.5-9.6,5.8-19.5,7.5-29.5c0.2-1,0.2-2,0.5-3c0.4-1.5,1-2.9,2.8-3.2
	c2-0.2,3,1.3,3.6,2.9c1.7,4.8,1.2,9.9,2,14.8c0.5,2.9,0.4,6-0.1,8.2c5.2-15.1,7.4-31.3,3.9-48c-0.6-5.6-1.8-11.1-3.9-16.4
	c-0.5-1.3-1.5-3.1,0.4-3.9c1.4-0.6,2.3,0.9,3.1,2c1.4,1.9,2.9,3.7,3.5,6c1,4,3.3,7.2,5.8,10.3c6.5,8.9,11.3,18.8,16.6,29.1
	c0.8-10.6-0.1-20.6-1.5-30.5c-0.2-2.5-0.9-4.9-1.1-7.4c-0.1-1.5,0-3.1,1.5-4c1.7-1,3.2-0.1,4.5,1c4,3.5,7.7,7.3,10.8,11.6
	c5,6.5,9.3,13.4,12.8,20.8c0.6,1.2,1.2,2.9,2.6,2.6c2-0.3,1.4-2.3,1.5-3.7c0.5-6.4-0.7-12.6-2.1-18.8c-0.5-3.7-2.5-6.9-3.6-10.4
	c-0.4-1.2-1.3-2.9,0.1-3.6c1.7-1,2.6,0.8,3.5,1.9c2.6,3.3,4.4,7,5.6,11.1c5.2,21.1,13.3,41.5,15.7,63.3c2,18.1,2.5,36.1-0.3,54.4
	c6.1-6.9,9.8-15.2,13-23.7c1.1-3,1.7-6.1,3.3-8.9c0.4-0.7,0.9-1.5,1.9-1.2c0.7,0.2,0.9,0.9,1.1,1.6c0.4,1.3,0.4,2.6,0.2,4
	c-0.4,2.8-0.6,5.8-1.9,8.2c-5.7,10.2-4.5,21.6-6,32.5c7.6-10.2,12.6-21.7,16.4-33.8c6.4-20.8,10.2-42,9.1-63.9
	c-0.1-2.2-0.3-4.3-0.6-6.5c-0.2-1.9-0.6-4,1.4-5.4c2.3,1.2,2.2,3.6,2.8,5.6c3.4,12,2.4,24.1,0.8,36.2c-2,14.9-5.5,29.4-11,43.5
	c-5.5,12.3-6.2,25.8-8.6,38.8c-1.8,10-3.5,20-3.7,30.1c-0.2,10.2,1.3,20.2,5.6,29.6c0.8,1.8,1.7,3.6,2.4,5.5c1,2.4,0.9,4.2-2.3,4.6
	c-3.4,0.4-3.3,3.4-3.7,5.7c-2.3,11.2-5.1,22.3-8.8,33.2c-1,3.1-3.6,5.7-3,9.3c-1.5,2-3.3,3.5-6.2,5c5.4-12.8,9-25.5,12-38.4
	c-4.8,8.8-8.5,18.1-13.7,26.6c-4.4,7.1-9.1,13.9-14.9,19.8c-7.4,7.6-17.3,10.1-27.1,12.8c-25,7-48.4,0.5-71.6-7.8
	c-14.8-5.3-25.4-16-34.4-28.5c-5.9-8.3-11.6-16.6-16.5-25.5c-0.4-0.7-1-1.3-2.1-0.8c5.7,14.9,9.8,30.4,18,44.4
	c-3.3-1.2-6.2-2.8-8.6-5.3c-10.2-10.7-21.4-20.6-30.1-32.6c-2.5-3.5-4.3,1.1-7.1,0c3.1-7.4-2.7-12-6-17.5
	c-10.4-17.4-17-36.4-23.1-55.5c-7-22-13-44.4-15-67.5c-0.4-4.9-0.1-9.9-0.1-16.2c-3.7,4.2-4.1,8.2-5.4,11.8
	c-1.4,3.8-0.7,8.7-5.6,10.8c-0.4,0.2-0.3,1.6-0.5,2.3c-3.8,13.6-11.6,24.9-20.5,35.5c-0.3,0.3-0.8,0.4-1.6,0.7
	c0-4.5,1.5-8.7,0.9-13.8c-3.7,6.2-7.2,11.7-11.7,16.5c-7.9,8.4-18.5,12.9-28.3,18.4c-2.4,1.4-5.3,4.9-7.8,2.6
	c-1.5-1.4,1.7-4.8,2.6-7.4c3-8.5,6.6-16.9,7.3-27.3c-4.4,4.4-7.8,8.2-12.5,10.4c-1,0.5-2,1.6-3.1,0.6c-1-0.9-0.3-2.2,0.2-3.2
	c8-14.8,7.6-31.1,8.2-47.2c0.2-6.1,3.6-11.3,4.9-17.3c-0.9,0-1.3-0.1-1.7,0c-2,0.7-4,3.5-5.6,2.4c-2.2-1.4-1.1-4.6-0.7-7
	c2.2-15.8,6.7-30.8,15.3-44.4c0.8-1.3,1.7-2.5,2.5-3.8c0.2-0.4,0.3-0.9,0.4-1.4c-1.3-1.4-2.9-0.3-5.1-1.1
	c6.7-7.6,7.3-18.8,16.9-24.9c-4-1.7-7.6-3.3-11.8-5.1c5.8-3.6,11.5-5.5,17.4-7.1c6.1-1.7,6.5-2.7,3.1-8.1c-1.3-2.1-2.8-4.2-4.1-6.3
	c-0.5-0.8-1.3-1.7-0.5-2.7c0.9-1.1,1.9-0.1,2.7,0.2c8.4,3.2,17,5.7,25.8,7.5c2.5,0.5,3.8,0.4,4.8-2.5c7.8-21.7,18.3-42,31.3-61
	c0.5-0.8,1-1.6,1.8-2.7c-9.2-1.4-18-2.9-26.1-6.8C62.9,72.7,60.2,55,73.3,41c15.7-16.7,36.5-22.4,57.3-28.2
	c10.2-2.8,20.8-4.4,31.4-5.3c0.8-0.5,1.9-0.5,2,0.4c0.1,1.6-1.6,1.9-2.7,2.5c-5.5,1.9-11.4,2.3-17.1,3.4
	c-18.5,3.4-36.1,9.1-52.8,17.6c-7.4,3.7-13.6,8.9-18.2,15.9C65.9,58,68.7,70,80,76.2c7.7,4.2,16.1,6.1,24.7,7.7
	c1.5,0.3,3,0.2,4.2-0.9c1-0.9,2.1-2,1.8-3.4c-0.3-1.4-1.8-1.3-2.9-1.5c-3.8-0.8-7.5-1.6-11.1-2.8c-7.5-2.5-10.2-8.5-7.3-15.7
	c1.9-4.7,5.1-8.2,9.1-11c15.1-10.1,31.7-16.8,49.6-19.9c1.3-0.2,2.6-0.3,4-0.1c1.9,0.5,2.8,1.5,1.4,3.4c-5.3,3.5-11.7,3.4-17.6,4.9
	c-12.3,3.2-23.2,9-33.8,15.7c-3.3,2.1-6.1,4.7-7.6,8.3c-2,4.6-0.9,7.3,3.6,9.1c0.6,0.3,1.2,0.5,1.9,0.7c14.2,4.6,14.1,4.5,24.7-5.8
	c11-10.8,23.3-19.8,37.7-25.7c1.5-0.6,3-1.5,4.8-1.2c0.8,0.2,1.3,0.7,1.5,1.5c-0.1,2-1.8,2.7-3.3,3.4
	c-28.8,13.5-48.9,36.2-65.4,62.5c-11.6,18.4-20.7,37.9-26,59.1c-1.6,6.4-1.7,12.9-1.4,19.3c0.3,5.7-1.7,9.7-5.7,13.6
	c-8,7.5-15.5,15.5-23.4,23.2c-3.1,3-3.7,5.9-1.6,9.7c2.4,4.3,4.8,8.7,7.4,13c2.9,4.8,3.7,4.8,7.7,0.7c0.5-0.5,0.9-1,1.4-1.4
	c21.6-20.5,46.4-36.2,72.7-49.8c30.5-15.8,63.3-24.4,97.1-29.4c23.3-3.5,46.7-5,70.2-3.9c22,1.1,43.7,4.2,65.3,8.7
	c10.4,2.2,20.9,4.3,31.1,7.4c7,2.5,7.6,2.2,10.1-4.7c1.1-3.1,2-6.4,3.4-9.4c0.7-1.6,1.1-3.6,3.3-4.1
	C413,158.2,412.4,159.5,412.1,160.8z"/>
<path class="st1" d="M153,31.5c0.8-1.5,0.1-2-1.3-2c1.1-2.8,3.8-2.6,5.9-2.9c18.8-2.6,37.6-4.5,56.6-5.6c11.7-0.7,23.3-1.2,34.9-0.7
	c28.1,1.2,56.3,1,84.1,5.9c8.4,1.5,16.6,3.3,24.2,7.5c4.8,2.7,8.6,5.8,7.7,12.1c-0.9,6.2-4.7,9.6-10.6,11.1
	c-12.1,3.1-24.4,5.5-36.7,7.6c-0.9,0.2-2-0.1-2.8,0.9c3.8,5.1,9.1,6.2,15,5.6c14.2-1.6,28.4-3.3,42.4-6.9
	c6.4-1.6,12.2-4.2,13.6-11.6c1.4-7.5-1.2-13.9-6.9-18.8c-8.1-6.9-17.5-11.6-27.4-15.3c-21.7-8-44-12.5-67.2-13.9
	c-21.2-1.2-42.2,0-63.4,0.3c-3.9,0-7.9-0.5-11.8,0.5c-1.4,0.3-2.8,0.4-4.2,0.4c-1.2-0.3-3.2-0.2-2.9-1.9c0.3-1.8,2.7-0.3,3.8-1.3
	c18.9-1.2,37.9-2.6,56.8-2.8c33.4-0.3,66.1,4.2,97,17.6c9.2,4,18.8,8,24.9,16.7c2.4,3.4,4.1,7.1,4.8,11.4
	c1.9,12.8-3.8,20.9-16.7,23.1c-15.7,2.7-31.4,5.8-48.1,7c5.2,5.8,10.3,11,14.9,16.5c6.9,8.2,12.3,17.4,18,26.3
	c1.5,2.4,3.2,3.9,5.8,5c16.4,6.9,32.7,14,49,21c2,0.8,3.1,1.8,2.3,4.1c-0.6,0.6-1.3,0.7-2.2,0.6c-17-6.9-33.7-14.3-50.6-21.4
	c-3.7-1.6-6.5-3.9-8.5-7.4c-13.4-24.4-32.9-43.4-54.2-60.8c-19.7-16.1-42.6-25.5-67.8-28.3c-19.8-2.2-39.2,0.6-58,7.7
	c-1.8,0.7-3.5,2.1-5.6,0.7c-0.4-0.4-0.8-0.7-1.2-1.1c2.8-4.5,7.8-5.3,12.2-6.8c9-3.1,18.4-4.2,27.8-5.3c17.1-2,33.9-0.8,50.3,4.3
	c17.4,5.4,32.9,14.4,47.3,25.3c3.1,2.4,6.3,3.5,10.1,3.1c12.8-1.3,25.4-3.2,37.6-7.4c1.3-0.4,2.5-0.9,3.6-1.6c4.5-2.9,4.6-8,0-10.9
	c-5.7-3.6-11.9-5.9-18.5-7.2c-14.1-2.7-28.3-3.5-42.7-4.3c-25.1-1.4-50.2-1.8-75.3-2.2c-13.8-0.2-27.3,3.1-41.1,3.9
	c-6.7,0.4-13.2,1.5-19.7,2.8C156.7,32.7,154.7,33.3,153,31.5z"/>
<path class="st2" d="M333,449.5c-1-1.5-1.1-2.9-0.4-4.6c5.3-12.9,8.4-26.5,11.1-40.1c0.8-4.1,1.6-6.9,7.6-3.9
	c-5.7-11.1-9.3-21.4-9.9-32.6c-0.5-8.7,0.4-17.2,1.6-25.6c2-13.1,4.5-26,6.7-39.1c0.7-4,2.2-7.6,4-11.1c2.2,1.3,2.5,3.5,2.7,5.6
	c1.2,10.1,2.9,20.1,2.9,30.3c0,20.1,0.3,40.2-1,60.3c-0.6,9.3-1.8,18.5-5.5,27.2c-3.9,10.2-10.1,19.1-16.6,27.7
	c-0.8,1.1-3.3,1.8-1.5,3.9C334.6,448.5,334,449.2,333,449.5z"/>
<path class="st3" d="M206,2.8c-0.7,1.1-2,0.8-3.6,1.3c1.4,0.3,2.1,0.5,2.8,0.7c-1.1,3-3.8,2.1-6,2.3c-2.1,0.2-4.3,0.1-6.5,0
	c-3.5-0.1-7.1-0.4-10.6,0.1c-0.5,0.2-1,0.3-1.6,0.4c-1.7,0-3.9,0.8-4.6-1.9C185.9,3.2,196,3.5,206,2.8z"/>
<path class="st4" d="M176,5.8c1.5,1.4,3.4,0.3,5,0.9c0,0.3,0,0.9-0.2,0.9c-6.5,2-13,3.9-19.9,2c1.9-1.5,1.9-1.5,1-2
	C166.5,5.8,171.3,5.9,176,5.8z"/>
<path class="st5" d="M413.1,148.5c0.6,0,1.1,0,1.7,0c0.8,4.5-2,8.1-2.7,12.2c-0.5-1,0.3-2.5-1.2-3.2
	C409.6,154.1,411,151.2,413.1,148.5z"/>
<path class="st6" d="M394.9,176.9c-40.4-10.5-81.3-17.6-123.2-16.2c-68.4,2.3-131.4,20.7-187.1,61.6c-9.3,6.8-17.5,14.8-26.6,21.7
	c-4.1-1-4.5-5.1-6.3-7.9c-6-9.7-5.9-9.7,2-17.6c6.8-6.8,13.6-13.7,20.5-20.5c2.9-2.9,4.3-5.9,3.8-10.2c-1.8-14.9,2.7-28.8,8-42.3
	c11-27.9,26.5-53,48-74.1c20.8-20.4,45.9-32.6,75-34.9c34.3-2.8,64.3,8.4,90.4,30.3c19.4,16.3,36.8,34.3,49.2,56.6
	c2.9,5.3,7.4,8.2,12.8,10.5c12.3,5,24.6,10.3,36.9,15.4c5.7,2.3,6.3,3.7,4.3,9.5c-1.8,5.2-3.9,10.3-5.7,15.5
	C396.6,175.4,396.1,176.4,394.9,176.9z"/>
<path class="st7" d="M194.2,246.4c1.2,1.9,2.4,3.9,3.7,5.8c0.8,1.1,1.6,2.9,3.4,2c1.4-0.7,1.1-2.2,0.9-3.5c-0.2-1-0.3-1.9-0.4-2.9
	c-0.3-0.7,0-1.3,0.1-1.9c0.2-1.3-0.1-3,1.5-3.3c1.2-0.2,2,1,2.8,1.9c4.5,4.9,10.1,8.4,15.6,12.1c3.5,2.3,6.1,1.1,8.4-1.9
	c3.7-3.1,4-8.1,6.3-12c1.2-2,2.2-4.1,4.5-1c0,2,0.1,3.9,0.1,5.9c0,1-0.1,2.1,1.1,2.4c1.1,0.3,1.9-0.5,2.3-1.4c1.2-2.3,2.3-4.7,3.4-7
	c5.4-8.4,7.5-18,9.7-27.5c0.4-1.7-0.2-4.1,2-4.6c2.4-0.6,3.5,1.6,4.4,3.3c1.8,3.3,4.7,6.1,5.5,10c2.6,1.4,3,4,3.9,6.4
	c0.3,0.9,0.7,2.1,1.9,1.9c1.1-0.1,1.8-1,1.7-2.1c-0.8-9.9,6.8-10.4,13.4-12.1c0.5-0.1,1-0.2,1.5-0.2c8.7-1.3,7.8-3,11.9,6.5
	c0.5,1.1,0.8,2.2,1.4,3.2c0.4,0.9,0.9,1.9,2.2,1.7c1.1-0.2,1.5-1.2,1.6-2.2c0.3-2.3,0.5-4.6,0.8-6.9c0.2-1.3-0.8-3.3,1.7-3.3
	c2.1,0,2,1.9,2.3,3.2c1.7,7.4,3.4,14.9,5.1,22.3c0.2,1,0.4,1.9,0.7,3.6c-8.8-2.1-17.2-2.4-25.7,0c-9,2.5-17.2,6.2-23.8,12.9
	c-0.6,0.6-1.2,1.2-1.6,1.9c-1.4,2.3-4.4,5.2-2.2,7.4c2,1.9,3.8-2.1,5.9-2.9c0.4-0.2,0.9-0.5,1.6-0.9c0.7,3.8,1.2,7.5,2,11.1
	c0.9,4.6,2.7,8.9,5.2,12.9c7.9,12.4,26.7,11.5,33.7-1.5c3.8-7,4.6-14.5,3.6-22.3c-0.5-3.8-1.2-7.5-1.8-11.6c2.8,0.1,4.3,0.9,4.6,3.9
	c1.6,16.6,2,33.2-1.1,49.7c-0.5,2.8-3.8,5.5-1,8.7c0.7,0.2,1.3,0.6,1.1,1.4c-2.1,7.6-2.5,15.6-5.2,23.1
	c-15.3,15.8-33.8,25.4-55.4,29.5c-25,4.8-49.9,6.3-74.4-2.4c-11.5-4.1-22.1-10-31.2-18.3c-1.1-3.1-1.9-6.3-3.3-9.2
	c-0.5-1-1.7-1.9-0.9-3.1c1-1.5,2.4-0.8,3.6-0.4c1.2,0.5,1.9,0,2.5-0.8c3.2-2.5-0.2-3.9-1.2-5.1c-9.1-11.6-14.9-24.7-18.2-39
	c-0.3-1.3-0.4-2.6-0.7-3.9c1.7-0.3,1.9,1.2,2.8,1.8c1,0.6,1.7,1.8,3,0.9c-1.5-4.8,1.9-11.4,6.8-13.3c3.2-1.2,2.1,1.5,2.1,2.7
	c0.5,10.3,3.8,19.9,8.8,28.8c3.7,6.6,11.6,9.9,18.7,8.2c8.6-2.1,12.1-6.4,13.1-15.3c0.8-7.2,0.2-14.3-1-21.3c-0.2-1-0.7-2.5-0.3-2.9
	c4.1-4-0.1-5.2-2.3-6.7c-11.4-7.9-32.9-7.4-45,0.9c-1.4,0.9-2.6,2-3.9,3c-1.4-2-1.6-11.5-0.3-13.2c0.8-1,1.7-0.9,2.5-0.2
	c1,0.9,1.9,1.8,3,2.5c2.6,1.9,3.8,1.2,4.1-1.9c0.1-2.3,0.7-4.6,0.5-6.9c-0.6-7.6,3.3-11.3,10.4-12.3c3.2,2.8,4.2,7.1,7.2,10.1
	c0.3,0.6,0.7,1.1,1,1.7c0.7,1.1,1.2,2.7,2.8,2.2c1.7-0.5,0.9-2.2,1-3.4c0.1-1.1,0.1-2.3,0.1-3.4c0.8-1.6,1.1-3.4,1.4-5.1
	c0.6-3.8,2.5-5.8,6.4-5.6c0.8-0.1,1.6-0.2,3.7-0.5c-3.1-0.8-4.8-1.2-6.6-1.7c-0.4-0.6-0.5-1.3-0.2-1.9c1.1-2.5,0.8-6.5,3.8-6.9
	c2.6-0.4,3.1,3.4,4.5,5.4C187.6,236.1,190.2,241.7,194.2,246.4z"/>
<path class="st8" d="M352.9,415.8c0.3-6.8,2.8-13.2,3.2-20.1c0.9-12.8,1.7-25.5,1.8-38.3c0.1-19.9,0.6-39.9-3-59.6
	c-0.3-1.8-0.7-3.6-1.1-5.3c7.3-21,12.3-42.5,11.9-64.9c-0.1-6.5-1.5-12.8-3.4-19c2.9,40.5-4.2,78.5-27.2,112.5
	c-1.7-17.2,4.1-33.1,8-49.4c-5.5,12.9-9.5,26.5-20.4,36.4c2.4-11.4,2.6-22.8,2.4-34.3c-0.5-25-5.2-49.2-13.8-72.6
	c-1.7-4.6-2.2-9.7-3.2-14.5c1.8-1.7,4-1.5,6.1-1.2c22.8,2.4,45.3,6.1,67.5,11.9c1.9,0.5,3.9,0.9,5.4,2.3
	c7.4,22.3,12.4,45.1,14.1,68.7c3.3,44.6-7.3,86.8-21.7,128.4c-2.9,8.4-6.4,16.6-11.2,24.2c7.2-26.3,5.7-53.8,13.3-79.9
	c-0.5-0.1-0.9-0.2-1.4-0.3c-1.4,4.8-2.8,9.5-4.3,14.3c-5.6,18.8-11.5,37.5-19.8,55.4C355.2,412.2,354,414,352.9,415.8z"/>
<path class="st9" d="M161,9.6c6.7-1,13.4-1.9,20-2.9c0,0,0,0,0,0c3.6-1.4,7.5,0.3,11.1-0.9c4.3-0.3,8.7,0.2,13-1
	c1.3-0.1,2.5-0.1,3.8-0.2c4-1.2,8.2,0.3,12.3-0.8c16.3-0.6,32.6-1.3,48.9-1.1c27.5,0.4,54.4,4.2,80.3,13.8
	c10,3.7,19.5,8.5,28.1,14.9c6.3,4.7,9.5,11,9.3,18.9c-0.2,7-3.5,12-10.1,13.9c-17.8,5.2-36.1,7.8-54.6,8.4
	c-5.3,0.2-7.7-5.5-12.5-8.6c15.6-2,30-4.9,44.2-8.7c3.6-1,6.8-2.4,8.3-6.4c2.2-5.8,1.3-9.4-4-12.8c-9.4-5.9-20.1-8-30.8-9.3
	C270.1,20,212,19.5,154,28.7c-0.8,0.1-1.6,0.5-2.3,0.8c-20.2,3-38.9,10-55.4,22.2c-3.4,2.5-5.4,5.8-6.4,9.8
	c-1.7,6.2,0.5,10.6,6.6,12.4c5.6,1.7,11.3,2.8,16.9,4.2c-3.5,7.8-4,8.1-12.2,6.5c-8.2-1.6-16.2-3.7-23.4-8.1
	c-9.9-6-12.9-17.7-7-27.7c4.9-8.4,12-14.6,20.7-18.9c20.1-10,41.5-16,63.7-19.1C157.1,10.4,159,10,161,9.6z"/>
<path class="st2" d="M387,199.5c-8.6-0.9-16.7-3.9-25.1-5.5c-17.8-3.2-35.7-6.7-53.9-7.5c-1.9-4.4-3.9-8.8-7.8-12.8
	c1.2,5.2,4,9.1,4.5,13.8c-5.7,0.7-11.3,0.4-17,0c-3.2-4.2-7-7.9-10.7-11.6c-0.8-0.8-1.7-1.8-3-1.3c-1.7,0.6-1.1,2.2-1,3.4
	c0.2,2.5,1.3,4.8,1,7.3c-2,1.9-4.6,1.5-7,1.5c-3.5,0-6.9,0.3-10.3,0.7c-5.4-4.4-5-12-9.6-16.9c-0.4-0.5-0.8-1-1.4-1.4
	c1.7,6.4,4.4,12.5,4.3,19.2c-1,2.2-3.1,2.2-5.1,2.4c-18.1,2.2-36.3,4.5-53.5,11.3c-1.7,0.7-3.5,1.2-5.3,0.4c0-5.6,0-11.3,0-18.4
	c-4.6,8.2-6.1,16.1-9,23.4c-4.7-0.2-8.6,2.1-12.6,4c-2,0.9-4,2.7-6.4,1c0-3.5,0-6.9-0.1-10.4c0-1.2,0.5-3-1.2-3.4
	c-1.9-0.4-1.9,1.6-2.2,2.7c-1.6,5.3-3,10.7-4.5,16c-5.7,5.1-12.7,8.3-19.2,12.1c-2.7-8.1-1.3-16.6-3.3-24.6
	c-2.7,8.4-1.3,17,0.3,25.6c-6.6,5.3-13.9,9.6-21.4,13.4c-1,0.5-2.1,1-3.3,0.5c0-6.6,0-13.3,0-21c-4.1,10.5-2.8,20.3-3.3,30
	c-1.8-3.6-4-2-6.3-0.5c-1.3,0.8-2.6,2.2-4.5,1.5c-0.3-1.5,0.3-3.2-1.2-5.4c-1,4.2-1.1,7.8-3.8,10.4c-2,0-3.9,0.7-5.9,0.1
	c-0.5-8.7,1.2-17.2,2.2-25.7c0.6-5.3,4.8-7.5,8.3-10c23.8-17,49.2-31,76.8-40.7c24.9-8.8,50.5-13.5,76.6-16.8
	c15.9-2.1,31.7-3.3,47.7-2.7c26.6,1,52.7,5.1,78.8,10c9.1,1.7,13.9,5.5,15.5,14.4C384.7,191.9,386.5,195.6,387,199.5z"/>
<path class="st10" d="M67.9,170.6c-0.2,6-0.6,12-0.6,17.9c0,2.4-1.3,3.6-2.7,5c-9,9.1-18,18.3-27.3,27.1c-3.1,2.9-3.1,5-1.1,8.4
	c4,6.7,7.5,13.7,11.4,20.5c2.8,4.9,4.3,5.1,8.4,1.4c5.6-5,11.1-10.1,16.7-15c1.2-1,2.1-2.6,4.3-2.7c-2.4,16.7-2.8,33.5-4,50.3
	c-0.5,7.4-8.6,22.4-15.5,29.9c0-3.3,0-6.4,0-9.4c0-1.3-0.1-2.9-1.7-3.2c-1.7-0.4-2.2,1.1-2.7,2.3c-6.3,16.1-17.1,27.9-32.9,35
	c-3.4,1.5-6.6,3.7-10.4,5.9c2.5-5.9,4.8-11.3,7.1-16.7c3.6-5.6,7-11.2,6-18.4c-0.2-1.6,0.3-3.3,0.9-4.9c1.3-3.8,1.5-7.1-1.5-10.6
	c-2.6-3-1.6-7-0.4-10.5c1.5-4.4,3.4-8.7,5.1-13c0.9-2.3,1.6-4.7,1.8-7.2c0.3-3.9-0.3-6.9-5.2-7.1c-2.6-0.1-4.6-1.8-6.4-3.6
	c-7.2-2.4-7.6-3.4-3-9.9c4.4-6.3,8-13,11.2-20c2.8-6,7.7-10.4,11.2-15.9c2-3.1,3.5-5.9,1.2-9.6c-1.5-2.5,0-4.8,1.8-6.7
	c2.3-2.4,4.7-4.7,6.6-7.5c2.4-3.5,3.9-7.2,3.3-11.7c-0.6-4.8,1.9-7.2,6.5-6C60.2,165.8,65.4,165.5,67.9,170.6z"/>
<path class="st11" d="M394.9,176.9c2.2-6.3,4.2-12.7,6.8-18.8c1.7-4.1,1.2-5.9-3.2-7.6c-13.5-5.3-26.7-11.2-40.1-16.6
	c-4.6-1.8-7.9-4.6-10.2-8.9c-12.7-23-30.4-41.5-50.5-58c-50.3-41.3-115.2-39.9-162.2,5.2C107,99.5,88,132.8,79.8,171.8
	c-1.2,5.6-1,11.3-0.3,16.9c0.4,4-0.7,7-3.6,9.8c-8.6,8.3-17,16.9-25.7,25.2c-2.1,2-2.3,3.5-0.8,5.9c3,4.8,5.8,9.7,8.7,14.5
	c-0.3,0.4-0.7,0.7-1,1.1c-4,5.5-5,5.6-8.3,0.1c-3.1-5.1-5.7-10.5-8.9-15.6c-2.1-3.4-1.6-5.9,1.3-8.7c9.1-8.8,18-17.7,27-26.6
	c1.5-1.5,3-2.9,2.7-5.5c-2-19.3,4.1-36.9,11.7-54c13.1-29.1,30.4-55.3,55.1-76.1C147,51,157.5,45.4,168,39.7
	c17.5-6.7,35.5-10.9,54.5-10.3c28.4,1,53.7,10.5,76,27.8c22.9,17.8,43,38.2,57.1,63.9c1.4,2.5,3.3,3.9,5.9,5
	c15.5,6.4,30.9,13,46.4,19.6c1.8,0.8,3.5,1.8,5.3,2.7c0.4,3.3-2.1,5.9-2.2,9.1c-1.8,4.8-3.6,9.5-5.4,14.3
	C402.6,179.7,402.7,179.7,394.9,176.9z"/>
<path class="st6" d="M273.9,404.4c0.1-1.5,0.3-3,0.3-4.5c-0.1-2.1,0.2-3.6,2.9-3.3c1.2,0.2,3.2-0.2,3-1.1c-0.9-6.1,4.8-9.9,5-15.5
	c0.1-1.2-0.3-2.4,0-3.5c0.7-2.6,1.5-4.1,5.3-3c14.5,4.6,20.7,15,22.6,29.3c2.5,19-0.6,37.4-4.6,55.9c-0.9,4-3.9,6-7.2,7.7
	c-9.1,4.7-19,7-29,8.7c-2.6,0.4-3.2-0.1-2.4-2.8c2.4-8.5,4.1-17.2,7.1-25.4c1.6-4.3,2.4-9.3,6.1-12.8c2.5-2.4,2.1-5.2,0-7.6
	c-1.9-2.1-2.3-4.3-1.8-6.9c-0.6-4.2,1.5-8.1,1.3-12c-0.3,3.6-0.6,7.5-2.3,11.1c-0.5,0.7,0.2,3.8-1.9,1.2c-3.7-4.6-7-9.4-10.4-14.1
	c0.2-2.2,1.3-1.2,2.2-0.6C271.6,406.2,272.9,406.5,273.9,404.4z"/>
<path class="st8" d="M186.1,202.6c19.3-7.8,39.5-11.2,60.1-13.1c1.3-0.1,2.5-0.6,3.8-1c4.3,17.9,1.6,35.1-5.7,51.9
	c-0.5-7.2-0.8-14.3-1.5-21.5c-0.2-2.6,0.5-6.9-2.8-7c-3.2-0.1-1.6,4-2.1,6.2c-2.2,10.4-4.3,20.8-8.2,30.8c-2.6,6.9-4.3,7.2-9.7,2.1
	c-8.9-8.5-16.1-18.1-20.3-29.9c-0.4-1-0.6-2.6-2.1-2.3c-1.4,0.3-1.3,1.7-1.4,2.9c-0.6,8,0.4,15.8,1.8,24.6
	C188.6,232.7,185.7,218.1,186.1,202.6z"/>
<path class="st8" d="M103.2,244.6c7.2-3.6,14-7.9,20.7-12.3c1.2-0.8,2.4-1.7,4-1.7c6,11.4,5.8,23.8,4.9,36
	c-1.2,17.4,2.2,33.8,10.4,49.1c2,3.8,4.4,7.4,7.4,12.3c-7.7-4-13.2-8.8-18.3-14.2c-5.2-5.6-7.2-13-10.9-19.5c0,3.9,0.7,7.7,2.5,11
	c3.6,6.4,4.6,13.4,5.6,20.4c0.9,6.2,2.2,12.4,3.5,19.6c-4.7-3.5-8.3-6.9-11.2-11c-7.8-11.2-13-23.5-15.2-37.1
	C103.7,279.9,102.4,262.3,103.2,244.6z"/>
<path class="st2" d="M155.9,352.7c7,5.3,14.7,9.3,22.5,13.1c9.7,4.6,20,6.9,30.7,7.7c1.1,0.1,2.6-0.4,3.2,0.7c0.9,1.6-1,2.2-1.8,3.1
	c-0.7,0.9-1.5,1.8-2.4,2.5c-18.8,13.9-20.3,33.2-16.5,54c1.4,7.7,3.4,15.2,5.8,22.7c-7-5.8-13.3-12.1-18.8-19.2
	c-7.2-9.4-12.8-19.8-18.4-30.2c-0.5-0.9-0.9-1.6-0.6-2.8c3.7-16.7,0.6-32.9-3.6-49.1c-0.2-0.6-0.3-1.3-0.5-1.9
	C155.4,353.4,155.6,353.2,155.9,352.7z"/>
<path class="st6" d="M214.9,428.6c0.4,2.6,0.8,5.2,1.2,7.8c-0.2,9.1,1.8,17.9,3.5,26.8c0.3,1.4,2,3.3-0.7,4.4c-0.2,0-0.3,0-0.5-0.1
	c-12-2.6-19.5-9.1-21.4-22c-1.6-10.9-6.3-21.5-4.1-32.9c1.8-9.1,4.1-18.2,10.3-25.6c0.8-0.9,1.9-2.9,3-1.8c1.3,1.3,4.3,1.9,3.2,4.9
	c-0.6,1.7-0.8,3.6-0.5,5.4c1,2.4,3.5,3.2,5.1,5c0,1.2,0.1,2.5,0.1,3.7c1.6,2.6,4,2.5,6.5,1.8c2.7-0.8,4.7-0.3,6.1,2.5
	c1.5,2.8,3.6,3.9,6,0.7c0.4-0.6,0.8-1.1,1.3-1.7c1.2-0.7,1.9-2.6,3.6-2c0.9,0.3,0.7,1.3,0.3,2.1c-3.4,9.4-6.7,18.8-10.2,28.1
	c-1.6,4.3-1.6,7.4,3.5,8.9c3.2,0.9,4.3,2.7,3.9,6.5c-0.7,6.9-0.2,13.9-0.2,20.9c-5.6,0.4-8.3-2.5-9.6-8.3
	c-2.8-12.1-6.3-24.1-9.5-36.2c-1.9-2.5-1.7-5.6-2.4-7.7C213.6,422.3,215,425.3,214.9,428.6z"/>
<path class="st8" d="M89,254.6c3.1-1.9,6.1-3.8,9.4-5.8c0.5,1.9,1,3.4,1.4,4.9c0.5,18.1,1.9,36.2,6.1,53.9
	c2.8,11.8,9.9,21.7,14.1,32.9c4.8,12.9,10.2,25.6,12.3,39.4c1.3,9,1,17.9-0.4,27.4c-3-3.1-4.5-6.6-6.4-9.8
	c-14.1-22.8-20.8-48.4-27.6-74C91.9,300.9,87,278.2,89,254.6z"/>
<path class="st2" d="M278.9,365.6c13.8-5.5,25.4-12.8,36.1-23.3c-1.3,6.7-1.2,12.3-1.1,17.9c0.1,10.6,2.3,20.7,6.2,30.5
	c0.2,0.6,0.5,1.2,0.9,1.8c1.9,2.9,3.9,7.9,6.7,7.1c2.6-0.7,0.8-5.8,0.5-8.9c-0.2-2.4,0.5-4.8,0.8-8.1c3.7,5.7,7.7,10,12.4,13.7
	c1.2,1,1.1,1.8,0.7,3c-7.5,18.7-14.5,37.5-27.1,53.7c-0.6,0.8-1.1,1.7-2.1,2.2c1.1-9.8,3-19.3,3.5-28.8c0.7-15.8,1-31.6-9.2-45.3
	c-1.9-2.6-4.5-4.5-7.3-5.9C293.3,371.9,286.5,369,278.9,365.6z"/>
<path class="st8" d="M134.8,409.4c3.8-22.6-1.2-43.9-10-64.6c-0.3-0.7-0.5-1.5-1.1-3.3c3.5,2.8,6.1,4.9,8.7,7c1.2,1,2.5,2.9,4.2,1.6
	c1.5-1.2,0.4-3.1-0.1-4.6c-0.2-0.6-0.4-1.3-0.6-1.9c-0.6-3.2-0.7-6.5-1-9.8c-0.2-2-0.6-4.2,1.4-5.4c2.1-1.2,3.7,0.6,5.1,1.9
	c0.5,0.5,1,0.9,1.6,1.2c11.7,20.5,15.9,42.8,15.1,66.1c-0.2,5.1-2.2,9.7-5.1,13.9c-2.3-0.1-2.1-1.9-1.9-3.3
	c0.7-8.4-0.9-16.5-2.4-24.7c-0.4-2.3-0.7-4.5-0.8-6.8c-0.2-0.6-0.9,0.2-0.3-0.1c0.2-0.1,0.3,0.1,0.3,0.4c0.1,0.7,0.3,1.4,0.1,2
	c-3.2,10.6-5.6,21.5-10.5,31.5c-0.4,0.8-0.9,2.2-2,1.8C133.9,411.9,134.6,410.5,134.8,409.4z"/>
<path class="st12" d="M67.9,170.6c-3.7-3.2-8.4-3.7-12.9-4.9c-2.9-0.8-5.5,0.8-4.7,3.9c2.1,7.7-2.4,12.5-6.6,17.7
	c-1.3,1.7-3,3.1-4.5,4.6c-1.3,1.3-1.9,3.3-0.6,4.5c4.2,3.8,1.5,7.2-0.9,9.9c-9.9,11.2-14.8,25.4-23.2,37.5c-3.7,5.3-3.3,5.6,2.5,7.8
	c0.3,0.4,0.3,0.8-0.1,1.2c-1.9-1.4-3.8-0.6-5.7-0.2c-2.6,0.6-3.8-0.6-3.2-3.2c3.9-16.2,8.8-31.9,18.9-45.5c1.1-1.4,2.7-2.7,1.9-4.8
	c-0.5-1.2-1.3-1.3-5.4-1.2c3-3.3,5-7.2,6.9-11c1.7-3.5,3.4-6.8,7.3-8.4c1.2-0.5,2.4-1.4,2.3-3c-0.1-1.8-1.6-2.4-3-2.9
	c-2.3-0.9-4.6-1.7-7.7-2.8c5.4-1.6,9.9-2.9,14.4-4.3c7.5-2.4,8.1-3.9,4.3-11.1c-0.5-1-1.1-2-2.3-4c8.1,3.6,15.7,5.6,23.5,6.8
	c1.9,0.3,1.9,1.2,1.5,2.8C69.6,163.5,68.8,167,67.9,170.6z"/>
<path class="st8" d="M320.1,382.4c-6.7-22.6-2.5-44.3,4.9-65.8c1.4-1.1,2.8-2.8,4.6-2c2,0.9,1.1,3.1,1.3,4.8
	c0.4,2.6-0.9,5.3,0.2,7.9c4.5-1,6.4-4.9,8.9-8.1c2-2.4,3.5-5.2,5.9-8.8c-1.9,11.9-3.4,22.6-5.3,33.2c-3,16.7-2.5,33,4.4,48.7
	c-2.1,0.9-2.2,1-3.6-1c-3.3-4.5-5.1-9.7-6.9-14.9c-2.1-6.4-3.6-13-5.6-20c-5.8,6.5-5.5,14-6.7,21.1
	C322,379.3,322.9,381.7,320.1,382.4z"/>
<path class="st13" d="M17,252.8c0-0.4,0.1-0.8,0.1-1.2c3.4,1.1,6.2,3.7,10.2,3.2c2.3-0.3,2.6,1.9,2.8,3.9c1,8.1-3.4,14.7-6,21.8
	c-1.1,3-2.3,5.9-2.1,9.1c0.1,1.4,0,2.9,1.2,3.6c4.7,2.8,3,6.6,1.9,10.4c-0.5,1.6-1.3,3.3-1,4.8c1.6,7.8-2.7,13.6-6.2,19.7
	c-0.9,1.5-0.6-0.7-1.1-0.9c0.9-6,1.9-12.1,2.7-18.1c0.3-2,1.7-4.8-1-5.7c-2.5-0.9-2.9,2.1-3.8,3.8c-2.4,4.5-4.9,9-9.6,11.6
	c-0.7-1-0.2-1.7,0.2-2.4c4.4-8.1,5.7-16.9,5.4-26c-0.4-10.6,0.7-20.9,5.3-30.6C17.2,257.4,17.1,255.1,17,252.8z"/>
<path class="st14" d="M280,275.5c-0.3-0.7-0.5-1.4-0.8-2.1c1.6-1.4,4.5-1.9,3.9-5c-0.5-2.9-3.4-2-5.1-3c-1.2-5,1.3-7.6,5.5-9.7
	c8.6-4.4,17.6-5.6,27.1-5.2c0.9,0,1.6,0.3,2,1.2c-0.4,0.3-0.8,0.6-1.2,0.8c-1.3,0.6-3.2,0.8-2.5,2.8c0.5,1.6,2.1,1.2,3.4,0.9
	c0.5-0.1,1-0.1,1.5,0c1.9,7,3.3,14,1.4,21.2c-1.8-6.2-6.6-6.6-12-6.6c-6.2,0-12.1,0.9-17.7,3.9C283.9,275.6,282.1,277,280,275.5z"/>
<path class="st15" d="M155.1,272.3c9.4-1.8,18.8-2,28.2,0c3.3,0.7,3.6,2.9,3.5,5.5c-1,0.9-2,1.7-2.3,3.1c-0.3,1.5-0.5,3.3,0.9,4
	c1.7,0.8,1.5-1.8,2.7-2.1c1.5,2.8,0.7,5.8,0.6,8.7c-7.8-2.9-15.6-3.6-23.5-0.2c-2.9,1.2-5.3,3.3-8.4,4.2c-1.7-5.5-3.3-11.1-2.9-16.9
	c1.2-1,3.6,0.1,4.1-2.1C158.7,274,155.8,273.9,155.1,272.3z"/>
<path class="st16" d="M246.1,462.7c-0.3-11.3-0.3-11.3,11.2-11.5c7.5-0.1,7.5-0.1,8,7.4c0.3,4.5,0.5,9,1.1,13.4
	c0.4,2.8-0.6,3.7-3.1,3.7c-1.2,0-2.3,0-3.5,0C246.4,475.7,246.4,475.7,246.1,462.7z"/>
<path class="st17" d="M280,275.5c7.9-4,16.1-7,25.2-5.9c1,0.1,2,0,3,0.1c7,0.9,7,0.9,6.9,7.7c-1.1,4.3-2.7,8.3-6.9,10.7
	c-1.1-0.3-1.4-1.3-2-2.1c-4.3-6.3-10.8-5.8-14.2,1.1c-0.6,1.3-0.8,2.9-2.2,3.8C282.9,288.1,282,281.5,280,275.5z"/>
<path class="st18" d="M156.9,295.5c6.6-8.4,25.4-10.8,31.9-4c-1.6,5.5,1.1,12.2-4.5,16.6c-2-0.9-2.3-3.1-3.6-4.5
	c-1.9-2.2-4.1-3.1-7-2.5c-2.6,0.5-3.8,2.3-4.4,4.8c-0.3,1.4-0.5,3-2.1,3.7C161,306.8,158.8,301.2,156.9,295.5z"/>
<path class="st19" d="M227.8,374.7c12.8-0.9,24.5-2.8,37.3-5.3c-3.7,6.7-6.9,12.8-10.3,18.7c-0.8,1.3-10.7,1.7-11.9,0.5
	C238.1,384.2,233.4,379.8,227.8,374.7z"/>
<path class="st2" d="M320.1,382.4c1.9-3.8,1.1-8,1.7-12c1-6.6,2.4-10.6,7.6-16.9c2.3,7.8,4.4,15.3,6.6,22.8c1.6,5.4,3.9,10.5,7,15.2
	c0.5,0.7,0.7,2.1,2.1,1c1,0.9,1.6,2,1.4,3.9c-4.8-1.7-8-5.3-10.8-8.9c-2.8-3.6-5-7.7-7.9-12.4c-1.2,5.6-0.5,10.3-0.8,14.9
	c-0.1,1.1,0.5,2.6-0.9,3c-1.3,0.4-2.1-1-2.5-1.9C322,388.3,320.6,385.5,320.1,382.4z"/>
<path class="st20" d="M238,394.5c-2,3.2-4,6.5-6.1,9.7c-0.9,1.3-2.6,2.8-2.9,0c-0.6-6.8-4.4-5.2-8.4-3.8c-0.8,0.3-1.6,0.5-2.7,0.8
	c0.5-3.8-1.8-5.4-4.3-7.9c-2.5-2.5-3.2-8.1-2.6-12c0.5-3,3.9-6,7.9-6.8c4,5.2,8.4,10.2,13,14.9C233.9,391.4,237.4,391.2,238,394.5z"
	/>
<path class="st21" d="M168.7,448c-10.5-9.5-20.4-19.3-28.9-30.4c-1.1-1.4-1.8-2.6-0.3-4.3c2.6-3,4.4-6.6,6.1-10.2
	c0.4,0,0.9,0.1,1.3,0.1c0,5.1,0,10.3,0,15.4c0,1.5-1.2,3.8,1,4.3c1.8,0.4,2.5-1.9,3.3-3.3c1.3-2.3,2.4-4.7,4.8-6.9
	C160.2,424.8,163.3,436.8,168.7,448z"/>
<path class="st21" d="M158.1,212.6c5.2-0.7,9.1-4.6,14.1-5.5c1.5-0.3,3.6-2.6,4.9,0.5c-2.1,7.7-4.4,15.3-6,23.1
	c-0.8,4.1-3.5,4.3-6.4,4.7c-3.4,0.5-3.1-2.5-3.6-4.3C159.3,225.2,157.3,219.1,158.1,212.6z"/>
<path class="st22" d="M272.9,368.3c3.4-1.4,6.4,0.4,9.5,1.1c0.4,0.1,1.1,0.5,1.1,0.8c0.3,2.6-2.4,4.1-2.2,6.8c0.2,2,2.4,4.8-2.2,5.5
	c-3.2,0.5-2.5,3.5-1.8,5.7c0.8,3,1,5.1-3.2,3.8c-2.6-0.8-3.3,0.7-3.3,2.9c0,1.6,0,3.2,0,5.7c-3.7-3.4-6.9-6.2-10-9
	c0.2-4.7,3.7-7.9,5.7-11.8C268.5,376.1,271.1,372.4,272.9,368.3z"/>
<path class="st21" d="M130.9,229.7c1.7-3.9,6-4.3,9-6.4c3.2-2.2,6.4-4.5,10.2-5.7c-1,7.7-1.8,15.5-3.2,23.1c-0.7,4-5,4.9-8.1,6.6
	c-1,0.6-1.6-1.4-2.1-2.3C134.1,240.1,132,235.1,130.9,229.7z"/>
<path class="st23" d="M256.7,187.7c1.1-2.2,3.1-2.1,5.1-2.1c4.1,0,8.2-0.1,12.2-0.1c2.2,11,2.2,22.1,0.9,33.4
	C269,208.3,263.7,197.5,256.7,187.7z"/>
<path class="st24" d="M236.9,421.3c1.1-3.4,2.3-6.7,3.6-10.7c1.2,3.1,2,5.6,3.2,7.9c2.2,4.2,5.8,6.4,10.6,5.9
	c4.7-0.5,5.7-4.4,6.7-8.2c0.9-3.7,1-7.5,1-12.1c4,4.6,7.3,8.8,10,13.4c-0.6,2.8-3.5,3.9-4.4,6.5c-1.7,1.7-3.4,3.4-6.1,3.1
	c-1.7-1.7-0.6,1.1-1.4,0.8c-2.4,1.7-5.4,1.6-7.9,3c-3.2,0.8-5.2-1.1-7.4-2.9c-0.4-0.1-0.8-0.2-1.3-0.2c-6,2.2-6,2.2-6.9-4.5
	C236.6,422.5,236.6,421.9,236.9,421.3z"/>
<path class="st25" d="M269.6,222.6c-4.2-3.4-5.2-9.2-10.6-13.8c0.8,6.8-1.5,11.9-3,17.1c-1.6,5.7-3.1,11.6-8,15.6
	c3.6-10.2,5.9-20.6,6.8-31.4c0.5-6.8-0.9-13.4-0.9-21.4c6.9,10.4,12.7,19.9,16.7,30.4C271.1,220.6,270.4,221.5,269.6,222.6z"/>
<path class="st21" d="M287.8,187.7c5.7-1.9,11.3-1.9,17,0c1.8,6.8,2.8,13.7,2.4,20.7c-0.1,1.5,0.9,3.6-1.4,4.2
	c-2.2,0.5-3.7-0.5-4.6-2.7C297.6,201.9,292.8,194.7,287.8,187.7z"/>
<path class="st26" d="M194.2,246.4c-6.6-4.8-9.2-12.3-13.3-18.8c-0.3-0.4-0.5-0.8-1.2-1.7c-1.3,3.1-2.5,5.9-3.6,8.6
	c-1.5,0.2-3.3,0.6-2.8-1.9c2.2-10.3,5.4-20.4,9.2-30.3c0.4,9.8,1.5,19.4,4.8,28.7C189.1,236.4,192.1,241.2,194.2,246.4z"/>
<path class="st27" d="M134.8,409.4c0.1,0.6,0.2,1.3,0.6,3.4c5.4-12.9,8.4-25.2,12.4-37.4c2.6,6.5,3,13.4,4.2,20.2
	c1,5.3,0,10.7,0.9,15.9c-0.7,1.1-1.3,2.2-2.3,3.9c-3.1-8.2-0.3-16.5-3.5-25.2c-3.2,9.3-5.5,18.2-12.8,25
	C133.8,412.9,133.6,411.2,134.8,409.4z"/>
<path class="st7" d="M297.9,211.6c-4.9,2.8-10.7,2.2-15.8,4.3c-2.2-0.1-2.3-1.8-2.1-3.2c0.9-5.3,0.3-10.6,0.6-15.8
	c0.1-1.6-0.2-3.7,1.7-4.2c1.8-0.5,3,1,4.1,2.2c4.2,4.5,7.3,9.8,10.3,15.1C297.2,210.6,297.6,211.1,297.9,211.6z"/>
<path class="st28" d="M297.9,211.6c-4.3-3.5-6.3-8.9-9.9-13c-1.6-1.9-3.1-3.9-6.1-6c0,5.5-0.2,10.4,0.1,15.2c0.2,2.7-2.6,5.4,0.1,8
	c-3.1,2.2-4.1,1.6-3.8-2.3c0.9-10.8,0.3-21.6-0.6-32.6C285.9,190.2,294.1,199.4,297.9,211.6z"/>
<path class="st29" d="M289.8,290.9c0.4-4.3,1.9-8.1,6.2-9.8c5.6-2.2,10,0.4,12.2,7.1C302.6,292.2,296.5,293.4,289.8,290.9z"/>
<path class="st30" d="M167.2,309.5c1.1-3.8,0.7-8.5,5.9-9.7c5.1-1.2,9.1,1.7,11.2,8.4C178.9,312.1,173.2,312.8,167.2,309.5z"/>
<path class="st31" d="M261.9,433.6c0.1,4.2,1.9,8,2.9,12c0.5,2.1,0.3,3.1-2,3.1c-1.5,0-3,0.1-4.4,0.4c-4.6,1-6.4-0.7-5.5-5.3
	c-0.5-1.4-0.3-2.9-0.3-4.4c-0.1-2.9,0.5-5.3,4.1-5.3c1.7,0,2.5-1.4,3.8-2C261.4,432.2,261.5,433,261.9,433.6z"/>
<path class="st32" d="M221.8,256.5c-7.2-2.8-13.3-7.1-18.3-13.2c-0.6,1.6-1.2,3-1.8,4.5c-2.6-6.4-2.7-13-2.4-19.9
	C204.8,239.2,212.7,248.3,221.8,256.5z"/>
<path class="st33" d="M238,394.5c-8.6-4.5-15.1-11-19-20c2.5-0.7,4.4,0.3,6.2,2.1c4.1,4,8.3,8,12.7,11.7
	C240.6,390.6,240.6,392.4,238,394.5z"/>
<path class="st34" d="M149.8,240.9c1.4-9.7,2.1-18.5,4.6-27.2c0.9,7.1,2,14.1,4.6,20.8c0.6,1.7,0.4,2.8-1.5,3.4
	C155.1,238.6,152.9,239.7,149.8,240.9z"/>
<path class="st35" d="M258.1,413.8c-0.2,3.1-0.6,6.2-4.4,6.8c-3.7,0.5-6.4-1.4-7.9-4.7c-2.8-5.8-2.7-11.9-1.6-18
	c0.6-3.2,2.7-5.1,6.3-5.3c3.6-0.2,5,1.8,5.9,4.7c0.6,2,1.8,3.9,1.6,6.2c0.4,1.1-0.2,1.2-1.1,1.2c-1.6-1.1-1.8-3.1-2.8-4.6
	c-1.8-3-3.8-3-5.7-0.2c-1.8,2.7-1.8,11.7,0,14.5c2.2,3.3,4.4,3.3,6.8,0c0.6-0.8,1-1.8,2-2.1C258.1,412.5,258.6,413,258.1,413.8z"/>
<path class="st36" d="M243.8,463.3c0,2.7,0,5.3,0,8c0,1.4,0.1,2.8-2,2.4c-1.4-0.2-3.1-0.1-3.1-2.3c-0.2-6-0.4-11.9-0.7-17.9
	c-0.1-2,1-2.1,2.5-2.1c1.7,0,3,0.4,3,2.4c0,3.2,0,6.3,0,9.5C243.5,463.3,243.7,463.3,243.8,463.3z"/>
<path class="st37" d="M250.1,440.8c0,0.8,0.1,1.7,0.1,2.5c-0.2,5.9-2.3,7.4-8.3,6.1c-1.6-0.4-1.8-1-1.5-2.4c0.6-2.8,1.1-5.5,1.6-8.3
	c0.8-1.7-0.8-4.2,1.7-5.4c2-0.4,3.7,1,5.5,1.5C251.8,435.4,250.2,438.7,250.1,440.8z"/>
<path class="st38" d="M218.9,467.5c-1.2-6.7-2.3-13.4-3.5-20.1c-0.6-3.7-1.2-7.5,0.6-11.1c2.7,10.9,5.3,21.7,8.1,32.8
	C221.8,469,220.2,468.7,218.9,467.5z"/>
<path class="st39" d="M272.9,368.3c0.5,2.6-0.6,4.9-1.9,7c-3.4,5.5-6.8,10.9-10.2,16.4c-2.7-1.2-2.9-2.8-1.4-5.4
	c2.7-4.5,5.3-9.1,7.5-13.8C268.3,369.9,269.9,368.4,272.9,368.3z"/>
<path class="st40" d="M143,331.6c-2.6,0.4-4.7-3.8-6.3-2c-1.4,1.5-0.5,5-0.6,7.6c-0.1,2.1-0.1,4.3-0.1,6.4
	c-2.8-8.5-3.4-17.3-5.2-26.9C136.8,320.8,140.4,325.7,143,331.6z"/>
<path class="st31" d="M269.1,428.5c1.8,3.3,3.6,6.6,5.5,9.8c2.8,4.7-2.2,3.8-3.8,5.2c-2.2,1.8-3.7,1.1-4.4-1.7
	c-0.7-2.7-1.7-5.3-2.6-7.9c-0.2-0.6-0.2-1.8-0.2-1.8C266.6,432.6,266.9,429.1,269.1,428.5z"/>
<path class="st41" d="M241,241.6c-1.5-0.8-2.5-1.1-3.2,1c-1,2.9-2.6,5.6-4,8.4c-0.8,1.6-1.3,3.5-3.6,3.6c5.2-10.3,6.7-21.7,9.4-32.8
	c0.5,0,0.9,0,1.4,0.1C241,228.5,241,235,241,241.6z"/>
<path class="st42" d="M143.9,261.6c-1.9,0.2-2.6-1.9-5.2-2.5c0,4.6,0,9,0,13.3c-0.5,1.4-1.3,2.6-3.1,3.2c0-8.4,0-16.5,0-26.1
	C138.9,254.2,141.4,257.9,143.9,261.6z"/>
<path class="st2" d="M331.2,327.3c-2.8-3.6-0.1-7.9-1.5-11.9c-1.5,0.4-3.1,0.8-4.7,1.2c1.3-5.3,2.8-10.5,7.8-15.1
	C333.5,310.7,331.9,319,331.2,327.3z"/>
<path class="st43" d="M241.1,436.6c-0.2,0.6-0.4,1.3-0.7,1.9c-0.8,1.7-0.6,4.9-2.4,4.9c-2.4-0.1-4.8-1.8-7.1-3c-1.5-0.8-0.5-2-0.1-3
	c1.1-2.9,2.2-5.8,3.4-8.7c2.1,1.5,3.3,4.7,6.8,4c0.6-0.1,0.9,1.2,1,2.1C241.8,435.3,241.6,436,241.1,436.6z"/>
<path class="st44" d="M315,338.4c-0.3-4.2,1.3-8.2,1.7-12.2c0.5-4.2,1.4-8.2,2.3-12.2c1.8,0.2,2.7-1.6,4.7-1.9
	c-2.4,8.6-4.8,17-7.2,25.3C316.4,337.8,315.5,338,315,338.4z"/>
<path class="st45" d="M260.8,432.5c-1.4,1.3-1,5.4-5,2.8c-1.5-1-2.5,1.4-2.7,3.1c-0.2,1.8-0.2,3.6-0.3,5.4c-1.1-3-0.5-6.2-0.9-9.3
	c-1.2-1.5-1.2-2.9,0.1-4.2c2-2.6,5.1-2.1,7.7-2.9C261.8,428.8,262.4,430.5,260.8,432.5z"/>
<path class="st46" d="M277.3,424.3c4.8,6,5.5,4.2-0.7,11.6c-1.7-1.1-2.6-2.9-3.5-4.6c-0.5-0.5-0.5-1.2-0.7-1.8
	C270.5,424,271.3,423.2,277.3,424.3z"/>
<path class="st47" d="M241.2,434.7c-0.3-0.6-0.5-1.1-0.8-1.7c-5.7,3.5-5.1-1.7-6.2-4.5c0.5-2.6,1.4-5,2.7-7.3
	c1.3,2.2,2.2,4.5,0.9,7.3c2.8,0.3,3.6-4.2,6.4-2C245,430,244,432.7,241.2,434.7z"/>
<path class="st48" d="M277.3,424.3c-0.6,0.3-1.2,0.9-1.7,0.8c-3.6-0.8-3.4,1-2.7,3.4c0.3,0.9,0.1,1.9,0.1,2.9
	c-1.3-0.7-1.4-2.6-3.1-3c-2-1.1-3.6-2.4-3.1-5c1-2.6,2.5-4.8,5.2-5.9C274.2,419.4,275.8,421.8,277.3,424.3z"/>
<path class="st49" d="M155.9,333.7c0.2,1.1,0.5,2.1,0.8,3.3c-2.5,0.3-3.7-2.4-6.4-2c1.4,4,4.3,7.6,3.7,12.2c-3.8-5.9-5.1-13-9.3-19
	C148.5,330,152.2,331.9,155.9,333.7z"/>
<path class="st50" d="M252.1,430.3c0,1.4-0.1,2.8-0.1,4.2c-2.5,1.6-0.3,4.4-1.8,6.3c-0.1-1.7-0.3-3.5-0.5-5.6
	c-3.9,5.2-3.6-1.4-5.6-1.7c-2-2.5,0.4-4.6,0.6-6.9C247.2,427.9,249.6,429.1,252.1,430.3z"/>
<path class="st51" d="M272.7,448.2c-0.7,5.8-2,11.1-3.9,16.5C265.4,451.8,265.8,450.2,272.7,448.2z"/>
<path class="st52" d="M266.8,423.3c1,1.7,2.1,3.4,3.1,5c-0.3,0.1-0.6,0.2-0.9,0.2c-0.8,0.4-1.2,1.2-0.9,2.1c0.8,2.8,1.2,5.1-2.6,2.1
	c-1.5-1.2-1.4,0.5-1.7,1.2c-0.3-0.7-0.7-1.4-1-2.2c-1.3-1.5-2.2-3.1-1.7-5.2C263.5,426.3,265.1,424.6,266.8,423.3z"/>
<path class="st53" d="M278.1,265.4c1.7-1.5,3.5-1.8,5.1,0.1c1.5,1.8,1.8,3.7,0.8,5.9c-1,2.3-2.6,2.6-4.8,2
	C278.9,270.7,278.5,268.1,278.1,265.4z"/>
<path class="st54" d="M232.9,409.3c-2.3,4.2-4,4.4-6.2,0.4c-1.4-2.7-2.8-3.4-5.8-2.4c-2.7,0.9-5.6,0.6-6.7-3c2.5,1.9,5,0.8,7.5-0.1
	c2.3-0.9,3.8-1.1,4.7,2C227.2,409,229.4,411,232.9,409.3z"/>
<path class="st55" d="M144.8,257.2c-7.3-7.5-7.3-8.1,0.9-10.9C146.2,250,146.2,253.5,144.8,257.2z"/>
<path class="st56" d="M78.2,259.6c1.9-1.1,3.9-1.9,5.9-0.1c-1.8,4-3.6,8-5.9,13C78.2,267.4,78.2,263.5,78.2,259.6z"/>
<path class="st57" d="M188.2,282.8c-0.8,1.6,1.4,4.6-1.6,4.9c-2.8,0.3-3.7-2.5-3.9-4.8c-0.3-2.8,0.3-5.4,4.2-5.1
	C187.3,279.4,187.7,281.1,188.2,282.8z"/>
<path class="st58" d="M155.1,272.3c1.7,0.2,3.7-0.2,4.4,2.1c0.4,1.5,0.2,3-0.7,4.1c-1.5,1.8-3.2,0.8-4.8,0
	C153.8,276.4,152.1,273.9,155.1,272.3z"/>
<path class="st59" d="M313.8,256.3c-1.8,1.5-3.7,3-6,0.7c-1.1-1.1-1.7-2.6-0.8-4c1.4-2.4,3.6-1.7,5.7-1.4
	C313.1,253.2,313.4,254.7,313.8,256.3z"/>
<path class="st60" d="M167.7,246.9c-1.2-3.2-4.4-5-2.8-8.3c0.4-0.9,3.1-1.6,3.6-0.8C170.1,240.6,168.8,243.4,167.7,246.9z"/>
<path class="st61" d="M238.1,407.6c-1.3-3.9-2.7,1.1-4-0.1c1.9-3.2,3.9-6.3,6.4-10.4C241.1,401.8,239.5,404.7,238.1,407.6z"/>
<path class="st62" d="M166.1,250.5c-3.7-2.4-6-5.9-7.2-10.1c1-1.3,2-1,2.7,0.3C163.1,244,164.6,247.3,166.1,250.5z"/>
<path class="st63" d="M178.9,236.7c-3,0.6-4.7,2.4-5.4,5.5c-0.4,1.8-0.7,4-2.5,5.3c0.1-1.6,0.4-3.3,0.4-4.9
	C171.5,237.4,174,235.5,178.9,236.7z"/>
<path class="st64" d="M273.9,404.4c0,2.6-1.7,2.2-3.3,1.8c-0.9-0.2-1.6-1.9-2.8-0.5c-1.9-2.3-3.7-4.6-5.6-6.9
	c0.2-0.2,0.4-0.4,0.5-0.6c2.1,1.8,4.2,3.5,6.4,5.3C270.5,404.7,271.9,405.9,273.9,404.4z"/>
<path class="st65" d="M214.1,400.5c-3.3,0-5.1-1.5-5.1-5c1.5,0.7,3,1.3,4.5,2C215.2,398.2,215.4,399.2,214.1,400.5z"/>
<path class="st66" d="M280.1,418.6c0.2-3.8,1.3-7.4,2.6-11c0.2,4.1-0.2,8.1-1.5,12C280.8,419.2,280.4,418.9,280.1,418.6z"/>
<path class="st67" d="M257.2,404.5c0.3-0.3,0.5-0.7,0.8-1c1.9,3.4,1.2,6.9,0.1,10.4c-0.3-0.4-0.6-0.9-0.9-1.3
	C254.9,409.8,254.9,407.2,257.2,404.5z"/>
<path class="st68" d="M244.7,426.6c-0.2,2.3-0.4,4.6-0.6,6.9c-0.7,1.7-1.3,3.4-2,5.1c-0.4-0.7,0-1.7-1-2.1c0-0.6,0.1-1.2,0.1-1.8
	c1-2.7,2-5.4,3-8.1C244.4,426.6,244.6,426.6,244.7,426.6z"/>
<path class="st69" d="M306.6,220.6c-1.3-1.6-3.1-3-2-5.4c0.1-0.2,1-0.4,1.3-0.2C308.2,216.6,306.4,218.7,306.6,220.6z"/>
<path class="st70" d="M214.9,428.6c-1.3-3-1.8-6-2-10.6c1.9,3.9,2.6,6.7,3,9.5C215.6,427.9,215.2,428.2,214.9,428.6z"/>
<path class="st71" d="M309.4,207.2c1.2,0.6,1.5,0.6,1.5,0.7c0.4,1.9,2.4,3.5,1.3,5.7c-0.1,0.2-1.1,0.3-1.3,0
	C308.9,212,310.5,209.7,309.4,207.2z"/>
<path class="st72" d="M261.1,426.5c0.6,1.7,1.1,3.5,1.7,5.2c-0.3,0.6-0.6,1.3-0.8,1.9c-0.4-0.3-0.7-0.7-1.1-1
	c-0.3-1.7-0.7-3.4-1-5.1C260.3,427.1,259.4,425.2,261.1,426.5z"/>
<path class="st3" d="M221.2,3.8c-4,1.1-8.1,1-12.3,0.8C213,2.7,217.1,3.8,221.2,3.8z"/>
<path class="st4" d="M192.2,5.8c-3.6,1.2-7.4,1-11.1,0.9C184.6,4.8,188.4,5.8,192.2,5.8z"/>
<path class="st20" d="M222.7,136.5c-2.7,0.8-4.9,1.4-7.1,2c-1.1,0.3-2.6,0.8-3.2-0.5c-2.7-6-5.1-1.7-7.5,0.2c-1.5,1.1-2.5,3-5.9,3.6
	c2.6-2.9,4.4-5.2,6.5-7.1c2.8-2.4,2.9-4.5-0.2-6.9c-2.4,2.4-5.1,4.7-7.2,7.4c-1.9,2.4-3.2,2-5-0.1c-1.8-2.1-3.7-4.1-5.6-6.1
	c-0.4,0.2-0.9,0.5-1.3,0.7c0,4.2,0.1,8.5,0,12.7c0,2.6-7.3,6.8-9.4,5.4c-1.2-0.8-0.5-2.1-0.4-3.2c0.6-6.6,1-13.3,1.7-19.9
	c0.3-2.9-0.6-5-2.7-7c-6.7-6.3-13-12.9-19.7-19.1c-3.5-3.2-0.3-4.3,1.1-6.2c1.7-2.2,3-2.9,5.4-0.4c5.3,5.5,11,10.6,17.4,16.7
	c0.6-7.3,1.2-13.6,1.5-19.9c0.2-3,0.9-4.8,4.3-5.6c2.5-0.6,3.5,0.1,4.7,2c4.9,7.7,10,15.3,14.7,23.1c1.8,3,3,3,4.8,0.4
	c0.1-0.1,0.2-0.3,0.3-0.4c1.7-1.2,2.8-4.5,4.7-3.6c2.1,1.1,3.9,3.8,4.7,6.2c0.8,2.7-2.7,3.7-3.9,5.7c-0.9,1.5-3.7,2.2-2.1,4.9
	c0.9,1.5,1.7,3,3.6,0.8c1.4-1.7,3-3.1,4.5-4.7c0.9-1,1.7-1.6,2.8-0.2c0.8,1,1.4,1.9,0.2,3c-0.2,0.2-0.5,0.4-0.7,0.7
	c-1.9,2.4-6.2,3.4-5.8,6.8C218.3,131,220.8,133.4,222.7,136.5z"/>
<path class="st73" d="M297.6,320.5c-7.9,0-12.6-2.7-13.5-6.5c-1-4.2,2.3-9.6,7.4-11.7c4-1.7,7.9-3.4,12.2-4.3
	c5.9-1.2,11.4,1.8,13.4,7.5c0.9,2.6-0.3,4.4-1.9,6.3C309.9,318,302.9,320.2,297.6,320.5z"/>
<path class="st74" d="M186.6,323.5c0.6,0.1,2.4-0.1,3.9,0.4c4,1.4,8.1,3.6,8.3,8.3c0.2,4.1-2.5,7.2-6.4,9.3
	c-5.6,2.9-11.1,5-17.5,3.2c-7-1.9-9.5-9-4.8-14.6C174,325.3,179.4,323.4,186.6,323.5z"/>
<path class="st75" d="M275.3,344.6c11.2-1.3,19.8-6.5,25-17.3C300.8,338.5,288.3,347.1,275.3,344.6z"/>
<path class="st76" d="M257.2,404.5c0,2.7,0,5.3,0,8c-1.1,2.6-1,6.6-5.2,6c-4.1-0.6-5.6-3.9-5.9-7.6c-0.3-3-0.3-6,0-8.9
	c0.3-2.9,1.7-5.7,4.9-6.1c3.1-0.3,3.9,2.5,4.8,4.8C256.4,402,256.7,403.2,257.2,404.5z"/>
<path class="st77" d="M187.5,97.7c3.9,6.4,7.6,12.8,11.6,19.1c2,3.2-1.1,3.9-2.3,5.6c-1.5,2.1-2.6,0.5-4-0.4
	c-5.7-3.9-7.5-9.2-6.5-15.9c0.4-2.7,0.1-5.5,0.1-8.2C186.8,97.8,187.1,97.7,187.5,97.7z"/>
<path class="st78" d="M253.2,402.4c1.5,2.9,1.2,6,0.8,9.1c-0.2,1.2-0.3,2.9-2,2.9c-1.8,0-2.7-1.5-2.8-2.9c-0.2-3.4-1-6.8,0.3-10.1
	C250.8,401.5,251.7,403,253.2,402.4z"/>
<path class="st79" d="M253.2,402.4c-0.3,0.9-0.4,2.1-1.7,2c-1.8-0.2-1.6-1.8-1.9-3C251.8,398.1,252.5,400.2,253.2,402.4z"/>
</svg>
